<svg width="314" height="32" viewBox="0 0 314 32" fill="none" xmlns="http://www.w3.org/2000/svg">
<rect width="314" height="32" rx="14" fill="#E04B15"/>
<path d="M131.622 20V12.7273H132.72V19.0554H136.015V20H131.622ZM139.533 20.1101C138.995 20.1101 138.532 19.9953 138.144 19.7656C137.758 19.5336 137.46 19.2081 137.249 18.7891C137.041 18.3677 136.937 17.8741 136.937 17.3082C136.937 16.7495 137.041 16.2571 137.249 15.831C137.46 15.4048 137.754 15.0722 138.13 14.8331C138.509 14.594 138.951 14.4744 139.458 14.4744C139.766 14.4744 140.064 14.5253 140.353 14.6271C140.642 14.7289 140.901 14.8887 141.131 15.1065C141.36 15.3243 141.541 15.6072 141.674 15.9553C141.807 16.3009 141.873 16.7211 141.873 17.2159V17.5923H137.537V16.7969H140.832C140.832 16.5175 140.776 16.2701 140.662 16.0547C140.548 15.8369 140.388 15.6652 140.183 15.5398C139.979 15.4143 139.74 15.3516 139.465 15.3516C139.167 15.3516 138.906 15.425 138.684 15.5717C138.464 15.7161 138.293 15.9055 138.173 16.1399C138.054 16.3719 137.995 16.6241 137.995 16.8963V17.5178C137.995 17.8823 138.059 18.1925 138.187 18.4482C138.317 18.7038 138.498 18.8991 138.73 19.0341C138.962 19.1667 139.233 19.233 139.543 19.233C139.745 19.233 139.928 19.2045 140.094 19.1477C140.259 19.0885 140.403 19.0009 140.523 18.8849C140.644 18.7689 140.736 18.6257 140.8 18.4553L141.805 18.6364C141.725 18.9323 141.58 19.1915 141.372 19.4141C141.166 19.6342 140.907 19.8059 140.594 19.929C140.284 20.0497 139.93 20.1101 139.533 20.1101ZM143.051 20V14.5455H144.113V20H143.051ZM143.587 13.7038C143.402 13.7038 143.244 13.6423 143.111 13.5192C142.981 13.3937 142.916 13.2446 142.916 13.0717C142.916 12.8965 142.981 12.7474 143.111 12.6243C143.244 12.4988 143.402 12.4361 143.587 12.4361C143.772 12.4361 143.929 12.4988 144.059 12.6243C144.192 12.7474 144.258 12.8965 144.258 13.0717C144.258 13.2446 144.192 13.3937 144.059 13.5192C143.929 13.6423 143.772 13.7038 143.587 13.7038ZM147.129 20.1207C146.783 20.1207 146.47 20.0568 146.191 19.929C145.912 19.7988 145.69 19.6106 145.527 19.3643C145.366 19.1181 145.285 18.8163 145.285 18.4588C145.285 18.151 145.345 17.8977 145.463 17.6989C145.581 17.5 145.741 17.3426 145.942 17.2266C146.144 17.1106 146.369 17.023 146.617 16.9638C146.866 16.9046 147.119 16.8596 147.377 16.8288C147.704 16.791 147.969 16.7602 148.173 16.7365C148.376 16.7105 148.524 16.669 148.616 16.6122C148.709 16.5554 148.755 16.4631 148.755 16.3352V16.3104C148.755 16.0002 148.667 15.7599 148.492 15.5895C148.319 15.419 148.061 15.3338 147.718 15.3338C147.361 15.3338 147.079 15.4131 146.873 15.5717C146.669 15.728 146.528 15.902 146.45 16.0938L145.452 15.8665C145.571 15.535 145.744 15.2675 145.971 15.0639C146.2 14.858 146.464 14.7088 146.763 14.6165C147.061 14.5218 147.375 14.4744 147.704 14.4744C147.922 14.4744 148.152 14.5005 148.396 14.5526C148.642 14.6023 148.872 14.6946 149.085 14.8295C149.301 14.9645 149.477 15.1574 149.614 15.4084C149.752 15.657 149.82 15.9801 149.82 16.3778V20H148.783V19.2543H148.741C148.672 19.3916 148.569 19.5265 148.432 19.6591C148.294 19.7917 148.118 19.9018 147.903 19.9893C147.687 20.0769 147.429 20.1207 147.129 20.1207ZM147.359 19.2685C147.653 19.2685 147.904 19.2105 148.112 19.0945C148.323 18.9785 148.483 18.8269 148.592 18.6399C148.703 18.4505 148.759 18.2481 148.759 18.0327V17.3295C148.721 17.3674 148.647 17.4029 148.538 17.4361C148.432 17.4669 148.31 17.4941 148.173 17.5178C148.035 17.5391 147.901 17.5592 147.771 17.5781C147.641 17.5947 147.532 17.6089 147.445 17.6207C147.239 17.6468 147.05 17.6906 146.88 17.7521C146.712 17.8137 146.577 17.9025 146.475 18.0185C146.376 18.1321 146.326 18.2836 146.326 18.473C146.326 18.7358 146.423 18.9347 146.617 19.0696C146.811 19.2022 147.059 19.2685 147.359 19.2685ZM153.881 20V14.5455H154.9V15.4332H154.968C155.081 15.1326 155.267 14.8982 155.525 14.7301C155.783 14.5597 156.092 14.4744 156.452 14.4744C156.817 14.4744 157.122 14.5597 157.368 14.7301C157.617 14.9006 157.8 15.1349 157.919 15.4332H157.975C158.106 15.142 158.313 14.91 158.597 14.7372C158.881 14.562 159.22 14.4744 159.613 14.4744C160.107 14.4744 160.511 14.6295 160.823 14.9396C161.138 15.2498 161.296 15.7173 161.296 16.3423V20H160.234V16.4418C160.234 16.0724 160.133 15.8049 159.932 15.6392C159.731 15.4735 159.491 15.3906 159.211 15.3906C158.866 15.3906 158.597 15.4972 158.405 15.7102C158.213 15.9209 158.118 16.192 158.118 16.5234V20H157.059V16.3743C157.059 16.0784 156.967 15.8404 156.782 15.6605C156.598 15.4806 156.357 15.3906 156.061 15.3906C155.86 15.3906 155.674 15.4439 155.504 15.5504C155.336 15.6546 155.2 15.8002 155.096 15.9872C154.994 16.1742 154.943 16.3909 154.943 16.6371V20H153.881ZM164.306 20.1207C163.961 20.1207 163.648 20.0568 163.369 19.929C163.089 19.7988 162.868 19.6106 162.705 19.3643C162.544 19.1181 162.463 18.8163 162.463 18.4588C162.463 18.151 162.522 17.8977 162.641 17.6989C162.759 17.5 162.919 17.3426 163.12 17.2266C163.321 17.1106 163.546 17.023 163.795 16.9638C164.043 16.9046 164.297 16.8596 164.555 16.8288C164.882 16.791 165.147 16.7602 165.35 16.7365C165.554 16.7105 165.702 16.669 165.794 16.6122C165.887 16.5554 165.933 16.4631 165.933 16.3352V16.3104C165.933 16.0002 165.845 15.7599 165.67 15.5895C165.497 15.419 165.239 15.3338 164.896 15.3338C164.538 15.3338 164.257 15.4131 164.051 15.5717C163.847 15.728 163.706 15.902 163.628 16.0938L162.63 15.8665C162.748 15.535 162.921 15.2675 163.149 15.0639C163.378 14.858 163.642 14.7088 163.94 14.6165C164.239 14.5218 164.552 14.4744 164.882 14.4744C165.099 14.4744 165.33 14.5005 165.574 14.5526C165.82 14.6023 166.05 14.6946 166.263 14.8295C166.478 14.9645 166.655 15.1574 166.792 15.4084C166.929 15.657 166.998 15.9801 166.998 16.3778V20H165.961V19.2543H165.918C165.85 19.3916 165.747 19.5265 165.61 19.6591C165.472 19.7917 165.296 19.9018 165.08 19.9893C164.865 20.0769 164.607 20.1207 164.306 20.1207ZM164.537 19.2685C164.831 19.2685 165.082 19.2105 165.29 19.0945C165.501 18.9785 165.66 18.8269 165.769 18.6399C165.881 18.4505 165.936 18.2481 165.936 18.0327V17.3295C165.898 17.3674 165.825 17.4029 165.716 17.4361C165.61 17.4669 165.488 17.4941 165.35 17.5178C165.213 17.5391 165.079 17.5592 164.949 17.5781C164.819 17.5947 164.71 17.6089 164.622 17.6207C164.416 17.6468 164.228 17.6906 164.058 17.7521C163.89 17.8137 163.755 17.9025 163.653 18.0185C163.553 18.1321 163.504 18.2836 163.504 18.473C163.504 18.7358 163.601 18.9347 163.795 19.0696C163.989 19.2022 164.236 19.2685 164.537 19.2685ZM168.412 20V14.5455H169.474V20H168.412ZM168.948 13.7038C168.764 13.7038 168.605 13.6423 168.473 13.5192C168.342 13.3937 168.277 13.2446 168.277 13.0717C168.277 12.8965 168.342 12.7474 168.473 12.6243C168.605 12.4988 168.764 12.4361 168.948 12.4361C169.133 12.4361 169.291 12.4988 169.421 12.6243C169.553 12.7474 169.62 12.8965 169.62 13.0717C169.62 13.2446 169.553 13.3937 169.421 13.5192C169.291 13.6423 169.133 13.7038 168.948 13.7038ZM174.99 15.8771L174.027 16.0476C173.987 15.9245 173.923 15.8073 173.836 15.696C173.751 15.5848 173.635 15.4936 173.488 15.4226C173.341 15.3516 173.157 15.3161 172.937 15.3161C172.637 15.3161 172.386 15.3835 172.184 15.5185C171.983 15.651 171.883 15.8227 171.883 16.0334C171.883 16.2157 171.95 16.3625 172.085 16.4737C172.22 16.585 172.438 16.6761 172.738 16.7472L173.605 16.946C174.107 17.062 174.481 17.2408 174.727 17.4822C174.973 17.7237 175.096 18.0374 175.096 18.4233C175.096 18.75 175.002 19.0412 174.812 19.2969C174.625 19.5502 174.364 19.7491 174.027 19.8935C173.694 20.0379 173.307 20.1101 172.866 20.1101C172.255 20.1101 171.757 19.9799 171.371 19.7195C170.985 19.4567 170.749 19.0838 170.661 18.6009L171.687 18.4446C171.751 18.7121 171.883 18.9145 172.081 19.0518C172.28 19.1868 172.54 19.2543 172.859 19.2543C173.207 19.2543 173.485 19.1821 173.694 19.0376C173.902 18.8909 174.006 18.7121 174.006 18.5014C174.006 18.331 173.942 18.1877 173.814 18.0717C173.689 17.9557 173.496 17.8681 173.236 17.8089L172.312 17.6065C171.803 17.4905 171.427 17.3059 171.183 17.0526C170.942 16.7992 170.821 16.4785 170.821 16.0902C170.821 15.7682 170.911 15.4865 171.091 15.245C171.271 15.0036 171.519 14.8153 171.836 14.6804C172.154 14.5431 172.517 14.4744 172.927 14.4744C173.516 14.4744 173.98 14.6023 174.319 14.858C174.657 15.1113 174.881 15.451 174.99 15.8771ZM183.442 20.1314L182.802 19.4993L185.022 17.2798H179.447V16.3565H185.022L182.802 14.1406L183.442 13.505L186.755 16.8182L183.442 20.1314Z" fill="white"/>
</svg>
