<svg width="331" height="141" viewBox="0 0 331 141" fill="none" xmlns="http://www.w3.org/2000/svg">
<path d="M17.7727 50.6818C14.1818 50.6818 11.0909 49.9545 8.5 48.5C5.92424 47.0303 3.93939 44.9545 2.54545 42.2727C1.15152 39.5758 0.454545 36.3864 0.454545 32.7045C0.454545 29.1136 1.15152 25.9621 2.54545 23.25C3.93939 20.5379 5.90152 18.4242 8.43182 16.9091C10.9773 15.3939 13.9621 14.6364 17.3864 14.6364C19.6894 14.6364 21.8333 15.0076 23.8182 15.75C25.8182 16.4773 27.5606 17.5758 29.0455 19.0455C30.5455 20.5152 31.7121 22.3636 32.5455 24.5909C33.3788 26.803 33.7955 29.3939 33.7955 32.3636V35.0227H4.31818V29.0227H24.6818C24.6818 27.6288 24.3788 26.3939 23.7727 25.3182C23.1667 24.2424 22.3258 23.4015 21.25 22.7955C20.1894 22.1742 18.9545 21.8636 17.5455 21.8636C16.0758 21.8636 14.7727 22.2045 13.6364 22.8864C12.5152 23.553 11.6364 24.4545 11 25.5909C10.3636 26.7121 10.0379 27.9621 10.0227 29.3409V35.0455C10.0227 36.7727 10.3409 38.2652 10.9773 39.5227C11.6288 40.7803 12.5455 41.75 13.7273 42.4318C14.9091 43.1136 16.3106 43.4545 17.9318 43.4545C19.0076 43.4545 19.9924 43.303 20.8864 43C21.7803 42.697 22.5455 42.2424 23.1818 41.6364C23.8182 41.0303 24.303 40.2879 24.6364 39.4091L33.5909 40C33.1364 42.1515 32.2045 44.0303 30.7955 45.6364C29.4015 47.2273 27.5985 48.4697 25.3864 49.3636C23.1894 50.2424 20.6515 50.6818 17.7727 50.6818ZM61.8636 27.0455V34.7273H40.6364V27.0455H61.8636ZM70.1136 50V15.0909H79.3409V21.25H79.75C80.4773 19.2045 81.6894 17.5909 83.3864 16.4091C85.0833 15.2273 87.1136 14.6364 89.4773 14.6364C91.8712 14.6364 93.9091 15.2348 95.5909 16.4318C97.2727 17.6136 98.3939 19.2197 98.9545 21.25H99.3182C100.03 19.25 101.318 17.6515 103.182 16.4545C105.061 15.2424 107.28 14.6364 109.841 14.6364C113.098 14.6364 115.742 15.6742 117.773 17.75C119.818 19.8106 120.841 22.7348 120.841 26.5227V50H111.182V28.4318C111.182 26.4924 110.667 25.0379 109.636 24.0682C108.606 23.0985 107.318 22.6136 105.773 22.6136C104.015 22.6136 102.644 23.1742 101.659 24.2955C100.674 25.4015 100.182 26.8636 100.182 28.6818V50H90.7955V28.2273C90.7955 26.5152 90.303 25.1515 89.3182 24.1364C88.3485 23.1212 87.0682 22.6136 85.4773 22.6136C84.4015 22.6136 83.4318 22.8864 82.5682 23.4318C81.7197 23.9621 81.0455 24.7121 80.5455 25.6818C80.0455 26.6364 79.7955 27.7576 79.7955 29.0455V50H70.1136ZM138.443 50.6591C136.216 50.6591 134.231 50.2727 132.489 49.5C130.746 48.7121 129.367 47.553 128.352 46.0227C127.352 44.4773 126.852 42.553 126.852 40.25C126.852 38.3106 127.208 36.6818 127.92 35.3636C128.633 34.0455 129.602 32.9848 130.83 32.1818C132.057 31.3788 133.451 30.7727 135.011 30.3636C136.587 29.9545 138.239 29.6667 139.966 29.5C141.996 29.2879 143.633 29.0909 144.875 28.9091C146.117 28.7121 147.019 28.4242 147.58 28.0455C148.14 27.6667 148.42 27.1061 148.42 26.3636V26.2273C148.42 24.7879 147.966 23.6742 147.057 22.8864C146.163 22.0985 144.89 21.7045 143.239 21.7045C141.496 21.7045 140.11 22.0909 139.08 22.8636C138.049 23.6212 137.367 24.5758 137.034 25.7273L128.08 25C128.534 22.8788 129.428 21.0455 130.761 19.5C132.095 17.9394 133.814 16.7424 135.92 15.9091C138.042 15.0606 140.496 14.6364 143.284 14.6364C145.223 14.6364 147.08 14.8636 148.852 15.3182C150.64 15.7727 152.223 16.4773 153.602 17.4318C154.996 18.3864 156.095 19.6136 156.898 21.1136C157.701 22.5985 158.102 24.3788 158.102 26.4545V50H148.92V45.1591H148.648C148.087 46.25 147.337 47.2121 146.398 48.0455C145.458 48.8636 144.33 49.5076 143.011 49.9773C141.693 50.4318 140.17 50.6591 138.443 50.6591ZM141.216 43.9773C142.64 43.9773 143.898 43.697 144.989 43.1364C146.08 42.5606 146.936 41.7879 147.557 40.8182C148.178 39.8485 148.489 38.75 148.489 37.5227V33.8182C148.186 34.0152 147.769 34.197 147.239 34.3636C146.723 34.5152 146.14 34.6591 145.489 34.7955C144.837 34.9167 144.186 35.0303 143.534 35.1364C142.883 35.2273 142.292 35.3106 141.761 35.3864C140.625 35.553 139.633 35.8182 138.784 36.1818C137.936 36.5455 137.277 37.0379 136.807 37.6591C136.337 38.2652 136.102 39.0227 136.102 39.9318C136.102 41.25 136.58 42.2576 137.534 42.9545C138.504 43.6364 139.731 43.9773 141.216 43.9773ZM165.614 50V15.0909H175.295V50H165.614ZM170.477 10.5909C169.038 10.5909 167.803 10.1136 166.773 9.15909C165.758 8.18939 165.25 7.0303 165.25 5.68182C165.25 4.34848 165.758 3.20454 166.773 2.25C167.803 1.2803 169.038 0.795452 170.477 0.795452C171.917 0.795452 173.144 1.2803 174.159 2.25C175.189 3.20454 175.705 4.34848 175.705 5.68182C175.705 7.0303 175.189 8.18939 174.159 9.15909C173.144 10.1136 171.917 10.5909 170.477 10.5909ZM192.733 3.45454V50H183.051V3.45454H192.733ZM1.86364 140.091V92.0909H11.4091V97.9545H11.8409C12.2652 97.0152 12.8788 96.0606 13.6818 95.0909C14.5 94.1061 15.5606 93.2879 16.8636 92.6364C18.1818 91.9697 19.8182 91.6364 21.7727 91.6364C24.3182 91.6364 26.6667 92.303 28.8182 93.6364C30.9697 94.9545 32.6894 96.947 33.9773 99.6136C35.2652 102.265 35.9091 105.591 35.9091 109.591C35.9091 113.485 35.2803 116.773 34.0227 119.455C32.7803 122.121 31.0833 124.144 28.9318 125.523C26.7955 126.886 24.4015 127.568 21.75 127.568C19.8712 127.568 18.2727 127.258 16.9545 126.636C15.6515 126.015 14.5833 125.235 13.75 124.295C12.9167 123.341 12.2803 122.379 11.8409 121.409H11.5455V140.091H1.86364ZM11.3409 109.545C11.3409 111.621 11.6288 113.432 12.2045 114.977C12.7803 116.523 13.6136 117.727 14.7045 118.591C15.7955 119.439 17.1212 119.864 18.6818 119.864C20.2576 119.864 21.5909 119.432 22.6818 118.568C23.7727 117.689 24.5985 116.477 25.1591 114.932C25.7348 113.371 26.0227 111.576 26.0227 109.545C26.0227 107.53 25.7424 105.758 25.1818 104.227C24.6212 102.697 23.7955 101.5 22.7045 100.636C21.6136 99.7727 20.2727 99.3409 18.6818 99.3409C17.1061 99.3409 15.7727 99.7576 14.6818 100.591C13.6061 101.424 12.7803 102.606 12.2045 104.136C11.6288 105.667 11.3409 107.47 11.3409 109.545ZM52.3182 127.659C50.0909 127.659 48.1061 127.273 46.3636 126.5C44.6212 125.712 43.2424 124.553 42.2273 123.023C41.2273 121.477 40.7273 119.553 40.7273 117.25C40.7273 115.311 41.0833 113.682 41.7955 112.364C42.5076 111.045 43.4773 109.985 44.7045 109.182C45.9318 108.379 47.3258 107.773 48.8864 107.364C50.4621 106.955 52.1136 106.667 53.8409 106.5C55.8712 106.288 57.5076 106.091 58.75 105.909C59.9924 105.712 60.8939 105.424 61.4545 105.045C62.0152 104.667 62.2955 104.106 62.2955 103.364V103.227C62.2955 101.788 61.8409 100.674 60.9318 99.8864C60.0379 99.0985 58.7652 98.7045 57.1136 98.7045C55.3712 98.7045 53.9848 99.0909 52.9545 99.8636C51.9242 100.621 51.2424 101.576 50.9091 102.727L41.9545 102C42.4091 99.8788 43.303 98.0455 44.6364 96.5C45.9697 94.9394 47.6894 93.7424 49.7955 92.9091C51.9167 92.0606 54.3712 91.6364 57.1591 91.6364C59.0985 91.6364 60.9545 91.8636 62.7273 92.3182C64.5152 92.7727 66.0985 93.4773 67.4773 94.4318C68.8712 95.3864 69.9697 96.6136 70.7727 98.1136C71.5758 99.5985 71.9773 101.379 71.9773 103.455V127H62.7955V122.159H62.5227C61.9621 123.25 61.2121 124.212 60.2727 125.045C59.3333 125.864 58.2045 126.508 56.8864 126.977C55.5682 127.432 54.0455 127.659 52.3182 127.659ZM55.0909 120.977C56.5152 120.977 57.7727 120.697 58.8636 120.136C59.9545 119.561 60.8106 118.788 61.4318 117.818C62.053 116.848 62.3636 115.75 62.3636 114.523V110.818C62.0606 111.015 61.6439 111.197 61.1136 111.364C60.5985 111.515 60.0152 111.659 59.3636 111.795C58.7121 111.917 58.0606 112.03 57.4091 112.136C56.7576 112.227 56.1667 112.311 55.6364 112.386C54.5 112.553 53.5076 112.818 52.6591 113.182C51.8106 113.545 51.1515 114.038 50.6818 114.659C50.2121 115.265 49.9773 116.023 49.9773 116.932C49.9773 118.25 50.4545 119.258 51.4091 119.955C52.3788 120.636 53.6061 120.977 55.0909 120.977ZM79.4886 127V92.0909H88.875V98.1818H89.2386C89.875 96.0152 90.9432 94.3788 92.4432 93.2727C93.9432 92.1515 95.6705 91.5909 97.625 91.5909C98.1098 91.5909 98.6326 91.6212 99.1932 91.6818C99.7538 91.7424 100.246 91.8258 100.67 91.9318V100.523C100.216 100.386 99.5871 100.265 98.7841 100.159C97.9811 100.053 97.2462 100 96.5795 100C95.1553 100 93.8826 100.311 92.7614 100.932C91.6553 101.538 90.7765 102.386 90.125 103.477C89.4886 104.568 89.1705 105.826 89.1705 107.25V127H79.4886ZM114.631 127.659C112.403 127.659 110.419 127.273 108.676 126.5C106.934 125.712 105.555 124.553 104.54 123.023C103.54 121.477 103.04 119.553 103.04 117.25C103.04 115.311 103.396 113.682 104.108 112.364C104.82 111.045 105.79 109.985 107.017 109.182C108.244 108.379 109.638 107.773 111.199 107.364C112.775 106.955 114.426 106.667 116.153 106.5C118.184 106.288 119.82 106.091 121.062 105.909C122.305 105.712 123.206 105.424 123.767 105.045C124.328 104.667 124.608 104.106 124.608 103.364V103.227C124.608 101.788 124.153 100.674 123.244 99.8864C122.35 99.0985 121.078 98.7045 119.426 98.7045C117.684 98.7045 116.297 99.0909 115.267 99.8636C114.237 100.621 113.555 101.576 113.222 102.727L104.267 102C104.722 99.8788 105.616 98.0455 106.949 96.5C108.282 94.9394 110.002 93.7424 112.108 92.9091C114.229 92.0606 116.684 91.6364 119.472 91.6364C121.411 91.6364 123.267 91.8636 125.04 92.3182C126.828 92.7727 128.411 93.4773 129.79 94.4318C131.184 95.3864 132.282 96.6136 133.085 98.1136C133.888 99.5985 134.29 101.379 134.29 103.455V127H125.108V122.159H124.835C124.275 123.25 123.525 124.212 122.585 125.045C121.646 125.864 120.517 126.508 119.199 126.977C117.881 127.432 116.358 127.659 114.631 127.659ZM117.403 120.977C118.828 120.977 120.085 120.697 121.176 120.136C122.267 119.561 123.123 118.788 123.744 117.818C124.366 116.848 124.676 115.75 124.676 114.523V110.818C124.373 111.015 123.956 111.197 123.426 111.364C122.911 111.515 122.328 111.659 121.676 111.795C121.025 111.917 120.373 112.03 119.722 112.136C119.07 112.227 118.479 112.311 117.949 112.386C116.813 112.553 115.82 112.818 114.972 113.182C114.123 113.545 113.464 114.038 112.994 114.659C112.525 115.265 112.29 116.023 112.29 116.932C112.29 118.25 112.767 119.258 113.722 119.955C114.691 120.636 115.919 120.977 117.403 120.977Z" fill="white"/>
<path d="M175.182 92.0909V99.3636H154.159V92.0909H175.182ZM158.932 83.7273H168.614V116.273C168.614 117.167 168.75 117.864 169.023 118.364C169.295 118.848 169.674 119.189 170.159 119.386C170.659 119.583 171.235 119.682 171.886 119.682C172.341 119.682 172.795 119.644 173.25 119.568C173.705 119.477 174.053 119.409 174.295 119.364L175.818 126.568C175.333 126.72 174.652 126.894 173.773 127.091C172.894 127.303 171.826 127.432 170.568 127.477C168.235 127.568 166.189 127.258 164.432 126.545C162.689 125.833 161.333 124.727 160.364 123.227C159.394 121.727 158.917 119.833 158.932 117.545V83.7273ZM196.886 127.682C193.356 127.682 190.303 126.932 187.727 125.432C185.167 123.917 183.189 121.811 181.795 119.114C180.402 116.402 179.705 113.258 179.705 109.682C179.705 106.076 180.402 102.924 181.795 100.227C183.189 97.5152 185.167 95.4091 187.727 93.9091C190.303 92.3939 193.356 91.6364 196.886 91.6364C200.417 91.6364 203.462 92.3939 206.023 93.9091C208.598 95.4091 210.583 97.5152 211.977 100.227C213.371 102.924 214.068 106.076 214.068 109.682C214.068 113.258 213.371 116.402 211.977 119.114C210.583 121.811 208.598 123.917 206.023 125.432C203.462 126.932 200.417 127.682 196.886 127.682ZM196.932 120.182C198.538 120.182 199.879 119.727 200.955 118.818C202.03 117.894 202.841 116.636 203.386 115.045C203.947 113.455 204.227 111.644 204.227 109.614C204.227 107.583 203.947 105.773 203.386 104.182C202.841 102.591 202.03 101.333 200.955 100.409C199.879 99.4848 198.538 99.0227 196.932 99.0227C195.311 99.0227 193.947 99.4848 192.841 100.409C191.75 101.333 190.924 102.591 190.364 104.182C189.818 105.773 189.545 107.583 189.545 109.614C189.545 111.644 189.818 113.455 190.364 115.045C190.924 116.636 191.75 117.894 192.841 118.818C193.947 119.727 195.311 120.182 196.932 120.182ZM233.227 127.568C230.576 127.568 228.174 126.886 226.023 125.523C223.886 124.144 222.189 122.121 220.932 119.455C219.689 116.773 219.068 113.485 219.068 109.591C219.068 105.591 219.712 102.265 221 99.6136C222.288 96.947 224 94.9545 226.136 93.6364C228.288 92.303 230.644 91.6364 233.205 91.6364C235.159 91.6364 236.788 91.9697 238.091 92.6364C239.409 93.2879 240.47 94.1061 241.273 95.0909C242.091 96.0606 242.712 97.0152 243.136 97.9545H243.432V80.4545H253.091V127H243.545V121.409H243.136C242.682 122.379 242.038 123.341 241.205 124.295C240.386 125.235 239.318 126.015 238 126.636C236.697 127.258 235.106 127.568 233.227 127.568ZM236.295 119.864C237.856 119.864 239.174 119.439 240.25 118.591C241.341 117.727 242.174 116.523 242.75 114.977C243.341 113.432 243.636 111.621 243.636 109.545C243.636 107.47 243.348 105.667 242.773 104.136C242.197 102.606 241.364 101.424 240.273 100.591C239.182 99.7576 237.856 99.3409 236.295 99.3409C234.705 99.3409 233.364 99.7727 232.273 100.636C231.182 101.5 230.356 102.697 229.795 104.227C229.235 105.758 228.955 107.53 228.955 109.545C228.955 111.576 229.235 113.371 229.795 114.932C230.371 116.477 231.197 117.689 232.273 118.568C233.364 119.432 234.705 119.864 236.295 119.864ZM276.824 127.682C273.294 127.682 270.241 126.932 267.665 125.432C265.104 123.917 263.127 121.811 261.733 119.114C260.339 116.402 259.642 113.258 259.642 109.682C259.642 106.076 260.339 102.924 261.733 100.227C263.127 97.5152 265.104 95.4091 267.665 93.9091C270.241 92.3939 273.294 91.6364 276.824 91.6364C280.354 91.6364 283.4 92.3939 285.96 93.9091C288.536 95.4091 290.521 97.5152 291.915 100.227C293.309 102.924 294.006 106.076 294.006 109.682C294.006 113.258 293.309 116.402 291.915 119.114C290.521 121.811 288.536 123.917 285.96 125.432C283.4 126.932 280.354 127.682 276.824 127.682ZM276.869 120.182C278.475 120.182 279.816 119.727 280.892 118.818C281.968 117.894 282.778 116.636 283.324 115.045C283.884 113.455 284.165 111.644 284.165 109.614C284.165 107.583 283.884 105.773 283.324 104.182C282.778 102.591 281.968 101.333 280.892 100.409C279.816 99.4848 278.475 99.0227 276.869 99.0227C275.248 99.0227 273.884 99.4848 272.778 100.409C271.688 101.333 270.862 102.591 270.301 104.182C269.756 105.773 269.483 107.583 269.483 109.614C269.483 111.644 269.756 113.455 270.301 115.045C270.862 116.636 271.688 117.894 272.778 118.818C273.884 119.727 275.248 120.182 276.869 120.182ZM329.347 102.045L320.483 102.591C320.331 101.833 320.006 101.152 319.506 100.545C319.006 99.9242 318.347 99.4318 317.528 99.0682C316.725 98.6894 315.763 98.5 314.642 98.5C313.142 98.5 311.877 98.8182 310.847 99.4545C309.816 100.076 309.301 100.909 309.301 101.955C309.301 102.788 309.634 103.492 310.301 104.068C310.968 104.644 312.112 105.106 313.733 105.455L320.051 106.727C323.445 107.424 325.975 108.545 327.642 110.091C329.309 111.636 330.142 113.667 330.142 116.182C330.142 118.47 329.468 120.477 328.119 122.205C326.786 123.932 324.953 125.28 322.619 126.25C320.301 127.205 317.627 127.682 314.597 127.682C309.975 127.682 306.294 126.72 303.551 124.795C300.824 122.856 299.225 120.22 298.756 116.886L308.278 116.386C308.566 117.795 309.263 118.871 310.369 119.614C311.475 120.341 312.892 120.705 314.619 120.705C316.316 120.705 317.68 120.379 318.71 119.727C319.756 119.061 320.286 118.205 320.301 117.159C320.286 116.28 319.915 115.561 319.188 115C318.46 114.424 317.339 113.985 315.824 113.682L309.778 112.477C306.369 111.795 303.831 110.614 302.165 108.932C300.513 107.25 299.688 105.106 299.688 102.5C299.688 100.258 300.294 98.3258 301.506 96.7045C302.733 95.0833 304.453 93.8333 306.665 92.9545C308.892 92.0758 311.498 91.6364 314.483 91.6364C318.892 91.6364 322.362 92.5682 324.892 94.4318C327.438 96.2955 328.922 98.8333 329.347 102.045Z" fill="#1C77FF"/>
</svg>
