<svg width="607" height="210" viewBox="0 0 607 210" fill="none" xmlns="http://www.w3.org/2000/svg">
<path d="M26.6591 75.0227C21.2727 75.0227 16.6364 73.9318 12.75 71.75C8.88636 69.5455 5.90909 66.4318 3.81818 62.4091C1.72727 58.3636 0.681818 53.5795 0.681818 48.0568C0.681818 42.6705 1.72727 37.9432 3.81818 33.875C5.90909 29.8068 8.85227 26.6364 12.6477 24.3636C16.4659 22.0909 20.9432 20.9545 26.0795 20.9545C29.5341 20.9545 32.75 21.5114 35.7273 22.625C38.7273 23.7159 41.3409 25.3636 43.5682 27.5682C45.8182 29.7727 47.5682 32.5455 48.8182 35.8864C50.0682 39.2045 50.6932 43.0909 50.6932 47.5455V51.5341H6.47727V42.5341H37.0227C37.0227 40.4432 36.5682 38.5909 35.6591 36.9773C34.75 35.3636 33.4886 34.1023 31.875 33.1932C30.2841 32.2614 28.4318 31.7955 26.3182 31.7955C24.1136 31.7955 22.1591 32.3068 20.4545 33.3295C18.7727 34.3295 17.4545 35.6818 16.5 37.3864C15.5455 39.0682 15.0568 40.9432 15.0341 43.0114V51.5682C15.0341 54.1591 15.5114 56.3977 16.4659 58.2841C17.4432 60.1705 18.8182 61.625 20.5909 62.6477C22.3636 63.6705 24.4659 64.1818 26.8977 64.1818C28.5114 64.1818 29.9886 63.9545 31.3295 63.5C32.6705 63.0455 33.8182 62.3636 34.7727 61.4545C35.7273 60.5455 36.4545 59.4318 36.9545 58.1136L50.3864 59C49.7045 62.2273 48.3068 65.0455 46.1932 67.4545C44.1023 69.8409 41.3977 71.7045 38.0795 73.0455C34.7841 74.3636 30.9773 75.0227 26.6591 75.0227ZM92.7955 39.5682V51.0909H60.9545V39.5682H92.7955ZM105.17 74V21.6364H119.011V30.875H119.625C120.716 27.8068 122.534 25.3864 125.08 23.6136C127.625 21.8409 130.67 20.9545 134.216 20.9545C137.807 20.9545 140.864 21.8523 143.386 23.6477C145.909 25.4205 147.591 27.8295 148.432 30.875H148.977C150.045 27.875 151.977 25.4773 154.773 23.6818C157.591 21.8636 160.92 20.9545 164.761 20.9545C169.648 20.9545 173.614 22.5114 176.659 25.625C179.727 28.7159 181.261 33.1023 181.261 38.7841V74H166.773V41.6477C166.773 38.7386 166 36.5568 164.455 35.1023C162.909 33.6477 160.977 32.9205 158.659 32.9205C156.023 32.9205 153.966 33.7614 152.489 35.4432C151.011 37.1023 150.273 39.2955 150.273 42.0227V74H136.193V41.3409C136.193 38.7727 135.455 36.7273 133.977 35.2045C132.523 33.6818 130.602 32.9205 128.216 32.9205C126.602 32.9205 125.148 33.3295 123.852 34.1477C122.58 34.9432 121.568 36.0682 120.818 37.5227C120.068 38.9545 119.693 40.6364 119.693 42.5682V74H105.17ZM207.665 74.9886C204.324 74.9886 201.347 74.4091 198.733 73.25C196.119 72.0682 194.051 70.3295 192.528 68.0341C191.028 65.7159 190.278 62.8295 190.278 59.375C190.278 56.4659 190.813 54.0227 191.881 52.0455C192.949 50.0682 194.403 48.4773 196.244 47.2727C198.085 46.0682 200.176 45.1591 202.517 44.5455C204.881 43.9318 207.358 43.5 209.949 43.25C212.994 42.9318 215.449 42.6364 217.312 42.3636C219.176 42.0682 220.528 41.6364 221.369 41.0682C222.21 40.5 222.631 39.6591 222.631 38.5455V38.3409C222.631 36.1818 221.949 34.5114 220.585 33.3295C219.244 32.1477 217.335 31.5568 214.858 31.5568C212.244 31.5568 210.165 32.1364 208.619 33.2955C207.074 34.4318 206.051 35.8636 205.551 37.5909L192.119 36.5C192.801 33.3182 194.142 30.5682 196.142 28.25C198.142 25.9091 200.722 24.1136 203.881 22.8636C207.063 21.5909 210.744 20.9545 214.926 20.9545C217.835 20.9545 220.619 21.2955 223.278 21.9773C225.96 22.6591 228.335 23.7159 230.403 25.1477C232.494 26.5795 234.142 28.4205 235.347 30.6705C236.551 32.8977 237.153 35.5682 237.153 38.6818V74H223.381V66.7386H222.972C222.131 68.375 221.006 69.8182 219.597 71.0682C218.188 72.2955 216.494 73.2614 214.517 73.9659C212.54 74.6477 210.256 74.9886 207.665 74.9886ZM211.824 64.9659C213.96 64.9659 215.847 64.5455 217.483 63.7045C219.119 62.8409 220.403 61.6818 221.335 60.2273C222.267 58.7727 222.733 57.125 222.733 55.2841V49.7273C222.278 50.0227 221.653 50.2955 220.858 50.5455C220.085 50.7727 219.21 50.9886 218.233 51.1932C217.256 51.375 216.278 51.5455 215.301 51.7045C214.324 51.8409 213.438 51.9659 212.642 52.0795C210.938 52.3295 209.449 52.7273 208.176 53.2727C206.903 53.8182 205.915 54.5568 205.21 55.4886C204.506 56.3977 204.153 57.5341 204.153 58.8977C204.153 60.875 204.869 62.3864 206.301 63.4318C207.756 64.4545 209.597 64.9659 211.824 64.9659ZM248.42 74V21.6364H262.943V74H248.42ZM255.716 14.8864C253.557 14.8864 251.705 14.1705 250.159 12.7386C248.636 11.2841 247.875 9.54545 247.875 7.52272C247.875 5.52272 248.636 3.80682 250.159 2.375C251.705 0.920452 253.557 0.193178 255.716 0.193178C257.875 0.193178 259.716 0.920452 261.239 2.375C262.784 3.80682 263.557 5.52272 263.557 7.52272C263.557 9.54545 262.784 11.2841 261.239 12.7386C259.716 14.1705 257.875 14.8864 255.716 14.8864ZM289.099 4.18182V74H274.577V4.18182H289.099ZM113.889 209.636V137.636H128.207V146.432H128.855C129.491 145.023 130.412 143.591 131.616 142.136C132.844 140.659 134.435 139.432 136.389 138.455C138.366 137.455 140.821 136.955 143.753 136.955C147.571 136.955 151.094 137.955 154.321 139.955C157.548 141.932 160.128 144.92 162.06 148.92C163.991 152.898 164.957 157.886 164.957 163.886C164.957 169.727 164.014 174.659 162.128 178.682C160.264 182.682 157.719 185.716 154.491 187.784C151.287 189.83 147.696 190.852 143.719 190.852C140.901 190.852 138.503 190.386 136.526 189.455C134.571 188.523 132.969 187.352 131.719 185.943C130.469 184.511 129.514 183.068 128.855 181.614H128.412V209.636H113.889ZM128.105 163.818C128.105 166.932 128.537 169.648 129.401 171.966C130.264 174.284 131.514 176.091 133.151 177.386C134.787 178.659 136.776 179.295 139.116 179.295C141.48 179.295 143.48 178.648 145.116 177.352C146.753 176.034 147.991 174.216 148.832 171.898C149.696 169.557 150.128 166.864 150.128 163.818C150.128 160.795 149.707 158.136 148.866 155.841C148.026 153.545 146.787 151.75 145.151 150.455C143.514 149.159 141.503 148.511 139.116 148.511C136.753 148.511 134.753 149.136 133.116 150.386C131.503 151.636 130.264 153.409 129.401 155.705C128.537 158 128.105 160.705 128.105 163.818ZM189.571 190.989C186.23 190.989 183.253 190.409 180.639 189.25C178.026 188.068 175.957 186.33 174.435 184.034C172.935 181.716 172.185 178.83 172.185 175.375C172.185 172.466 172.719 170.023 173.787 168.045C174.855 166.068 176.31 164.477 178.151 163.273C179.991 162.068 182.082 161.159 184.423 160.545C186.787 159.932 189.264 159.5 191.855 159.25C194.901 158.932 197.355 158.636 199.219 158.364C201.082 158.068 202.435 157.636 203.276 157.068C204.116 156.5 204.537 155.659 204.537 154.545V154.341C204.537 152.182 203.855 150.511 202.491 149.33C201.151 148.148 199.241 147.557 196.764 147.557C194.151 147.557 192.071 148.136 190.526 149.295C188.98 150.432 187.957 151.864 187.457 153.591L174.026 152.5C174.707 149.318 176.048 146.568 178.048 144.25C180.048 141.909 182.628 140.114 185.787 138.864C188.969 137.591 192.651 136.955 196.832 136.955C199.741 136.955 202.526 137.295 205.185 137.977C207.866 138.659 210.241 139.716 212.31 141.148C214.401 142.58 216.048 144.42 217.253 146.67C218.457 148.898 219.06 151.568 219.06 154.682V190H205.287V182.739H204.878C204.037 184.375 202.912 185.818 201.503 187.068C200.094 188.295 198.401 189.261 196.423 189.966C194.446 190.648 192.162 190.989 189.571 190.989ZM193.73 180.966C195.866 180.966 197.753 180.545 199.389 179.705C201.026 178.841 202.31 177.682 203.241 176.227C204.173 174.773 204.639 173.125 204.639 171.284V165.727C204.185 166.023 203.56 166.295 202.764 166.545C201.991 166.773 201.116 166.989 200.139 167.193C199.162 167.375 198.185 167.545 197.207 167.705C196.23 167.841 195.344 167.966 194.548 168.08C192.844 168.33 191.355 168.727 190.082 169.273C188.81 169.818 187.821 170.557 187.116 171.489C186.412 172.398 186.06 173.534 186.06 174.898C186.06 176.875 186.776 178.386 188.207 179.432C189.662 180.455 191.503 180.966 193.73 180.966ZM230.327 190V137.636H244.406V146.773H244.952C245.906 143.523 247.509 141.068 249.759 139.409C252.009 137.727 254.599 136.886 257.531 136.886C258.259 136.886 259.043 136.932 259.884 137.023C260.724 137.114 261.463 137.239 262.099 137.398V150.284C261.418 150.08 260.474 149.898 259.27 149.739C258.065 149.58 256.963 149.5 255.963 149.5C253.827 149.5 251.918 149.966 250.236 150.898C248.577 151.807 247.259 153.08 246.281 154.716C245.327 156.352 244.849 158.239 244.849 160.375V190H230.327ZM283.04 190.989C279.699 190.989 276.722 190.409 274.108 189.25C271.494 188.068 269.426 186.33 267.903 184.034C266.403 181.716 265.653 178.83 265.653 175.375C265.653 172.466 266.188 170.023 267.256 168.045C268.324 166.068 269.778 164.477 271.619 163.273C273.46 162.068 275.551 161.159 277.892 160.545C280.256 159.932 282.733 159.5 285.324 159.25C288.369 158.932 290.824 158.636 292.688 158.364C294.551 158.068 295.903 157.636 296.744 157.068C297.585 156.5 298.006 155.659 298.006 154.545V154.341C298.006 152.182 297.324 150.511 295.96 149.33C294.619 148.148 292.71 147.557 290.233 147.557C287.619 147.557 285.54 148.136 283.994 149.295C282.449 150.432 281.426 151.864 280.926 153.591L267.494 152.5C268.176 149.318 269.517 146.568 271.517 144.25C273.517 141.909 276.097 140.114 279.256 138.864C282.438 137.591 286.119 136.955 290.301 136.955C293.21 136.955 295.994 137.295 298.653 137.977C301.335 138.659 303.71 139.716 305.778 141.148C307.869 142.58 309.517 144.42 310.722 146.67C311.926 148.898 312.528 151.568 312.528 154.682V190H298.756V182.739H298.347C297.506 184.375 296.381 185.818 294.972 187.068C293.562 188.295 291.869 189.261 289.892 189.966C287.915 190.648 285.631 190.989 283.04 190.989ZM287.199 180.966C289.335 180.966 291.222 180.545 292.858 179.705C294.494 178.841 295.778 177.682 296.71 176.227C297.642 174.773 298.108 173.125 298.108 171.284V165.727C297.653 166.023 297.028 166.295 296.233 166.545C295.46 166.773 294.585 166.989 293.608 167.193C292.631 167.375 291.653 167.545 290.676 167.705C289.699 167.841 288.812 167.966 288.017 168.08C286.313 168.33 284.824 168.727 283.551 169.273C282.278 169.818 281.29 170.557 280.585 171.489C279.881 172.398 279.528 173.534 279.528 174.898C279.528 176.875 280.244 178.386 281.676 179.432C283.131 180.455 284.972 180.966 287.199 180.966Z" fill="white"/>
<path d="M373.866 137.636V148.545H342.332V137.636H373.866ZM349.491 125.091H364.014V173.909C364.014 175.25 364.219 176.295 364.628 177.045C365.037 177.773 365.605 178.284 366.332 178.58C367.082 178.875 367.946 179.023 368.923 179.023C369.605 179.023 370.287 178.966 370.969 178.852C371.651 178.716 372.173 178.614 372.537 178.545L374.821 189.352C374.094 189.58 373.071 189.841 371.753 190.136C370.435 190.455 368.832 190.648 366.946 190.716C363.446 190.852 360.378 190.386 357.741 189.318C355.128 188.25 353.094 186.591 351.639 184.341C350.185 182.091 349.469 179.25 349.491 175.818V125.091ZM406.423 191.023C401.128 191.023 396.548 189.898 392.685 187.648C388.844 185.375 385.878 182.216 383.787 178.17C381.696 174.102 380.651 169.386 380.651 164.023C380.651 158.614 381.696 153.886 383.787 149.841C385.878 145.773 388.844 142.614 392.685 140.364C396.548 138.091 401.128 136.955 406.423 136.955C411.719 136.955 416.287 138.091 420.128 140.364C423.991 142.614 426.969 145.773 429.06 149.841C431.151 153.886 432.196 158.614 432.196 164.023C432.196 169.386 431.151 174.102 429.06 178.17C426.969 182.216 423.991 185.375 420.128 187.648C416.287 189.898 411.719 191.023 406.423 191.023ZM406.491 179.773C408.901 179.773 410.912 179.091 412.526 177.727C414.139 176.341 415.355 174.455 416.173 172.068C417.014 169.682 417.435 166.966 417.435 163.92C417.435 160.875 417.014 158.159 416.173 155.773C415.355 153.386 414.139 151.5 412.526 150.114C410.912 148.727 408.901 148.034 406.491 148.034C404.06 148.034 402.014 148.727 400.355 150.114C398.719 151.5 397.48 153.386 396.639 155.773C395.821 158.159 395.412 160.875 395.412 163.92C395.412 166.966 395.821 169.682 396.639 172.068C397.48 174.455 398.719 176.341 400.355 177.727C402.014 179.091 404.06 179.773 406.491 179.773ZM460.935 190.852C456.957 190.852 453.355 189.83 450.128 187.784C446.923 185.716 444.378 182.682 442.491 178.682C440.628 174.659 439.696 169.727 439.696 163.886C439.696 157.886 440.662 152.898 442.594 148.92C444.526 144.92 447.094 141.932 450.298 139.955C453.526 137.955 457.06 136.955 460.901 136.955C463.832 136.955 466.276 137.455 468.23 138.455C470.207 139.432 471.798 140.659 473.003 142.136C474.23 143.591 475.162 145.023 475.798 146.432H476.241V120.182H490.73V190H476.412V181.614H475.798C475.116 183.068 474.151 184.511 472.901 185.943C471.673 187.352 470.071 188.523 468.094 189.455C466.139 190.386 463.753 190.852 460.935 190.852ZM465.537 179.295C467.878 179.295 469.855 178.659 471.469 177.386C473.105 176.091 474.355 174.284 475.219 171.966C476.105 169.648 476.548 166.932 476.548 163.818C476.548 160.705 476.116 158 475.253 155.705C474.389 153.409 473.139 151.636 471.503 150.386C469.866 149.136 467.878 148.511 465.537 148.511C463.151 148.511 461.139 149.159 459.503 150.455C457.866 151.75 456.628 153.545 455.787 155.841C454.946 158.136 454.526 160.795 454.526 163.818C454.526 166.864 454.946 169.557 455.787 171.898C456.651 174.216 457.889 176.034 459.503 177.352C461.139 178.648 463.151 179.295 465.537 179.295ZM526.33 191.023C521.034 191.023 516.455 189.898 512.591 187.648C508.75 185.375 505.784 182.216 503.693 178.17C501.602 174.102 500.557 169.386 500.557 164.023C500.557 158.614 501.602 153.886 503.693 149.841C505.784 145.773 508.75 142.614 512.591 140.364C516.455 138.091 521.034 136.955 526.33 136.955C531.625 136.955 536.193 138.091 540.034 140.364C543.898 142.614 546.875 145.773 548.966 149.841C551.057 153.886 552.102 158.614 552.102 164.023C552.102 169.386 551.057 174.102 548.966 178.17C546.875 182.216 543.898 185.375 540.034 187.648C536.193 189.898 531.625 191.023 526.33 191.023ZM526.398 179.773C528.807 179.773 530.818 179.091 532.432 177.727C534.045 176.341 535.261 174.455 536.08 172.068C536.92 169.682 537.341 166.966 537.341 163.92C537.341 160.875 536.92 158.159 536.08 155.773C535.261 153.386 534.045 151.5 532.432 150.114C530.818 148.727 528.807 148.034 526.398 148.034C523.966 148.034 521.92 148.727 520.261 150.114C518.625 151.5 517.386 153.386 516.545 155.773C515.727 158.159 515.318 160.875 515.318 163.92C515.318 166.966 515.727 169.682 516.545 172.068C517.386 174.455 518.625 176.341 520.261 177.727C521.92 179.091 523.966 179.773 526.398 179.773ZM605.114 152.568L591.818 153.386C591.591 152.25 591.102 151.227 590.352 150.318C589.602 149.386 588.614 148.648 587.386 148.102C586.182 147.534 584.739 147.25 583.057 147.25C580.807 147.25 578.909 147.727 577.364 148.682C575.818 149.614 575.045 150.864 575.045 152.432C575.045 153.682 575.545 154.739 576.545 155.602C577.545 156.466 579.261 157.159 581.693 157.682L591.17 159.591C596.261 160.636 600.057 162.318 602.557 164.636C605.057 166.955 606.307 170 606.307 173.773C606.307 177.205 605.295 180.216 603.273 182.807C601.273 185.398 598.523 187.42 595.023 188.875C591.545 190.307 587.534 191.023 582.989 191.023C576.057 191.023 570.534 189.58 566.42 186.693C562.33 183.784 559.932 179.83 559.227 174.83L573.511 174.08C573.943 176.193 574.989 177.807 576.648 178.92C578.307 180.011 580.432 180.557 583.023 180.557C585.568 180.557 587.614 180.068 589.159 179.091C590.727 178.091 591.523 176.807 591.545 175.239C591.523 173.92 590.966 172.841 589.875 172C588.784 171.136 587.102 170.477 584.83 170.023L575.761 168.216C570.648 167.193 566.841 165.42 564.341 162.898C561.864 160.375 560.625 157.159 560.625 153.25C560.625 149.886 561.534 146.989 563.352 144.557C565.193 142.125 567.773 140.25 571.091 138.932C574.432 137.614 578.341 136.955 582.818 136.955C589.432 136.955 594.636 138.352 598.432 141.148C602.25 143.943 604.477 147.75 605.114 152.568Z" fill="#1C77FF"/>
</svg>
