<svg width="242" height="45" viewBox="0 0 242 45" fill="none" xmlns="http://www.w3.org/2000/svg">
<path d="M0.534091 16V5.09091H2.21023V16H0.534091ZM1.38636 3.27273C1.05966 3.27273 0.777936 3.16146 0.541193 2.93892C0.309186 2.71638 0.193182 2.44886 0.193182 2.13636C0.193182 1.82386 0.309186 1.55634 0.541193 1.33381C0.777936 1.11127 1.05966 1 1.38636 1C1.71307 1 1.99242 1.11127 2.22443 1.33381C2.46117 1.55634 2.57955 1.82386 2.57955 2.13636C2.57955 2.44886 2.46117 2.71638 2.22443 2.93892C1.99242 3.16146 1.71307 3.27273 1.38636 3.27273ZM6.95632 9.4375V16H5.28018V5.09091H6.8995V6.79545H7.04155C7.29723 6.24148 7.68549 5.7964 8.20632 5.46023C8.72715 5.11932 9.3995 4.94886 10.2234 4.94886C10.962 4.94886 11.6083 5.10038 12.1623 5.40341C12.7163 5.7017 13.1471 6.15625 13.4549 6.76705C13.7627 7.37311 13.9165 8.14015 13.9165 9.06818V16H12.2404V9.18182C12.2404 8.32481 12.0179 7.6572 11.5728 7.17898C11.1277 6.69602 10.5169 6.45455 9.74041 6.45455C9.20537 6.45455 8.72715 6.57055 8.30575 6.80256C7.88909 7.03456 7.56001 7.37311 7.31854 7.81818C7.07706 8.26326 6.95632 8.80303 6.95632 9.4375ZM21.4112 16.2273C20.3885 16.2273 19.5078 15.9858 18.7692 15.5028C18.0305 15.0199 17.4624 14.3546 17.0646 13.5071C16.6669 12.6596 16.468 11.6913 16.468 10.6023C16.468 9.49432 16.6716 8.51657 17.0788 7.66903C17.4908 6.81676 18.0637 6.15152 18.7976 5.6733C19.5362 5.19034 20.398 4.94886 21.3828 4.94886C22.1499 4.94886 22.8411 5.09091 23.4567 5.375C24.0722 5.65909 24.5765 6.05682 24.9695 6.56818C25.3625 7.07955 25.6063 7.67614 25.701 8.35795H24.0249C23.897 7.8608 23.6129 7.42045 23.1726 7.03693C22.737 6.64867 22.1499 6.45455 21.4112 6.45455C20.7578 6.45455 20.1849 6.625 19.6925 6.96591C19.2048 7.30208 18.8236 7.77794 18.549 8.39347C18.2791 9.00426 18.1442 9.72159 18.1442 10.5455C18.1442 11.3883 18.2768 12.1222 18.5419 12.7472C18.8118 13.3722 19.1906 13.8575 19.6783 14.2031C20.1707 14.5488 20.7483 14.7216 21.4112 14.7216C21.8468 14.7216 22.2422 14.6458 22.5973 14.4943C22.9524 14.3428 23.2531 14.125 23.4993 13.8409C23.7455 13.5568 23.9207 13.2159 24.0249 12.8182H25.701C25.6063 13.4621 25.3719 14.0421 24.9979 14.5582C24.6286 15.0696 24.1385 15.4768 23.5277 15.7798C22.9216 16.0781 22.2161 16.2273 21.4112 16.2273ZM29.8274 1.45455V16H28.1513V1.45455H29.8274ZM39.7724 11.5398V5.09091H41.4485V16H39.7724V14.1534H39.6587C39.4031 14.7074 39.0053 15.1785 38.4656 15.5668C37.9258 15.9503 37.244 16.142 36.4201 16.142C35.7383 16.142 35.1322 15.9929 34.6019 15.6946C34.0716 15.3916 33.6549 14.937 33.3519 14.331C33.0489 13.7202 32.8974 12.9508 32.8974 12.0227V5.09091H34.5735V11.9091C34.5735 12.7045 34.796 13.339 35.2411 13.8125C35.6909 14.286 36.2638 14.5227 36.9599 14.5227C37.3765 14.5227 37.8003 14.4162 38.2312 14.2031C38.6668 13.9901 39.0314 13.6634 39.3249 13.223C39.6232 12.7827 39.7724 12.2216 39.7724 11.5398ZM52.2457 7.53409L50.7401 7.96023C50.6454 7.70928 50.5057 7.46544 50.321 7.22869C50.1411 6.98722 49.8949 6.78835 49.5824 6.6321C49.2699 6.47585 48.8698 6.39773 48.3821 6.39773C47.7145 6.39773 47.1581 6.55161 46.7131 6.85938C46.2727 7.16241 46.0526 7.5483 46.0526 8.01705C46.0526 8.43371 46.2041 8.76278 46.5071 9.00426C46.8101 9.24574 47.2836 9.44697 47.9276 9.60795L49.5469 10.0057C50.5223 10.2424 51.2491 10.6046 51.7273 11.0923C52.2055 11.5753 52.4446 12.1979 52.4446 12.9602C52.4446 13.5852 52.2647 14.1439 51.9048 14.6364C51.5497 15.1288 51.0526 15.517 50.4134 15.8011C49.7741 16.0852 49.0308 16.2273 48.1832 16.2273C47.0705 16.2273 46.1496 15.9858 45.4205 15.5028C44.6913 15.0199 44.2296 14.3144 44.0355 13.3864L45.6264 12.9886C45.7779 13.5758 46.0644 14.0161 46.4858 14.3097C46.9119 14.6032 47.4683 14.75 48.1548 14.75C48.9361 14.75 49.5563 14.5843 50.0156 14.2528C50.4796 13.9167 50.7116 13.5142 50.7116 13.0455C50.7116 12.6667 50.5791 12.3494 50.3139 12.0938C50.0488 11.8333 49.6416 11.6392 49.0923 11.5114L47.2741 11.0852C46.2751 10.8485 45.5412 10.4815 45.0724 9.98438C44.6084 9.48248 44.3764 8.85511 44.3764 8.10227C44.3764 7.48674 44.5492 6.94223 44.8949 6.46875C45.2453 5.99527 45.7211 5.62358 46.3224 5.35369C46.9285 5.08381 47.6151 4.94886 48.3821 4.94886C49.4616 4.94886 50.3092 5.18561 50.9247 5.65909C51.545 6.13258 51.9853 6.75758 52.2457 7.53409ZM58.1779 16.2557C57.4866 16.2557 56.8593 16.1255 56.2958 15.8651C55.7324 15.5999 55.2849 15.2188 54.9535 14.7216C54.622 14.2197 54.4563 13.6136 54.4563 12.9034C54.4563 12.2784 54.5794 11.7718 54.8256 11.3835C55.0719 10.9905 55.4009 10.6828 55.8129 10.4602C56.2248 10.2377 56.6793 10.072 57.1765 9.96307C57.6784 9.84943 58.1826 9.75947 58.6893 9.69318C59.3522 9.60795 59.8896 9.54403 60.3015 9.50142C60.7182 9.45407 61.0212 9.37595 61.2106 9.26705C61.4047 9.15814 61.5018 8.96875 61.5018 8.69886V8.64205C61.5018 7.94129 61.31 7.39678 60.9265 7.00852C60.5477 6.62027 59.9724 6.42614 59.2006 6.42614C58.4004 6.42614 57.7731 6.60133 57.3185 6.9517C56.864 7.30208 56.5444 7.67614 56.3597 8.07386L54.7688 7.50568C55.0529 6.8428 55.4317 6.3267 55.9052 5.95739C56.3834 5.58333 56.9042 5.32292 57.4677 5.17614C58.0359 5.02462 58.5946 4.94886 59.1438 4.94886C59.4942 4.94886 59.8967 4.99148 60.3512 5.0767C60.8105 5.1572 61.2532 5.32528 61.6793 5.58097C62.1102 5.83665 62.4677 6.22254 62.7518 6.73864C63.0359 7.25473 63.1779 7.94602 63.1779 8.8125V16H61.5018V14.5227H61.4165C61.3029 14.7595 61.1135 15.0128 60.8484 15.2827C60.5832 15.5526 60.2305 15.7822 59.7901 15.9716C59.3498 16.161 58.8124 16.2557 58.1779 16.2557ZM58.4336 14.75C59.0965 14.75 59.6552 14.6198 60.1097 14.3594C60.569 14.099 60.9147 13.7628 61.1467 13.3509C61.3834 12.9389 61.5018 12.5057 61.5018 12.0511V10.517C61.4308 10.6023 61.2745 10.6804 61.033 10.7514C60.7963 10.8177 60.5217 10.8769 60.2092 10.929C59.9014 10.9763 59.6007 11.0189 59.3072 11.0568C59.0183 11.09 58.784 11.1184 58.604 11.142C58.1684 11.1989 57.7612 11.2912 57.3825 11.419C57.0084 11.5421 56.7054 11.7292 56.4734 11.9801C56.2461 12.2263 56.1325 12.5625 56.1325 12.9886C56.1325 13.571 56.3479 14.0114 56.7788 14.3097C57.2144 14.6032 57.766 14.75 58.4336 14.75ZM70.669 16.2273C69.6842 16.2273 68.8201 15.9929 68.0767 15.5241C67.3381 15.0554 66.7604 14.3996 66.3438 13.5568C65.9318 12.714 65.7259 11.7292 65.7259 10.6023C65.7259 9.46591 65.9318 8.47396 66.3438 7.62642C66.7604 6.77888 67.3381 6.12074 68.0767 5.65199C68.8201 5.18324 69.6842 4.94886 70.669 4.94886C71.6539 4.94886 72.5156 5.18324 73.2543 5.65199C73.9976 6.12074 74.5753 6.77888 74.9872 7.62642C75.4039 8.47396 75.6122 9.46591 75.6122 10.6023C75.6122 11.7292 75.4039 12.714 74.9872 13.5568C74.5753 14.3996 73.9976 15.0554 73.2543 15.5241C72.5156 15.9929 71.6539 16.2273 70.669 16.2273ZM70.669 14.7216C71.4171 14.7216 72.0327 14.5298 72.5156 14.1463C72.9986 13.7628 73.3561 13.2585 73.5881 12.6335C73.8201 12.0085 73.9361 11.3314 73.9361 10.6023C73.9361 9.87311 73.8201 9.19366 73.5881 8.56392C73.3561 7.93419 72.9986 7.42519 72.5156 7.03693C72.0327 6.64867 71.4171 6.45455 70.669 6.45455C69.9209 6.45455 69.3054 6.64867 68.8224 7.03693C68.3395 7.42519 67.982 7.93419 67.75 8.56392C67.518 9.19366 67.402 9.87311 67.402 10.6023C67.402 11.3314 67.518 12.0085 67.75 12.6335C67.982 13.2585 68.3395 13.7628 68.8224 14.1463C69.3054 14.5298 69.9209 14.7216 70.669 14.7216ZM92.5458 8.2017L89.7759 8.37216C89.7286 8.13542 89.6268 7.92235 89.4705 7.73295C89.3143 7.53883 89.1083 7.38494 88.8526 7.27131C88.6017 7.15294 88.301 7.09375 87.9506 7.09375C87.4819 7.09375 87.0865 7.19318 86.7646 7.39205C86.4426 7.58617 86.2816 7.84659 86.2816 8.1733C86.2816 8.43371 86.3858 8.65388 86.5941 8.83381C86.8024 9.01373 87.1599 9.15814 87.6665 9.26705L89.641 9.66477C90.7016 9.88258 91.4923 10.233 92.0131 10.7159C92.534 11.1989 92.7944 11.8333 92.7944 12.6193C92.7944 13.3343 92.5837 13.9616 92.1623 14.5014C91.7456 15.0412 91.1727 15.4626 90.4435 15.7656C89.7191 16.0639 88.8834 16.2131 87.9364 16.2131C86.4923 16.2131 85.3417 15.9124 84.4847 15.3111C83.6325 14.705 83.1329 13.8812 82.9862 12.8395L85.962 12.6832C86.052 13.1236 86.2698 13.4598 86.6154 13.6918C86.9611 13.919 87.4038 14.0327 87.9435 14.0327C88.4738 14.0327 88.9 13.9309 89.2219 13.7273C89.5487 13.5189 89.7144 13.2514 89.7191 12.9247C89.7144 12.6501 89.5984 12.4252 89.3711 12.25C89.1438 12.0701 88.7934 11.9328 88.32 11.8381L86.4308 11.4616C85.3654 11.2486 84.5723 10.8793 84.0515 10.3537C83.5354 9.82812 83.2773 9.15814 83.2773 8.34375C83.2773 7.64299 83.4667 7.0393 83.8455 6.53267C84.229 6.02604 84.7665 5.63542 85.4577 5.3608C86.1538 5.08617 86.9682 4.94886 87.9009 4.94886C89.2788 4.94886 90.363 5.24006 91.1538 5.82244C91.9492 6.40483 92.4132 7.19792 92.5458 8.2017ZM99.6286 16.2131C98.5253 16.2131 97.5713 15.9787 96.7663 15.5099C95.9661 15.0365 95.3482 14.3783 94.9126 13.5355C94.477 12.688 94.2592 11.7055 94.2592 10.5881C94.2592 9.46117 94.477 8.47633 94.9126 7.63352C95.3482 6.78598 95.9661 6.12784 96.7663 5.65909C97.5713 5.18561 98.5253 4.94886 99.6286 4.94886C100.732 4.94886 101.683 5.18561 102.484 5.65909C103.289 6.12784 103.909 6.78598 104.344 7.63352C104.78 8.47633 104.998 9.46117 104.998 10.5881C104.998 11.7055 104.78 12.688 104.344 13.5355C103.909 14.3783 103.289 15.0365 102.484 15.5099C101.683 15.9787 100.732 16.2131 99.6286 16.2131ZM99.6428 13.8693C100.145 13.8693 100.564 13.7273 100.9 13.4432C101.236 13.1544 101.489 12.7614 101.66 12.2642C101.835 11.767 101.923 11.2012 101.923 10.5668C101.923 9.93229 101.835 9.36648 101.66 8.86932C101.489 8.37216 101.236 7.97917 100.9 7.69034C100.564 7.40151 100.145 7.2571 99.6428 7.2571C99.1361 7.2571 98.71 7.40151 98.3643 7.69034C98.0234 7.97917 97.7654 8.37216 97.5902 8.86932C97.4197 9.36648 97.3345 9.93229 97.3345 10.5668C97.3345 11.2012 97.4197 11.767 97.5902 12.2642C97.7654 12.7614 98.0234 13.1544 98.3643 13.4432C98.71 13.7273 99.1361 13.8693 99.6428 13.8693ZM111.894 16.2131C110.777 16.2131 109.816 15.9763 109.011 15.5028C108.21 15.0246 107.595 14.3617 107.164 13.5142C106.738 12.6667 106.525 11.6913 106.525 10.5881C106.525 9.47064 106.74 8.49053 107.171 7.64773C107.607 6.80019 108.225 6.13968 109.025 5.66619C109.825 5.18797 110.777 4.94886 111.88 4.94886C112.832 4.94886 113.665 5.12169 114.38 5.46733C115.095 5.81297 115.661 6.2983 116.077 6.9233C116.494 7.5483 116.724 8.2822 116.766 9.125H113.911C113.831 8.58049 113.618 8.14252 113.272 7.81108C112.931 7.47491 112.484 7.30682 111.93 7.30682C111.461 7.30682 111.051 7.43466 110.701 7.69034C110.355 7.94129 110.085 8.30824 109.891 8.79119C109.697 9.27415 109.6 9.8589 109.6 10.5455C109.6 11.2415 109.695 11.8333 109.884 12.321C110.078 12.8087 110.351 13.1804 110.701 13.4361C111.051 13.6918 111.461 13.8196 111.93 13.8196C112.275 13.8196 112.585 13.7486 112.86 13.6065C113.139 13.4645 113.369 13.2585 113.549 12.9886C113.734 12.714 113.854 12.3849 113.911 12.0014H116.766C116.719 12.8348 116.492 13.5687 116.085 14.2031C115.682 14.8329 115.126 15.3253 114.415 15.6804C113.705 16.0355 112.865 16.2131 111.894 16.2131ZM118.703 16V5.09091H121.729V16H118.703ZM120.223 3.68466C119.774 3.68466 119.388 3.53551 119.066 3.23722C118.748 2.93419 118.59 2.57197 118.59 2.15057C118.59 1.7339 118.748 1.37642 119.066 1.07812C119.388 0.775094 119.774 0.623579 120.223 0.623579C120.673 0.623579 121.057 0.775094 121.374 1.07812C121.696 1.37642 121.857 1.7339 121.857 2.15057C121.857 2.57197 121.696 2.93419 121.374 3.23722C121.057 3.53551 120.673 3.68466 120.223 3.68466ZM127.263 16.206C126.567 16.206 125.947 16.0852 125.403 15.8438C124.858 15.5975 124.427 15.2353 124.11 14.7571C123.798 14.2741 123.641 13.6728 123.641 12.9531C123.641 12.3471 123.753 11.8381 123.975 11.4261C124.198 11.0142 124.501 10.6828 124.884 10.4318C125.268 10.1809 125.703 9.99148 126.191 9.86364C126.683 9.7358 127.2 9.64583 127.739 9.59375C128.374 9.52746 128.885 9.46591 129.273 9.40909C129.662 9.34754 129.943 9.25758 130.119 9.1392C130.294 9.02083 130.381 8.84564 130.381 8.61364V8.57102C130.381 8.12121 130.239 7.7732 129.955 7.52699C129.676 7.28078 129.278 7.15767 128.762 7.15767C128.218 7.15767 127.784 7.27841 127.462 7.51989C127.14 7.75663 126.927 8.05492 126.823 8.41477L124.025 8.1875C124.167 7.52462 124.446 6.9517 124.863 6.46875C125.28 5.98106 125.817 5.60701 126.475 5.34659C127.138 5.08144 127.905 4.94886 128.776 4.94886C129.382 4.94886 129.962 5.01989 130.516 5.16193C131.075 5.30398 131.57 5.52415 132.001 5.82244C132.436 6.12074 132.78 6.50426 133.031 6.97301C133.281 7.43703 133.407 7.99337 133.407 8.64205V16H130.538V14.4872H130.452C130.277 14.8281 130.043 15.1288 129.749 15.3892C129.456 15.6449 129.103 15.8461 128.691 15.9929C128.279 16.1349 127.803 16.206 127.263 16.206ZM128.13 14.1179C128.575 14.1179 128.968 14.0303 129.309 13.8551C129.65 13.6752 129.917 13.4337 130.112 13.1307C130.306 12.8277 130.403 12.4844 130.403 12.1009V10.9432C130.308 11.0047 130.178 11.0616 130.012 11.1136C129.851 11.161 129.669 11.206 129.465 11.2486C129.262 11.2865 129.058 11.322 128.854 11.3551C128.651 11.3835 128.466 11.4096 128.3 11.4332C127.945 11.4853 127.635 11.5682 127.37 11.6818C127.105 11.7955 126.899 11.9493 126.752 12.1435C126.605 12.3329 126.532 12.5696 126.532 12.8537C126.532 13.2656 126.681 13.5805 126.979 13.7983C127.282 14.0114 127.666 14.1179 128.13 14.1179ZM138.78 1.45455V16H135.754V1.45455H138.78ZM150.365 16.2557C149.674 16.2557 149.047 16.1255 148.483 15.8651C147.92 15.5999 147.472 15.2188 147.141 14.7216C146.81 14.2197 146.644 13.6136 146.644 12.9034C146.644 12.2784 146.767 11.7718 147.013 11.3835C147.259 10.9905 147.588 10.6828 148 10.4602C148.412 10.2377 148.867 10.072 149.364 9.96307C149.866 9.84943 150.37 9.75947 150.877 9.69318C151.54 9.60795 152.077 9.54403 152.489 9.50142C152.906 9.45407 153.209 9.37595 153.398 9.26705C153.592 9.15814 153.689 8.96875 153.689 8.69886V8.64205C153.689 7.94129 153.498 7.39678 153.114 7.00852C152.735 6.62027 152.16 6.42614 151.388 6.42614C150.588 6.42614 149.961 6.60133 149.506 6.9517C149.051 7.30208 148.732 7.67614 148.547 8.07386L146.956 7.50568C147.24 6.8428 147.619 6.3267 148.093 5.95739C148.571 5.58333 149.092 5.32292 149.655 5.17614C150.223 5.02462 150.782 4.94886 151.331 4.94886C151.682 4.94886 152.084 4.99148 152.539 5.0767C152.998 5.1572 153.441 5.32528 153.867 5.58097C154.298 5.83665 154.655 6.22254 154.939 6.73864C155.223 7.25473 155.365 7.94602 155.365 8.8125V16H153.689V14.5227H153.604C153.49 14.7595 153.301 15.0128 153.036 15.2827C152.771 15.5526 152.418 15.7822 151.978 15.9716C151.537 16.161 151 16.2557 150.365 16.2557ZM150.621 14.75C151.284 14.75 151.843 14.6198 152.297 14.3594C152.757 14.099 153.102 13.7628 153.334 13.3509C153.571 12.9389 153.689 12.5057 153.689 12.0511V10.517C153.618 10.6023 153.462 10.6804 153.221 10.7514C152.984 10.8177 152.709 10.8769 152.397 10.929C152.089 10.9763 151.788 11.0189 151.495 11.0568C151.206 11.09 150.971 11.1184 150.792 11.142C150.356 11.1989 149.949 11.2912 149.57 11.419C149.196 11.5421 148.893 11.7292 148.661 11.9801C148.434 12.2263 148.32 12.5625 148.32 12.9886C148.32 13.571 148.535 14.0114 148.966 14.3097C149.402 14.6032 149.953 14.75 150.621 14.75ZM164.05 20.0909V5.09091H165.669V6.82386H165.868C165.991 6.63447 166.161 6.39299 166.379 6.09943C166.602 5.80114 166.919 5.53598 167.331 5.30398C167.748 5.06723 168.311 4.94886 169.021 4.94886C169.94 4.94886 170.75 5.1785 171.45 5.63778C172.151 6.09706 172.698 6.74811 173.091 7.59091C173.484 8.43371 173.68 9.42803 173.68 10.5739C173.68 11.7292 173.484 12.7306 173.091 13.5781C172.698 14.4209 172.153 15.0743 171.457 15.5384C170.761 15.9976 169.959 16.2273 169.05 16.2273C168.349 16.2273 167.788 16.1113 167.366 15.8793C166.945 15.6425 166.621 15.375 166.393 15.0767C166.166 14.7737 165.991 14.5227 165.868 14.3239H165.726V20.0909H164.05ZM165.697 10.5455C165.697 11.3693 165.818 12.0961 166.06 12.7259C166.301 13.3509 166.654 13.8409 167.118 14.196C167.582 14.5464 168.15 14.7216 168.822 14.7216C169.523 14.7216 170.108 14.5369 170.577 14.1676C171.05 13.7936 171.405 13.2917 171.642 12.6619C171.884 12.0275 172.004 11.322 172.004 10.5455C172.004 9.77841 171.886 9.08712 171.649 8.47159C171.417 7.85133 171.064 7.36127 170.591 7.00142C170.122 6.63684 169.533 6.45455 168.822 6.45455C168.141 6.45455 167.568 6.62737 167.104 6.97301C166.64 7.31392 166.289 7.79214 166.053 8.40767C165.816 9.01847 165.697 9.73106 165.697 10.5455ZM179.447 16.2557C178.756 16.2557 178.129 16.1255 177.565 15.8651C177.002 15.5999 176.554 15.2188 176.223 14.7216C175.892 14.2197 175.726 13.6136 175.726 12.9034C175.726 12.2784 175.849 11.7718 176.095 11.3835C176.341 10.9905 176.67 10.6828 177.082 10.4602C177.494 10.2377 177.949 10.072 178.446 9.96307C178.948 9.84943 179.452 9.75947 179.959 9.69318C180.622 9.60795 181.159 9.54403 181.571 9.50142C181.988 9.45407 182.291 9.37595 182.48 9.26705C182.674 9.15814 182.771 8.96875 182.771 8.69886V8.64205C182.771 7.94129 182.58 7.39678 182.196 7.00852C181.817 6.62027 181.242 6.42614 180.47 6.42614C179.67 6.42614 179.043 6.60133 178.588 6.9517C178.134 7.30208 177.814 7.67614 177.629 8.07386L176.038 7.50568C176.322 6.8428 176.701 6.3267 177.175 5.95739C177.653 5.58333 178.174 5.32292 178.737 5.17614C179.305 5.02462 179.864 4.94886 180.413 4.94886C180.764 4.94886 181.166 4.99148 181.621 5.0767C182.08 5.1572 182.523 5.32528 182.949 5.58097C183.38 5.83665 183.737 6.22254 184.021 6.73864C184.305 7.25473 184.447 7.94602 184.447 8.8125V16H182.771V14.5227H182.686C182.572 14.7595 182.383 15.0128 182.118 15.2827C181.853 15.5526 181.5 15.7822 181.06 15.9716C180.619 16.161 180.082 16.2557 179.447 16.2557ZM179.703 14.75C180.366 14.75 180.925 14.6198 181.379 14.3594C181.839 14.099 182.184 13.7628 182.416 13.3509C182.653 12.9389 182.771 12.5057 182.771 12.0511V10.517C182.7 10.6023 182.544 10.6804 182.303 10.7514C182.066 10.8177 181.791 10.8769 181.479 10.929C181.171 10.9763 180.87 11.0189 180.577 11.0568C180.288 11.09 180.054 11.1184 179.874 11.142C179.438 11.1989 179.031 11.2912 178.652 11.419C178.278 11.5421 177.975 11.7292 177.743 11.9801C177.516 12.2263 177.402 12.5625 177.402 12.9886C177.402 13.571 177.617 14.0114 178.048 14.3097C178.484 14.6032 179.036 14.75 179.703 14.75ZM187.507 16V5.09091H189.126V6.73864H189.24C189.439 6.19886 189.798 5.76089 190.319 5.42472C190.84 5.08854 191.427 4.92045 192.081 4.92045C192.204 4.92045 192.358 4.92282 192.542 4.92756C192.727 4.93229 192.867 4.93939 192.961 4.94886V6.65341C192.904 6.6392 192.774 6.6179 192.571 6.58949C192.372 6.55634 192.161 6.53977 191.939 6.53977C191.408 6.53977 190.935 6.65104 190.518 6.87358C190.106 7.09138 189.779 7.39441 189.538 7.78267C189.301 8.16619 189.183 8.60417 189.183 9.09659V16H187.507ZM200.376 5.09091V6.51136H194.723V5.09091H200.376ZM196.37 2.47727H198.047V12.875C198.047 13.3485 198.115 13.7036 198.252 13.9403C198.395 14.1723 198.574 14.3286 198.792 14.4091C199.015 14.4848 199.249 14.5227 199.495 14.5227C199.68 14.5227 199.832 14.5133 199.95 14.4943C200.068 14.4706 200.163 14.4517 200.234 14.4375L200.575 15.9432C200.461 15.9858 200.303 16.0284 200.099 16.071C199.895 16.1184 199.637 16.142 199.325 16.142C198.851 16.142 198.387 16.0402 197.933 15.8366C197.483 15.633 197.109 15.3229 196.811 14.9062C196.517 14.4896 196.37 13.964 196.37 13.3295V2.47727ZM202.897 16V5.09091H204.574V16H202.897ZM203.75 3.27273C203.423 3.27273 203.141 3.16146 202.904 2.93892C202.672 2.71638 202.556 2.44886 202.556 2.13636C202.556 1.82386 202.672 1.55634 202.904 1.33381C203.141 1.11127 203.423 1 203.75 1C204.076 1 204.356 1.11127 204.588 1.33381C204.824 1.55634 204.943 1.82386 204.943 2.13636C204.943 2.44886 204.824 2.71638 204.588 2.93892C204.356 3.16146 204.076 3.27273 203.75 3.27273ZM207.643 16V5.09091H209.263V6.73864H209.376C209.575 6.19886 209.935 5.76089 210.456 5.42472C210.977 5.08854 211.564 4.92045 212.217 4.92045C212.34 4.92045 212.494 4.92282 212.679 4.92756C212.864 4.93229 213.003 4.93939 213.098 4.94886V6.65341C213.041 6.6392 212.911 6.6179 212.707 6.58949C212.509 6.55634 212.298 6.53977 212.075 6.53977C211.545 6.53977 211.071 6.65104 210.655 6.87358C210.243 7.09138 209.916 7.39441 209.675 7.78267C209.438 8.16619 209.32 8.60417 209.32 9.09659V16H207.643ZM224.829 16.2273C223.92 16.2273 223.118 15.9976 222.422 15.5384C221.725 15.0743 221.181 14.4209 220.788 13.5781C220.395 12.7306 220.199 11.7292 220.199 10.5739C220.199 9.42803 220.395 8.43371 220.788 7.59091C221.181 6.74811 221.728 6.09706 222.429 5.63778C223.129 5.1785 223.939 4.94886 224.858 4.94886C225.568 4.94886 226.129 5.06723 226.541 5.30398C226.958 5.53598 227.275 5.80114 227.493 6.09943C227.715 6.39299 227.888 6.63447 228.011 6.82386H228.153V1.45455H229.829V16H228.21V14.3239H228.011C227.888 14.5227 227.713 14.7737 227.485 15.0767C227.258 15.375 226.934 15.6425 226.512 15.8793C226.091 16.1113 225.53 16.2273 224.829 16.2273ZM225.056 14.7216C225.729 14.7216 226.297 14.5464 226.761 14.196C227.225 13.8409 227.578 13.3509 227.819 12.7259C228.061 12.0961 228.181 11.3693 228.181 10.5455C228.181 9.73106 228.063 9.01847 227.826 8.40767C227.59 7.79214 227.239 7.31392 226.775 6.97301C226.311 6.62737 225.738 6.45455 225.056 6.45455C224.346 6.45455 223.754 6.63684 223.281 7.00142C222.812 7.36127 222.459 7.85133 222.223 8.47159C221.991 9.08712 221.875 9.77841 221.875 10.5455C221.875 11.322 221.993 12.0275 222.23 12.6619C222.471 13.2917 222.826 13.7936 223.295 14.1676C223.769 14.5369 224.356 14.7216 225.056 14.7216ZM236.342 16.2557C235.651 16.2557 235.023 16.1255 234.46 15.8651C233.896 15.5999 233.449 15.2188 233.118 14.7216C232.786 14.2197 232.62 13.6136 232.62 12.9034C232.62 12.2784 232.743 11.7718 232.99 11.3835C233.236 10.9905 233.565 10.6828 233.977 10.4602C234.389 10.2377 234.843 10.072 235.341 9.96307C235.842 9.84943 236.347 9.75947 236.853 9.69318C237.516 9.60795 238.054 9.54403 238.466 9.50142C238.882 9.45407 239.185 9.37595 239.375 9.26705C239.569 9.15814 239.666 8.96875 239.666 8.69886V8.64205C239.666 7.94129 239.474 7.39678 239.091 7.00852C238.712 6.62027 238.136 6.42614 237.365 6.42614C236.565 6.42614 235.937 6.60133 235.483 6.9517C235.028 7.30208 234.708 7.67614 234.524 8.07386L232.933 7.50568C233.217 6.8428 233.596 6.3267 234.069 5.95739C234.547 5.58333 235.068 5.32292 235.632 5.17614C236.2 5.02462 236.759 4.94886 237.308 4.94886C237.658 4.94886 238.061 4.99148 238.515 5.0767C238.975 5.1572 239.417 5.32528 239.843 5.58097C240.274 5.83665 240.632 6.22254 240.916 6.73864C241.2 7.25473 241.342 7.94602 241.342 8.8125V16H239.666V14.5227H239.581C239.467 14.7595 239.278 15.0128 239.012 15.2827C238.747 15.5526 238.395 15.7822 237.954 15.9716C237.514 16.161 236.976 16.2557 236.342 16.2557ZM236.598 14.75C237.261 14.75 237.819 14.6198 238.274 14.3594C238.733 14.099 239.079 13.7628 239.311 13.3509C239.547 12.9389 239.666 12.5057 239.666 12.0511V10.517C239.595 10.6023 239.439 10.6804 239.197 10.7514C238.96 10.8177 238.686 10.8769 238.373 10.929C238.065 10.9763 237.765 11.0189 237.471 11.0568C237.182 11.09 236.948 11.1184 236.768 11.142C236.333 11.1989 235.925 11.2912 235.547 11.419C235.172 11.5421 234.869 11.7292 234.637 11.9801C234.41 12.2263 234.297 12.5625 234.297 12.9886C234.297 13.571 234.512 14.0114 234.943 14.3097C235.378 14.6032 235.93 14.75 236.598 14.75ZM0.534091 40V29.0909H2.21023V40H0.534091ZM1.38636 27.2727C1.05966 27.2727 0.777936 27.1615 0.541193 26.9389C0.309186 26.7164 0.193182 26.4489 0.193182 26.1364C0.193182 25.8239 0.309186 25.5563 0.541193 25.3338C0.777936 25.1113 1.05966 25 1.38636 25C1.71307 25 1.99242 25.1113 2.22443 25.3338C2.46117 25.5563 2.57955 25.8239 2.57955 26.1364C2.57955 26.4489 2.46117 26.7164 2.22443 26.9389C1.99242 27.1615 1.71307 27.2727 1.38636 27.2727ZM6.95632 33.4375V40H5.28018V29.0909H6.8995V30.7955H7.04155C7.29723 30.2415 7.68549 29.7964 8.20632 29.4602C8.72715 29.1193 9.3995 28.9489 10.2234 28.9489C10.962 28.9489 11.6083 29.1004 12.1623 29.4034C12.7163 29.7017 13.1471 30.1562 13.4549 30.767C13.7627 31.3731 13.9165 32.1402 13.9165 33.0682V40H12.2404V33.1818C12.2404 32.3248 12.0179 31.6572 11.5728 31.179C11.1277 30.696 10.5169 30.4545 9.74041 30.4545C9.20537 30.4545 8.72715 30.5705 8.30575 30.8026C7.88909 31.0346 7.56001 31.3731 7.31854 31.8182C7.07706 32.2633 6.95632 32.803 6.95632 33.4375ZM21.4112 40.2273C20.3885 40.2273 19.5078 39.9858 18.7692 39.5028C18.0305 39.0199 17.4624 38.3546 17.0646 37.5071C16.6669 36.6596 16.468 35.6913 16.468 34.6023C16.468 33.4943 16.6716 32.5166 17.0788 31.669C17.4908 30.8168 18.0637 30.1515 18.7976 29.6733C19.5362 29.1903 20.398 28.9489 21.3828 28.9489C22.1499 28.9489 22.8411 29.0909 23.4567 29.375C24.0722 29.6591 24.5765 30.0568 24.9695 30.5682C25.3625 31.0795 25.6063 31.6761 25.701 32.358H24.0249C23.897 31.8608 23.6129 31.4205 23.1726 31.0369C22.737 30.6487 22.1499 30.4545 21.4112 30.4545C20.7578 30.4545 20.1849 30.625 19.6925 30.9659C19.2048 31.3021 18.8236 31.7779 18.549 32.3935C18.2791 33.0043 18.1442 33.7216 18.1442 34.5455C18.1442 35.3883 18.2768 36.1222 18.5419 36.7472C18.8118 37.3722 19.1906 37.8575 19.6783 38.2031C20.1707 38.5488 20.7483 38.7216 21.4112 38.7216C21.8468 38.7216 22.2422 38.6458 22.5973 38.4943C22.9524 38.3428 23.2531 38.125 23.4993 37.8409C23.7455 37.5568 23.9207 37.2159 24.0249 36.8182H25.701C25.6063 37.4621 25.3719 38.0421 24.9979 38.5582C24.6286 39.0696 24.1385 39.4768 23.5277 39.7798C22.9216 40.0781 22.2161 40.2273 21.4112 40.2273ZM29.8274 25.4545V40H28.1513V25.4545H29.8274ZM39.7724 35.5398V29.0909H41.4485V40H39.7724V38.1534H39.6587C39.4031 38.7074 39.0053 39.1785 38.4656 39.5668C37.9258 39.9503 37.244 40.142 36.4201 40.142C35.7383 40.142 35.1322 39.9929 34.6019 39.6946C34.0716 39.3916 33.6549 38.937 33.3519 38.331C33.0489 37.7202 32.8974 36.9508 32.8974 36.0227V29.0909H34.5735V35.9091C34.5735 36.7045 34.796 37.339 35.2411 37.8125C35.6909 38.286 36.2638 38.5227 36.9599 38.5227C37.3765 38.5227 37.8003 38.4162 38.2312 38.2031C38.6668 37.9901 39.0314 37.6634 39.3249 37.223C39.6232 36.7827 39.7724 36.2216 39.7724 35.5398ZM52.2457 31.5341L50.7401 31.9602C50.6454 31.7093 50.5057 31.4654 50.321 31.2287C50.1411 30.9872 49.8949 30.7884 49.5824 30.6321C49.2699 30.4759 48.8698 30.3977 48.3821 30.3977C47.7145 30.3977 47.1581 30.5516 46.7131 30.8594C46.2727 31.1624 46.0526 31.5483 46.0526 32.017C46.0526 32.4337 46.2041 32.7628 46.5071 33.0043C46.8101 33.2457 47.2836 33.447 47.9276 33.608L49.5469 34.0057C50.5223 34.2424 51.2491 34.6046 51.7273 35.0923C52.2055 35.5753 52.4446 36.1979 52.4446 36.9602C52.4446 37.5852 52.2647 38.1439 51.9048 38.6364C51.5497 39.1288 51.0526 39.517 50.4134 39.8011C49.7741 40.0852 49.0308 40.2273 48.1832 40.2273C47.0705 40.2273 46.1496 39.9858 45.4205 39.5028C44.6913 39.0199 44.2296 38.3144 44.0355 37.3864L45.6264 36.9886C45.7779 37.5758 46.0644 38.0161 46.4858 38.3097C46.9119 38.6032 47.4683 38.75 48.1548 38.75C48.9361 38.75 49.5563 38.5843 50.0156 38.2528C50.4796 37.9167 50.7116 37.5142 50.7116 37.0455C50.7116 36.6667 50.5791 36.3494 50.3139 36.0938C50.0488 35.8333 49.6416 35.6392 49.0923 35.5114L47.2741 35.0852C46.2751 34.8485 45.5412 34.4815 45.0724 33.9844C44.6084 33.4825 44.3764 32.8551 44.3764 32.1023C44.3764 31.4867 44.5492 30.9422 44.8949 30.4688C45.2453 29.9953 45.7211 29.6236 46.3224 29.3537C46.9285 29.0838 47.6151 28.9489 48.3821 28.9489C49.4616 28.9489 50.3092 29.1856 50.9247 29.6591C51.545 30.1326 51.9853 30.7576 52.2457 31.5341ZM58.1779 40.2557C57.4866 40.2557 56.8593 40.1255 56.2958 39.8651C55.7324 39.5999 55.2849 39.2188 54.9535 38.7216C54.622 38.2197 54.4563 37.6136 54.4563 36.9034C54.4563 36.2784 54.5794 35.7718 54.8256 35.3835C55.0719 34.9905 55.4009 34.6828 55.8129 34.4602C56.2248 34.2377 56.6793 34.072 57.1765 33.9631C57.6784 33.8494 58.1826 33.7595 58.6893 33.6932C59.3522 33.608 59.8896 33.544 60.3015 33.5014C60.7182 33.4541 61.0212 33.3759 61.2106 33.267C61.4047 33.1581 61.5018 32.9687 61.5018 32.6989V32.642C61.5018 31.9413 61.31 31.3968 60.9265 31.0085C60.5477 30.6203 59.9724 30.4261 59.2006 30.4261C58.4004 30.4261 57.7731 30.6013 57.3185 30.9517C56.864 31.3021 56.5444 31.6761 56.3597 32.0739L54.7688 31.5057C55.0529 30.8428 55.4317 30.3267 55.9052 29.9574C56.3834 29.5833 56.9042 29.3229 57.4677 29.1761C58.0359 29.0246 58.5946 28.9489 59.1438 28.9489C59.4942 28.9489 59.8967 28.9915 60.3512 29.0767C60.8105 29.1572 61.2532 29.3253 61.6793 29.581C62.1102 29.8366 62.4677 30.2225 62.7518 30.7386C63.0359 31.2547 63.1779 31.946 63.1779 32.8125V40H61.5018V38.5227H61.4165C61.3029 38.7595 61.1135 39.0128 60.8484 39.2827C60.5832 39.5526 60.2305 39.7822 59.7901 39.9716C59.3498 40.161 58.8124 40.2557 58.1779 40.2557ZM58.4336 38.75C59.0965 38.75 59.6552 38.6198 60.1097 38.3594C60.569 38.099 60.9147 37.7628 61.1467 37.3509C61.3834 36.9389 61.5018 36.5057 61.5018 36.0511V34.517C61.4308 34.6023 61.2745 34.6804 61.033 34.7514C60.7963 34.8177 60.5217 34.8769 60.2092 34.929C59.9014 34.9763 59.6007 35.0189 59.3072 35.0568C59.0183 35.09 58.784 35.1184 58.604 35.142C58.1684 35.1989 57.7612 35.2912 57.3825 35.419C57.0084 35.5421 56.7054 35.7292 56.4734 35.9801C56.2461 36.2263 56.1325 36.5625 56.1325 36.9886C56.1325 37.571 56.3479 38.0114 56.7788 38.3097C57.2144 38.6032 57.766 38.75 58.4336 38.75ZM70.669 40.2273C69.6842 40.2273 68.8201 39.9929 68.0767 39.5241C67.3381 39.0554 66.7604 38.3996 66.3438 37.5568C65.9318 36.714 65.7259 35.7292 65.7259 34.6023C65.7259 33.4659 65.9318 32.474 66.3438 31.6264C66.7604 30.7789 67.3381 30.1207 68.0767 29.652C68.8201 29.1832 69.6842 28.9489 70.669 28.9489C71.6539 28.9489 72.5156 29.1832 73.2543 29.652C73.9976 30.1207 74.5753 30.7789 74.9872 31.6264C75.4039 32.474 75.6122 33.4659 75.6122 34.6023C75.6122 35.7292 75.4039 36.714 74.9872 37.5568C74.5753 38.3996 73.9976 39.0554 73.2543 39.5241C72.5156 39.9929 71.6539 40.2273 70.669 40.2273ZM70.669 38.7216C71.4171 38.7216 72.0327 38.5298 72.5156 38.1463C72.9986 37.7628 73.3561 37.2585 73.5881 36.6335C73.8201 36.0085 73.9361 35.3314 73.9361 34.6023C73.9361 33.8731 73.8201 33.1937 73.5881 32.5639C73.3561 31.9342 72.9986 31.4252 72.5156 31.0369C72.0327 30.6487 71.4171 30.4545 70.669 30.4545C69.9209 30.4545 69.3054 30.6487 68.8224 31.0369C68.3395 31.4252 67.982 31.9342 67.75 32.5639C67.518 33.1937 67.402 33.8731 67.402 34.6023C67.402 35.3314 67.518 36.0085 67.75 36.6335C67.982 37.2585 68.3395 37.7628 68.8224 38.1463C69.3054 38.5298 69.9209 38.7216 70.669 38.7216ZM87.9151 40.2273C87.006 40.2273 86.2035 39.9976 85.5075 39.5384C84.8114 39.0743 84.2669 38.4209 83.8739 37.5781C83.4809 36.7306 83.2844 35.7292 83.2844 34.5739C83.2844 33.428 83.4809 32.4337 83.8739 31.5909C84.2669 30.7481 84.8138 30.0971 85.5146 29.6378C86.2153 29.1785 87.025 28.9489 87.9435 28.9489C88.6538 28.9489 89.2148 29.0672 89.6268 29.304C90.0434 29.536 90.3607 29.8011 90.5785 30.0994C90.801 30.393 90.9738 30.6345 91.0969 30.8239H91.239V25.4545H92.9151V40H91.2958V38.3239H91.0969C90.9738 38.5227 90.7987 38.7737 90.5714 39.0767C90.3441 39.375 90.0198 39.6425 89.5984 39.8793C89.177 40.1113 88.6159 40.2273 87.9151 40.2273ZM88.1424 38.7216C88.8147 38.7216 89.3829 38.5464 89.8469 38.196C90.311 37.8409 90.6637 37.3509 90.9052 36.7259C91.1467 36.0961 91.2674 35.3693 91.2674 34.5455C91.2674 33.7311 91.149 33.0185 90.9123 32.4077C90.6755 31.7921 90.3252 31.3139 89.8612 30.973C89.3971 30.6274 88.8242 30.4545 88.1424 30.4545C87.4322 30.4545 86.8403 30.6368 86.3668 31.0014C85.8981 31.3613 85.5453 31.8513 85.3086 32.4716C85.0766 33.0871 84.9606 33.7784 84.9606 34.5455C84.9606 35.322 85.079 36.0275 85.3157 36.6619C85.5572 37.2917 85.9123 37.7936 86.381 38.1676C86.8545 38.5369 87.4416 38.7216 88.1424 38.7216ZM96.2177 40V29.0909H97.8938V40H96.2177ZM97.07 27.2727C96.7433 27.2727 96.4615 27.1615 96.2248 26.9389C95.9928 26.7164 95.8768 26.4489 95.8768 26.1364C95.8768 25.8239 95.9928 25.5563 96.2248 25.3338C96.4615 25.1113 96.7433 25 97.07 25C97.3967 25 97.676 25.1113 97.908 25.3338C98.1448 25.5563 98.2631 25.8239 98.2631 26.1364C98.2631 26.4489 98.1448 26.7164 97.908 26.9389C97.676 27.1615 97.3967 27.2727 97.07 27.2727ZM105.367 44.3182C104.558 44.3182 103.862 44.214 103.279 44.0057C102.697 43.8021 102.211 43.5322 101.823 43.196C101.44 42.8646 101.134 42.5095 100.907 42.1307L102.242 41.1932C102.394 41.392 102.585 41.6193 102.817 41.875C103.049 42.1354 103.367 42.3603 103.769 42.5497C104.176 42.7438 104.709 42.8409 105.367 42.8409C106.248 42.8409 106.975 42.6278 107.548 42.2017C108.121 41.7756 108.407 41.108 108.407 40.1989V37.983H108.265C108.142 38.1818 107.967 38.428 107.739 38.7216C107.517 39.0104 107.195 39.2685 106.773 39.4957C106.357 39.7183 105.793 39.8295 105.083 39.8295C104.202 39.8295 103.412 39.6212 102.711 39.2045C102.015 38.7879 101.463 38.1818 101.056 37.3864C100.654 36.5909 100.452 35.625 100.452 34.4886C100.452 33.3712 100.649 32.3982 101.042 31.5696C101.435 30.7363 101.982 30.0923 102.683 29.6378C103.383 29.1785 104.193 28.9489 105.112 28.9489C105.822 28.9489 106.385 29.0672 106.802 29.304C107.223 29.536 107.545 29.8011 107.768 30.0994C107.995 30.393 108.17 30.6345 108.293 30.8239H108.464V29.0909H110.083V40.3125C110.083 41.25 109.87 42.0123 109.444 42.5994C109.022 43.1913 108.454 43.6245 107.739 43.8991C107.029 44.1785 106.238 44.3182 105.367 44.3182ZM105.31 38.3239C105.983 38.3239 106.551 38.17 107.015 37.8622C107.479 37.5545 107.832 37.1117 108.073 36.5341C108.315 35.9564 108.435 35.2652 108.435 34.4602C108.435 33.6742 108.317 32.9806 108.08 32.3793C107.844 31.7779 107.493 31.3068 107.029 30.9659C106.565 30.625 105.992 30.4545 105.31 30.4545C104.6 30.4545 104.008 30.6345 103.535 30.9943C103.066 31.3542 102.713 31.8371 102.477 32.4432C102.245 33.0492 102.129 33.7216 102.129 34.4602C102.129 35.2178 102.247 35.8878 102.484 36.4702C102.725 37.0478 103.08 37.5024 103.549 37.8338C104.022 38.1605 104.61 38.3239 105.31 38.3239ZM113.151 40V29.0909H114.827V40H113.151ZM114.004 27.2727C113.677 27.2727 113.395 27.1615 113.158 26.9389C112.926 26.7164 112.81 26.4489 112.81 26.1364C112.81 25.8239 112.926 25.5563 113.158 25.3338C113.395 25.1113 113.677 25 114.004 25C114.33 25 114.61 25.1113 114.842 25.3338C115.078 25.5563 115.197 25.8239 115.197 26.1364C115.197 26.4489 115.078 26.7164 114.842 26.9389C114.61 27.1615 114.33 27.2727 114.004 27.2727ZM122.642 29.0909V30.5114H116.988V29.0909H122.642ZM118.636 26.4773H120.312V36.875C120.312 37.3485 120.381 37.7036 120.518 37.9403C120.66 38.1723 120.84 38.3286 121.058 38.4091C121.28 38.4848 121.515 38.5227 121.761 38.5227C121.946 38.5227 122.097 38.5133 122.216 38.4943C122.334 38.4706 122.429 38.4517 122.5 38.4375L122.841 39.9432C122.727 39.9858 122.568 40.0284 122.365 40.071C122.161 40.1184 121.903 40.142 121.591 40.142C121.117 40.142 120.653 40.0402 120.199 39.8366C119.749 39.633 119.375 39.3229 119.076 38.9062C118.783 38.4896 118.636 37.964 118.636 37.3295V26.4773ZM128.373 40.2557C127.682 40.2557 127.055 40.1255 126.491 39.8651C125.928 39.5999 125.48 39.2188 125.149 38.7216C124.817 38.2197 124.652 37.6136 124.652 36.9034C124.652 36.2784 124.775 35.7718 125.021 35.3835C125.267 34.9905 125.596 34.6828 126.008 34.4602C126.42 34.2377 126.875 34.072 127.372 33.9631C127.874 33.8494 128.378 33.7595 128.885 33.6932C129.547 33.608 130.085 33.544 130.497 33.5014C130.913 33.4541 131.217 33.3759 131.406 33.267C131.6 33.1581 131.697 32.9687 131.697 32.6989V32.642C131.697 31.9413 131.505 31.3968 131.122 31.0085C130.743 30.6203 130.168 30.4261 129.396 30.4261C128.596 30.4261 127.968 30.6013 127.514 30.9517C127.059 31.3021 126.74 31.6761 126.555 32.0739L124.964 31.5057C125.248 30.8428 125.627 30.3267 126.1 29.9574C126.579 29.5833 127.1 29.3229 127.663 29.1761C128.231 29.0246 128.79 28.9489 129.339 28.9489C129.69 28.9489 130.092 28.9915 130.547 29.0767C131.006 29.1572 131.449 29.3253 131.875 29.581C132.306 29.8366 132.663 30.2225 132.947 30.7386C133.231 31.2547 133.373 31.946 133.373 32.8125V40H131.697V38.5227H131.612C131.498 38.7595 131.309 39.0128 131.044 39.2827C130.779 39.5526 130.426 39.7822 129.985 39.9716C129.545 40.161 129.008 40.2557 128.373 40.2557ZM128.629 38.75C129.292 38.75 129.85 38.6198 130.305 38.3594C130.764 38.099 131.11 37.7628 131.342 37.3509C131.579 36.9389 131.697 36.5057 131.697 36.0511V34.517C131.626 34.6023 131.47 34.6804 131.228 34.7514C130.992 34.8177 130.717 34.8769 130.404 34.929C130.097 34.9763 129.796 35.0189 129.502 35.0568C129.214 35.09 128.979 35.1184 128.799 35.142C128.364 35.1989 127.957 35.2912 127.578 35.419C127.204 35.5421 126.901 35.7292 126.669 35.9801C126.441 36.2263 126.328 36.5625 126.328 36.9886C126.328 37.571 126.543 38.0114 126.974 38.3097C127.41 38.6032 127.961 38.75 128.629 38.75ZM138.109 25.4545V40H136.433V25.4545H138.109Z" fill="white"/>
</svg>
