<svg width="56" height="56" viewBox="0 0 56 56" fill="none" xmlns="http://www.w3.org/2000/svg">
<path d="M2.07146 20.2911C1.92322 20.7663 1.77787 21.3256 1.63541 21.9691C1.14705 24.1717 0.940199 26.3716 1.01485 28.569" stroke="#7BACCC" stroke-width="2"/>
<path d="M1.01483 28.569C1.25139 35.5639 4.20361 42.1457 9.30456 46.9415" stroke="#7BA0B8" stroke-width="2"/>
<path d="M9.30457 46.9416C14.1295 51.4503 20.6128 54.08 27.1945 54.3198C28.4257 54.365 29.7433 54.3037 31.1474 54.136C38.4949 53.2592 45.0467 49.6399 49.5625 43.7748C51.7762 40.8994 53.3288 37.6591 54.2203 34.054" stroke="#7A9BB1" stroke-width="2"/>
<path d="M54.2204 34.0539C55.3093 29.5988 55.2707 24.9355 54.0217 20.5253" stroke="#7BA0B8" stroke-width="2"/>
<path d="M54.0217 20.5253C53.9786 20.367 53.932 20.2091 53.8821 20.0514C53.1535 17.7465 52.1465 15.4519 50.8297 13.4215C48.5199 9.8605 45.5784 7.00106 42.0054 4.84314C35.974 1.20017 28.5209 0.0875643 21.641 1.76081C20.4842 2.04231 19.5183 2.32145 18.4341 2.73384C15.4135 3.88351 12.7131 5.49314 10.3328 7.56275C8.36624 9.27226 6.73111 11.0995 5.42742 13.0446C3.99442 15.182 2.87576 17.5975 2.07147 20.2911" stroke="#7CB5D7" stroke-width="2"/>
<path d="M54.0216 20.5253C53.9638 20.5085 53.9097 20.5037 53.8592 20.5111C53.8303 20.5158 53.814 20.5324 53.8103 20.5608C53.7977 20.6459 53.768 20.7085 53.7212 20.7484C53.4741 20.9587 53.235 21.1776 53.0037 21.4053C52.1994 22.1969 51.3107 23.0344 50.6775 23.6991C49.6976 24.7278 49.0334 25.4104 48.6849 25.7469C46.0555 28.2838 43.4447 30.8394 40.8525 33.4137" stroke="#0F649C" stroke-width="2"/>
<path d="M40.8525 33.4137C40.842 33.401 40.8276 33.3942 40.8092 33.3932C40.8029 33.3926 40.8018 33.3897 40.806 33.3845C40.8123 33.3777 40.8144 33.3692 40.8123 33.3593C40.8097 33.3466 40.8023 33.3393 40.7902 33.3372C40.7797 33.3351 40.7703 33.3382 40.7618 33.3466C40.7597 33.3487 40.7582 33.3482 40.7571 33.3451C40.7534 33.3335 40.759 33.3253 40.7737 33.3206C40.7779 33.319 40.7815 33.3161 40.7839 33.3122C40.7863 33.3084 40.7873 33.3039 40.7869 33.2994C40.7864 33.2949 40.7845 33.2907 40.7814 33.2874C40.7783 33.2841 40.7742 33.2819 40.7697 33.2812L40.4677 33.2536C40.4414 33.251 40.4154 33.2518 40.3897 33.256C40.3045 33.2686 40.2291 33.2491 40.1634 33.1976C40.1434 33.1813 40.1205 33.175 40.0948 33.1787C39.9644 33.1966 39.8755 33.1464 39.8282 33.0281C39.8243 33.0185 39.8182 33.01 39.8103 33.0032C39.8025 32.9964 39.7932 32.9915 39.7831 32.989C39.7731 32.9865 39.7626 32.9863 39.7525 32.9886C39.7424 32.9909 39.7329 32.9955 39.7249 33.002L39.6729 33.0454C39.6682 33.0491 39.664 33.0488 39.6603 33.0446C39.6403 33.0226 39.6285 32.9934 39.6248 32.9571C39.6237 32.9436 39.6177 32.931 39.608 32.9216C39.5983 32.9122 39.5855 32.9066 39.572 32.9059C39.5483 32.9048 39.5283 32.8985 39.512 32.8869C39.4752 32.8617 39.4555 32.8488 39.4529 32.8483C39.435 32.8446 39.4166 32.8457 39.3977 32.8514C39.3725 32.8588 39.348 32.8567 39.3244 32.8451C39.2466 32.8062 39.1664 32.7976 39.0839 32.8191C39.0723 32.8223 39.0602 32.8229 39.0483 32.8209C39.0365 32.8188 39.0252 32.8142 39.0153 32.8073L38.8804 32.7135C38.8568 32.6972 38.8321 32.6958 38.8063 32.7095C38.7658 32.7311 38.723 32.7424 38.6778 32.7434C38.6791 32.7441 38.6784 32.744 38.6755 32.7434C38.6726 32.7427 38.6677 32.7413 38.661 32.7394C38.6544 32.7375 38.6461 32.735 38.6368 32.7322C38.6275 32.7294 38.6173 32.7262 38.6068 32.7229C38.5847 32.7161 38.5558 32.7163 38.5201 32.7237C38.4549 32.7368 38.3908 32.7542 38.3277 32.7757C38.3166 32.7794 38.3072 32.7771 38.2993 32.7686L38.2835 32.7537C38.2709 32.7405 38.2557 32.7353 38.2378 32.7379L37.4737 32.8357C37.4686 32.8367 37.4634 32.8361 37.4587 32.8341C37.3557 32.7994 37.259 32.8083 37.1686 32.8609C37.1449 32.8746 37.1194 32.8806 37.0921 32.879L36.8145 32.8609C36.8045 32.8604 36.7972 32.8556 36.7924 32.8467C36.7893 32.8404 36.7864 32.8341 36.7838 32.8278C36.7805 32.8201 36.775 32.8137 36.7679 32.8093C36.7609 32.8049 36.7526 32.8028 36.7443 32.8033C36.6208 32.8107 36.5104 32.7799 36.4132 32.7111C36.4022 32.7033 36.389 32.6992 36.3756 32.6993C36.3621 32.6995 36.3491 32.7039 36.3382 32.7119C36.2972 32.7424 36.2502 32.7584 36.1971 32.76C36.1708 32.761 36.1461 32.7552 36.123 32.7426C36.0651 32.7121 36.0036 32.6919 35.9385 32.6819C35.9185 32.6793 35.9022 32.6698 35.8896 32.6535C35.8538 32.6078 35.8094 32.5778 35.7563 32.5636C35.7374 32.5589 35.7287 32.5468 35.7303 32.5274C35.7355 32.4511 35.7022 32.3938 35.6301 32.3555C35.6275 32.3544 35.6273 32.3528 35.6294 32.3507L35.6491 32.3294C35.6507 32.3278 35.6526 32.3266 35.6548 32.3259C35.657 32.3253 35.6593 32.3251 35.6615 32.3255C35.6638 32.3259 35.6659 32.3268 35.6677 32.3282C35.6695 32.3295 35.671 32.3313 35.6719 32.3334C35.6756 32.3413 35.679 32.3489 35.6822 32.3562C35.6831 32.3579 35.6844 32.3592 35.6859 32.3602C35.6875 32.3612 35.6893 32.3618 35.691 32.3619C35.6928 32.3619 35.6946 32.3615 35.696 32.3607C35.6975 32.3598 35.6987 32.3586 35.6995 32.357C35.7137 32.3313 35.7143 32.3061 35.7011 32.2813C35.6906 32.2614 35.6764 32.2585 35.6585 32.2727C35.6238 32.3011 35.5863 32.3155 35.5458 32.316" stroke="#0F70B0" stroke-width="2"/>
<path d="M35.5458 32.316L48.4208 19.6508C48.4602 19.6124 48.4715 19.5667 48.4547 19.5136C48.3737 19.2602 48.2733 19.0094 48.1534 18.7613C47.0747 16.523 45.6528 14.5364 43.8875 12.8017C43.8737 12.788 43.855 12.7803 43.8355 12.7803C43.816 12.7803 43.7973 12.788 43.7835 12.8017L40.2304 16.2538C40.1925 16.2901 40.1923 16.3266 40.2296 16.3634L40.5127 16.6465" stroke="#88BCDD" stroke-width="2"/>
<path d="M40.5127 16.6465C40.4285 16.8983 40.2724 17.1136 40.0443 17.2923C39.8566 17.439 39.7307 17.5462 39.6666 17.614C39.005 18.3134 38.2803 18.9395 37.7576 19.4426C37.7139 19.4847 37.6261 19.5593 37.4942 19.6666C37.4032 19.7407 37.3212 19.8232 37.2482 19.9141" stroke="#0F70B0" stroke-width="2"/>
<path d="M37.2482 19.9142L28.2039 11.0299C28.1986 11.0247 28.1951 11.0181 28.1936 11.0109C28.1921 11.0036 28.1927 10.9962 28.1954 10.9894C28.1981 10.9826 28.2028 10.9769 28.2088 10.9728C28.2148 10.9688 28.2218 10.9667 28.2291 10.9668C30.8959 10.9629 33.7014 11.5085 35.9456 12.9405C35.9603 12.9501 35.9778 12.9544 35.9953 12.9526C36.0128 12.9509 36.0292 12.9433 36.0418 12.931L39.5373 9.50252C39.5473 9.49282 39.5551 9.48097 39.56 9.46785C39.5648 9.45472 39.5667 9.44066 39.5654 9.42668C39.5641 9.41269 39.5597 9.39915 39.5525 9.38703C39.5453 9.37491 39.5356 9.36453 39.5239 9.35664C37.2009 7.78827 34.3512 6.81839 31.6111 6.3579C29.9441 6.07718 28.2204 6.02751 26.5346 6.14342C25.0521 6.24514 23.6391 6.59366 22.3893 7.41452C21.6504 7.89946 20.8667 8.66511 20.1743 9.34008C18.4753 10.997 16.7795 12.6571 15.0868 14.3204" stroke="#88BCDD" stroke-width="2"/>
<path d="M15.0868 14.3204C15.0679 14.2189 15.0395 14.1225 15.0017 14.031C14.9141 13.8205 14.6626 13.7345 14.5191 13.6013C14.2597 13.3608 13.9671 13.1668 13.7077 12.9302C13.6028 12.8348 13.4719 12.778 13.3844 12.6692C13.3486 12.6245 13.3116 12.5814 13.2732 12.5399C13.2711 12.5373 13.2682 12.536 13.2645 12.536C13.2535 12.5365 13.2419 12.5368 13.2298 12.5368C13.2213 12.5367 13.2128 12.5334 13.2062 12.5273L12.8734 12.2182C12.8482 12.1948 12.8151 12.1816 12.7807 12.1813C12.7463 12.181 12.713 12.1936 12.6873 12.2166C12.5817 12.3128 12.4815 12.4122 12.3869 12.5147C11.2294 13.7732 10.1262 15.004 9.21469 16.4612C8.81728 17.0976 8.38832 17.7473 8.0737 18.397C7.64711 19.2762 7.29385 20.1862 6.954 21.1009C6.84913 21.3832 6.66934 21.7696 6.56289 22.1197C6.49429 22.3436 6.35157 22.4792 6.22777 22.6716C6.22409 22.6774 6.22094 22.6771 6.21831 22.6708C6.21568 22.6635 6.21095 22.6585 6.20412 22.6559C6.19728 22.6537 6.18887 22.6553 6.17888 22.6606C5.7996 22.8498 5.59459 22.5865 5.30205 22.413C5.22845 22.3694 5.1312 22.3347 5.01029 22.3089C4.88413 22.2816 4.76979 22.2419 4.66729 22.1898C4.6022 22.1569 4.54319 22.1257 4.49723 22.0999C4.45126 22.074 4.42025 22.0546 4.40786 22.044C4.32954 21.9772 4.1968 21.8976 4.00966 21.805C3.99757 21.7993 3.986 21.7964 3.97496 21.7964C3.95762 21.7958 3.94132 21.7911 3.92608 21.7822C3.83829 21.7307 3.76259 21.666 3.69898 21.5882C3.54995 21.4068 3.34888 21.3201 3.23848 21.1253C3.23586 21.1206 3.23191 21.1182 3.22666 21.1182C3.22035 21.1182 3.2143 21.1211 3.20852 21.1269C3.20432 21.1306 3.19985 21.1308 3.19512 21.1277C3.05003 21.0347 2.94515 20.9684 2.81741 20.8265C2.7086 20.7058 2.57613 20.6467 2.46652 20.4929C2.40108 20.4023 2.32459 20.3668 2.24022 20.2982C2.23032 20.29 2.21846 20.2845 2.20577 20.2821C2.19308 20.2798 2.17997 20.2807 2.16767 20.2848C2.13193 20.2963 2.09986 20.2984 2.07147 20.2911" stroke="#0F70B0" stroke-width="2"/>
<path d="M37.2482 19.9141L39.0988 21.7246C39.1577 21.7824 39.2168 21.7822 39.2762 21.7238L42.4019 18.6501C42.411 18.641 42.416 18.6287 42.416 18.6158C42.416 18.603 42.411 18.5907 42.4019 18.5815L40.5127 16.6465" stroke="#87B3D2" stroke-width="2"/>
<path d="M35.5458 32.316L31.8555 35.9527C31.8129 35.9942 31.7706 35.9945 31.7286 35.9535L26.309 30.6727C26.2932 30.6576 26.2721 30.6492 26.2501 30.6493C26.2282 30.6495 26.2072 30.6582 26.1916 30.6735L13.1873 43.5178" stroke="#87B3D2" stroke-width="2"/>
<path d="M13.1872 43.5178C13.1841 43.5304 13.1754 43.5393 13.1612 43.5446C13.1497 43.5491 13.1371 43.5502 13.125 43.5478C13.1128 43.5454 13.1016 43.5397 13.0926 43.5312C12.0108 42.5077 10.9852 41.4306 10.0158 40.2998C9.91855 40.1863 9.82866 40.0693 9.74613 39.9489C9.73644 39.935 9.73201 39.918 9.73359 39.901C9.73518 39.884 9.74268 39.868 9.7548 39.8559L14.1177 35.5435" stroke="#87A7BE" stroke-width="2"/>
<path d="M14.1177 35.5434L20.0356 29.7178" stroke="#88BCDD" stroke-width="2"/>
<path d="M20.0356 29.7178L22.5683 27.2088C22.5967 27.1809 22.597 27.1528 22.5691 27.1244L20.0924 24.6437" stroke="#B8DBED" stroke-width="2"/>
<path d="M20.0923 24.6437L19.8897 24.4269C19.8697 24.4053 19.8705 24.3845 19.892 24.3646L20.2161 24.0681" stroke="#87A7BE" stroke-width="2"/>
<path d="M20.2161 24.0681L23.3631 21.0362" stroke="#87B3D2" stroke-width="2"/>
<path d="M23.3631 21.0362L31.6726 29.1004C31.7309 29.1567 31.789 29.1564 31.8468 29.0996L35.6341 25.3565C35.6825 25.3087 35.6825 25.2611 35.6341 25.2138L23.3892 13.248C23.3684 13.2279 23.3407 13.2167 23.3119 13.2167C23.2831 13.2167 23.2553 13.2279 23.2346 13.248C17.4571 18.9111 11.6646 24.557 5.9234 30.2572C5.91289 30.2677 5.90658 30.2787 5.90448 30.2903" stroke="#88BCDD" stroke-width="2"/>
<path d="M5.90449 30.2903C5.88714 30.2814 5.87768 30.2674 5.8761 30.2485C5.80251 29.5331 5.76834 28.8155 5.7736 28.0959" stroke="#87A7BE" stroke-width="2"/>
<path d="M5.77356 28.0959C5.77566 26.4305 5.96307 24.7846 6.33577 23.1581C6.38703 22.9334 6.72294 22.6535 6.86251 22.5092C7.7036 21.6397 8.55336 20.7789 9.4118 19.9268C11.299 18.0532 13.1907 16.1844 15.0868 14.3204" stroke="#87B3D2" stroke-width="2"/>
<path d="M22.9657 41.444C22.8648 41.3914 22.7726 41.3969 22.689 41.4605C22.5371 41.5778 22.3914 41.7026 22.2521 41.8351C20.6136 43.3969 18.9798 44.9763 17.3507 46.5733C17.3236 46.5996 17.2882 46.6156 17.2504 46.6185C17.2127 46.6214 17.1751 46.611 17.1441 46.5891L15.1428 45.1626" stroke="#0E568A" stroke-width="2"/>
<path d="M5.77356 28.0959C5.75096 28.0974 5.74255 28.1153 5.74833 28.1495C5.7478 28.1495 5.74701 28.1495 5.74596 28.1495C5.74439 28.1495 5.7436 28.1484 5.7436 28.1463C5.75621 28.0223 5.75043 27.8987 5.72625 27.7757C5.72047 27.7479 5.70811 27.7447 5.68919 27.7663C5.66658 27.7931 5.66764 27.8191 5.69234 27.8443C5.69313 27.8451 5.69367 27.8461 5.69389 27.8472C5.69411 27.8483 5.694 27.8494 5.69358 27.8504C5.69315 27.8514 5.69243 27.8523 5.69151 27.8529C5.69059 27.8535 5.6895 27.8538 5.6884 27.8538L5.66238 27.8546C5.6587 27.8546 5.6566 27.8527 5.65607 27.8491C5.63189 27.7408 5.56119 27.6829 5.44396 27.6756C5.44006 27.6754 5.43616 27.6759 5.43249 27.6773C5.42882 27.6786 5.42545 27.6806 5.42258 27.6833C5.41972 27.6859 5.41741 27.6891 5.4158 27.6927C5.41419 27.6962 5.41331 27.7001 5.41321 27.704L5.41242 27.7347C5.41189 27.7715 5.39744 27.7778 5.36905 27.7536C5.32384 27.7153 5.28179 27.714 5.24289 27.7497C5.23658 27.755 5.23342 27.7536 5.23342 27.7458C5.23342 27.7384 5.23342 27.7313 5.23342 27.7245C5.2335 27.7211 5.2327 27.7177 5.23111 27.7148C5.22952 27.7118 5.22718 27.7092 5.22433 27.7074C5.22148 27.7056 5.2182 27.7045 5.21482 27.7044C5.21145 27.7042 5.20808 27.7048 5.20504 27.7063C5.16876 27.7242 5.14563 27.7518 5.13565 27.7891C5.13218 27.8019 5.12535 27.8135 5.11565 27.8231C5.10594 27.8327 5.09358 27.84 5.07942 27.8447C5.06525 27.8493 5.04962 27.8511 5.0336 27.85C5.01758 27.8488 5.00155 27.8447 4.98662 27.838C4.97926 27.8349 4.97085 27.8338 4.96138 27.8349C4.95636 27.8354 4.95164 27.8376 4.94788 27.8409C4.94411 27.8443 4.94148 27.8488 4.94036 27.8537C4.93923 27.8586 4.93967 27.8638 4.9416 27.8685C4.94353 27.8731 4.94686 27.8771 4.95113 27.8798L5.01027 27.92C5.01816 27.9248 5.02473 27.9237 5.02998 27.9169C5.03577 27.91 5.04365 27.9098 5.05364 27.9161C5.07362 27.9276 5.07256 27.9366 5.05049 27.9429C4.99056 27.9581 4.94062 27.9897 4.90067 28.0375C4.88647 28.0549 4.86939 28.058 4.84941 28.047C4.77135 28.002 4.73113 28.0462 4.66175 28.0296C4.64072 28.0244 4.62258 28.0136 4.60734 27.9973C4.59907 27.9883 4.58844 27.9818 4.57661 27.9784C4.56478 27.9751 4.55222 27.9751 4.54031 27.9784C4.48722 27.9931 4.43465 27.9983 4.38261 27.9941C4.36421 27.992 4.34739 27.9962 4.33214 28.0068C4.31795 28.0157 4.30271 28.0217 4.28641 28.0249C4.27595 28.0273 4.26503 28.0272 4.25459 28.0244C4.24415 28.0217 4.2345 28.0164 4.22648 28.0091C4.20177 27.9865 4.17891 27.9849 4.15788 28.0044C4.13843 28.0223 4.11609 28.0291 4.09085 28.0249C3.99413 28.0102 3.9024 28.0241 3.81566 28.0667C3.78727 28.0804 3.75757 28.088 3.72656 28.0896C3.41851 28.1085 3.11282 28.1187 2.80951 28.1203C2.70069 28.1211 2.57532 28.0888 2.45546 28.0943C2.32693 28.1006 2.21496 28.0556 2.08328 28.0754C2.06015 28.079 2.03912 28.074 2.0202 28.0604C1.89876 27.9736 1.81912 28.084 1.71504 28.0533C1.67036 28.0401 1.5731 27.9889 1.42329 27.8995C1.42013 27.8974 1.41672 27.8969 1.41304 27.8979C1.40515 27.9011 1.39937 27.9053 1.39569 27.9106C1.39043 27.9174 1.38386 27.919 1.37597 27.9153C1.35915 27.9069 1.35022 27.8961 1.34917 27.883C1.34894 27.8788 1.34769 27.8743 1.34561 27.8703C1.34352 27.8663 1.34072 27.8629 1.33765 27.8608C1.33458 27.8586 1.3314 27.8577 1.32864 27.8583C1.32587 27.8589 1.32366 27.8609 1.32235 27.864C1.3192 27.8703 1.31578 27.8769 1.3121 27.8838C1.29686 27.9085 1.28635 27.9245 1.28056 27.9318C1.25796 27.9608 1.24271 27.9931 1.23483 28.0288C1.23167 28.043 1.22458 28.0546 1.21354 28.0635C1.20145 28.0725 1.19015 28.0798 1.17963 28.0856C1.15703 28.0961 1.15072 28.0901 1.16071 28.0675C1.16439 28.058 1.16859 28.0488 1.17332 28.0399C1.17428 28.0379 1.17471 28.0357 1.17458 28.0336C1.17444 28.0314 1.17374 28.0293 1.17255 28.0275C1.17136 28.0256 1.16971 28.0241 1.16778 28.0231C1.16584 28.0221 1.16368 28.0217 1.1615 28.0217C1.15361 28.0217 1.14573 28.0217 1.13784 28.0217C1.13469 28.0217 1.13311 28.0202 1.13311 28.017V27.9642C1.13311 27.9179 1.11997 27.9137 1.09368 27.9516C1.06687 27.9905 1.06898 28.0273 1.09999 28.062C1.10054 28.0627 1.1009 28.0636 1.10103 28.0645C1.10116 28.0654 1.10107 28.0663 1.10076 28.0671C1.10044 28.068 1.09992 28.0688 1.09924 28.0694C1.09855 28.07 1.09773 28.0704 1.09684 28.0706C1.08895 28.0717 1.08159 28.0717 1.07476 28.0706C1.04217 28.0638 1.03086 28.0677 1.04085 28.0825C1.0808 28.1429 1.07949 28.2134 1.03691 28.2938C1.03173 28.3034 1.02883 28.3141 1.02842 28.3251C1.02801 28.3362 1.03011 28.3473 1.03454 28.3577C1.07502 28.4554 1.06845 28.5259 1.01483 28.569" stroke="#0E5B91" stroke-width="2"/>
<path d="M54.2203 34.0539C54.2104 34.0219 54.1933 34.0019 54.1691 33.994C54.1433 33.9851 54.1312 33.9945 54.1328 34.0224C54.1339 34.0445 54.1297 34.0658 54.1202 34.0863C54.1128 34.101 54.1034 34.1026 54.0918 34.091L54.0737 34.0729C54.0474 34.0466 54.0377 34.0531 54.0445 34.0926C54.0477 34.111 54.0414 34.127 54.0256 34.1407C54.0234 34.1425 54.0209 34.1439 54.0181 34.1447C54.0154 34.1454 54.0125 34.1455 54.0097 34.145C54.0069 34.1444 54.0042 34.1433 54.0019 34.1416C53.9996 34.1399 53.9977 34.1377 53.9964 34.1352C53.9927 34.1278 53.9888 34.1202 53.9846 34.1123C53.9735 34.0923 53.9672 34.0892 53.9657 34.1028C53.9651 34.106 53.9649 34.1091 53.9649 34.1123C53.9649 34.1249 53.9565 34.1338 53.9396 34.1391C53.926 34.1438 53.9136 34.1433 53.9026 34.1375C53.8884 34.1296 53.876 34.1315 53.8655 34.143C53.7998 34.2151 53.7204 34.2642 53.6274 34.2905C53.6137 34.2942 53.6019 34.2908 53.5919 34.2802C53.5835 34.2713 53.5738 34.2639 53.5627 34.2582C53.5512 34.2519 53.5356 34.2495 53.5162 34.2511C53.4184 34.26 53.3204 34.266 53.2221 34.2692C53.2021 34.2697 53.1832 34.2653 53.1653 34.2558C53.1332 34.2385 53.1049 34.2471 53.0801 34.2818C53.0633 34.3055 53.0405 34.3197 53.0115 34.3244L52.0259 34.4979C52.018 34.4995 52.0138 34.5042 52.0133 34.5121C52.0133 34.5205 52.0133 34.5286 52.0133 34.5365C52.0133 34.5402 52.0117 34.5426 52.0085 34.5436C51.7683 34.6035 51.527 34.6574 51.2847 34.7053C51.2615 34.7268 51.2408 34.73 51.2224 34.7147C51.2035 34.6989 51.1845 34.6992 51.1656 34.7155C51.1286 34.7478 51.0954 34.7723 51.0426 34.7723C50.8039 34.7728 50.5653 34.7728 50.3266 34.7723C50.1981 34.7723 50.0782 34.8291 49.9387 34.833C49.9129 34.834 49.8885 34.8401 49.8653 34.8511C49.7571 34.9032 49.6438 34.9389 49.5255 34.9584C49.5018 34.9626 49.4805 34.972 49.4616 34.9868C49.4211 35.0199 49.3851 35.042 49.3536 35.053C49.1254 35.1308 48.8918 35.1663 48.6526 35.1594C48.6463 35.1589 48.6331 35.1544 48.6132 35.146C48.6074 35.1439 48.6016 35.141 48.5958 35.1374C48.5785 35.1263 48.5614 35.1269 48.5446 35.1389C48.5025 35.1679 48.4497 35.2167 48.3861 35.2856C48.365 35.3093 48.3419 35.3148 48.3167 35.3022C48.2946 35.2911 48.2733 35.2927 48.2528 35.3069C48.1682 35.3658 48.1109 35.3978 48.0809 35.4031C47.981 35.4194 47.9269 35.3844 47.9185 35.2982C47.9182 35.2946 47.9167 35.2911 47.9142 35.2884C47.9117 35.2858 47.9084 35.2839 47.9048 35.2833C47.9012 35.2827 47.8975 35.2833 47.8943 35.285C47.8911 35.2867 47.8885 35.2894 47.8869 35.2927C47.8417 35.3889 47.7671 35.4346 47.663 35.4299C47.6551 35.4294 47.6483 35.432 47.6425 35.4378L47.6267 35.4528C47.6225 35.457 47.6233 35.4607 47.6291 35.4638C47.6354 35.467 47.642 35.4701 47.6488 35.4733C47.6501 35.474 47.6512 35.4749 47.6521 35.4761C47.653 35.4773 47.6535 35.4787 47.6537 35.4802C47.654 35.4816 47.6539 35.4831 47.6534 35.4845C47.653 35.4859 47.6522 35.4872 47.6512 35.4883C47.6396 35.4998 47.6262 35.5046 47.611 35.5025C47.5973 35.5009 47.5862 35.5056 47.5778 35.5166C47.519 35.5934 47.4517 35.6362 47.376 35.6452" stroke="#0E4A75" stroke-width="2"/>
<path d="M47.376 35.6452C47.9937 35.0343 48.6137 34.4287 49.2361 33.8284C49.3229 33.7443 49.3754 33.6597 49.3938 33.5745C49.904 31.2066 50.2336 28.8016 50.053 26.354C50.0527 26.3487 50.0509 26.3436 50.0478 26.3393C50.0446 26.335 50.0403 26.3317 50.0353 26.3297C50.0303 26.3277 50.0248 26.3272 50.0194 26.3282C50.014 26.3291 50.009 26.3315 50.0049 26.3351C44.0106 31.977 38.1944 37.8105 32.2695 43.5257C32.249 43.5451 32.2285 43.5451 32.208 43.5257L31.298 42.648" stroke="#87A7BE" stroke-width="2"/>
<path d="M31.298 42.648C31.4705 42.5471 31.6284 42.4267 31.7719 42.2869C33.1282 40.969 34.4829 39.649 35.836 38.3269C37.0025 37.1872 38.1705 36.0489 39.3402 34.9118C39.849 34.4172 40.3532 33.9178 40.8526 33.4136" stroke="#0E5B91" stroke-width="2"/>
<path d="M20.0356 29.7179L18.1218 27.8396" stroke="#4198CB" stroke-width="2"/>
<path d="M20.0923 24.6437L17.4839 27.1496C17.4806 27.1527 17.478 27.1564 17.4761 27.1605C17.4743 27.1647 17.4733 27.1691 17.4733 27.1737C17.4732 27.1782 17.474 27.1828 17.4757 27.187C17.4774 27.1913 17.4799 27.1952 17.4831 27.1985L18.1218 27.8396" stroke="#4083AC" stroke-width="2"/>
<path d="M18.1218 27.8396C18.1066 27.8948 18.0798 27.909 18.0414 27.8822C18.0307 27.8749 18.0179 27.8714 18.0051 27.8724C17.9923 27.8734 17.9804 27.8788 17.9712 27.8877L12.2473 33.4231C12.2327 33.4373 12.221 33.4542 12.213 33.4729C12.2049 33.4917 12.2007 33.5118 12.2004 33.5321C12.2002 33.5524 12.204 33.5725 12.2117 33.5913C12.2193 33.6101 12.2306 33.6272 12.245 33.6415L14.1177 35.5435" stroke="#0F649C" stroke-width="2"/>
<path d="M13.1873 43.5178C13.2288 43.5761 13.269 43.6232 13.3079 43.6589C13.8951 44.1888 14.5067 44.69 15.1428 45.1626" stroke="#0E5B91" stroke-width="2"/>
<path d="M15.1428 45.1626C15.0771 45.1589 15.0117 45.139 14.9465 45.1027C14.9423 45.1001 14.9412 45.0964 14.9433 45.0916C14.9465 45.0853 14.9496 45.0793 14.9528 45.0735C14.957 45.0646 14.9546 45.058 14.9457 45.0538C14.8915 45.0286 14.8545 45.0359 14.8345 45.0759C14.8282 45.088 14.8203 45.0893 14.8108 45.0798C14.7967 45.0667 14.7783 45.0559 14.7557 45.0475C14.7346 45.0396 14.7194 45.0456 14.7099 45.0656C14.6973 45.0908 14.6768 45.1066 14.6484 45.1129C14.5743 45.1287 14.5041 45.1206 14.4379 45.0885C14.4132 45.0764 14.389 45.0777 14.3653 45.0924C14.3264 45.1166 14.2983 45.1531 14.281 45.202C14.2757 45.2162 14.2657 45.2223 14.251 45.2202C14.2294 45.2175 14.2087 45.2191 14.1887 45.2249C14.181 45.2271 14.1738 45.231 14.1677 45.2363C14.1616 45.2415 14.1567 45.248 14.1534 45.2553C14.1501 45.2626 14.1484 45.2705 14.1485 45.2785C14.1486 45.2864 14.1505 45.2943 14.154 45.3014C14.1798 45.3561 14.1685 45.3981 14.1201 45.4276C14.1059 45.4365 14.0991 45.4325 14.0996 45.4157C14.1059 45.3059 14.0307 45.2149 13.8741 45.1429C13.8615 45.1372 13.8499 45.1329 13.8394 45.1303C13.7905 45.1171 13.7555 45.1363 13.7345 45.1878C13.7272 45.2052 13.7148 45.2181 13.6975 45.2265L13.4782 45.3274C13.4556 45.3379 13.4328 45.3384 13.4096 45.329L13.3111 45.288C13.2837 45.2764 13.2561 45.2756 13.2283 45.2856C13.1016 45.3308 12.971 45.3395 12.8364 45.3116C12.8206 45.3085 12.8072 45.3014 12.7962 45.2903C12.7825 45.2777 12.7691 45.2769 12.756 45.288C12.7439 45.299 12.7299 45.3069 12.7142 45.3116C12.6863 45.3195 12.6595 45.3214 12.6337 45.3172C12.6164 45.314 12.6077 45.3214 12.6077 45.3392C12.6077 45.3466 12.6077 45.3542 12.6077 45.3621C12.6093 45.3889 12.5972 45.3984 12.5714 45.3905C12.5567 45.3863 12.5438 45.385 12.5328 45.3865C12.5176 45.3886 12.5047 45.3839 12.4942 45.3724C12.4705 45.345 12.4413 45.3429 12.4066 45.366C12.4024 45.3687 12.3998 45.3718 12.3988 45.3755C12.3982 45.3797 12.3988 45.3839 12.4003 45.3881C12.4035 45.3944 12.4035 45.3979 12.4003 45.3984L12.2056 45.4315C12.184 45.4352 12.1719 45.426 12.1693 45.4039C12.1656 45.366 12.1764 45.3345 12.2016 45.3093C12.2037 45.3066 12.2074 45.2935 12.2127 45.2698C12.2158 45.2551 12.2121 45.2417 12.2016 45.2296C12.1981 45.2258 12.1957 45.2209 12.1949 45.2157C12.1941 45.2105 12.1948 45.2052 12.197 45.2004C12.1992 45.1956 12.2027 45.1915 12.2072 45.1887C12.2117 45.1859 12.2169 45.1845 12.2221 45.1847L12.3988 45.1886C12.4445 45.1897 12.4553 45.1708 12.4311 45.1319C12.379 45.0472 12.3081 45.0212 12.2182 45.0538C12.2129 45.0559 12.2077 45.0556 12.2024 45.053C12.1914 45.0477 12.1893 45.0385 12.1961 45.0254C12.1987 45.0203 12.1994 45.0144 12.1983 45.0088C12.1972 45.0032 12.1942 44.9981 12.1899 44.9943C12.1856 44.9905 12.1802 44.9883 12.1744 44.9879C12.1687 44.9875 12.163 44.9891 12.1583 44.9923C12.1052 45.0307 12.0555 45.0283 12.0092 44.9852C12.0032 44.9796 11.9959 44.9756 11.9879 44.9735C11.98 44.9714 11.9716 44.9713 11.9636 44.9732C11.9556 44.9751 11.9482 44.9788 11.942 44.9842C11.9358 44.9896 11.931 44.9965 11.928 45.0041C11.9101 45.0514 11.903 45.0987 11.9067 45.146C11.9083 45.1697 11.9072 45.1934 11.9036 45.217C11.8941 45.278 11.871 45.3308 11.8342 45.3755C11.8195 45.3934 11.8158 45.4131 11.8231 45.4346C11.8426 45.493 11.8471 45.5532 11.8365 45.6152C11.8359 45.6194 11.8342 45.6233 11.8317 45.6267C11.8291 45.63 11.8258 45.6327 11.8219 45.6344C11.8181 45.6361 11.8139 45.6369 11.8097 45.6365C11.8055 45.6362 11.8014 45.6349 11.7979 45.6326L11.7553 45.6065C11.7317 45.5918 11.7198 45.5708 11.7198 45.5435V45.4875C11.7198 45.4764 11.7143 45.4714 11.7033 45.4725C11.6234 45.4804 11.5797 45.447 11.5724 45.3724C11.5708 45.3597 11.5637 45.3519 11.5511 45.3487C11.5311 45.344 11.5203 45.3337 11.5188 45.3179C11.5177 45.3027 11.5106 45.2917 11.4975 45.2848C11.4791 45.2748 11.4617 45.279 11.4454 45.2974C11.4323 45.3122 11.4205 45.3111 11.41 45.2943C11.3931 45.2664 11.3687 45.2541 11.3366 45.2572C11.3025 45.2609 11.2814 45.2459 11.2735 45.2123L11.2183 44.9742C11.212 44.9473 11.2007 44.9452 11.1844 44.9678C11.1518 45.0125 11.1058 45.0194 11.0464 44.9883C11.0223 44.9757 10.9973 44.9744 10.9715 44.9844L10.9179 45.0057C10.9016 45.012 10.8848 45.0149 10.8675 45.0144C10.8075 45.0123 10.7547 44.9965 10.709 44.9671C10.6978 44.9597 10.6843 44.957 10.6713 44.9595C10.6583 44.962 10.6469 44.9695 10.6396 44.9805C10.5654 45.0914 10.5681 45.1952 10.6475 45.2919C10.6483 45.2931 10.6495 45.294 10.6508 45.2946C10.6521 45.2953 10.6535 45.2956 10.6549 45.2956C10.6564 45.2956 10.6578 45.2953 10.6591 45.2946C10.6604 45.294 10.6616 45.2931 10.6624 45.2919C10.6672 45.2867 10.6735 45.2822 10.6814 45.2785C10.6935 45.2733 10.7055 45.2735 10.7176 45.2793L10.8477 45.34C10.8552 45.3435 10.8617 45.3489 10.8664 45.3556C10.8712 45.3623 10.8741 45.3702 10.8749 45.3784C10.8757 45.3866 10.8744 45.3949 10.871 45.4024C10.8676 45.4099 10.8623 45.4164 10.8556 45.4212C10.8031 45.4601 10.7473 45.467 10.6885 45.4417C10.6747 45.4359 10.6594 45.4348 10.645 45.4385C10.6306 45.4422 10.6179 45.4505 10.6088 45.4622C10.5715 45.5117 10.5541 45.569 10.5568 45.6341C10.557 45.6438 10.5548 45.6533 10.5502 45.6619C10.5457 45.6705 10.539 45.6778 10.5308 45.683C10.5024 45.7009 10.4787 45.6985 10.4598 45.6759C10.4445 45.6586 10.4251 45.651 10.4014 45.6531C10.1026 45.6799 9.8408 45.7177 9.51829 45.7059C9.18501 45.6933 8.85488 45.7235 8.52791 45.7966C8.50688 45.8013 8.48033 45.7918 8.44827 45.7682C8.43822 45.7613 8.42646 45.7573 8.41423 45.7566C8.40201 45.7559 8.38978 45.7586 8.37888 45.7643C8.3363 45.7869 8.30186 45.7774 8.27558 45.7359C8.27243 45.7311 8.26822 45.7301 8.26296 45.7327C8.25613 45.7359 8.24929 45.739 8.24246 45.7422C8.22879 45.749 8.22669 45.7585 8.23615 45.7706C8.30502 45.8578 8.38282 45.9367 8.46956 46.0071C8.48112 46.0166 8.48901 46.0347 8.49321 46.0615C8.49689 46.0878 8.51214 46.1031 8.53895 46.1073C8.55945 46.1104 8.56891 46.1249 8.56733 46.1506C8.56576 46.1764 8.57785 46.1877 8.6036 46.1845C8.61517 46.1835 8.62463 46.1861 8.63199 46.1924C8.63882 46.1987 8.64014 46.2061 8.63593 46.2145C8.63278 46.2213 8.62936 46.2284 8.62568 46.2358C8.6248 46.2376 8.62432 46.2395 8.62429 46.2415C8.62427 46.2435 8.62468 46.2455 8.62551 46.2473C8.62634 46.2491 8.62757 46.2507 8.6291 46.252C8.63063 46.2533 8.63242 46.2542 8.63436 46.2547L8.74633 46.2823C8.7663 46.287 8.7826 46.2976 8.79522 46.3138C8.84936 46.379 8.90272 46.4437 8.95528 46.5078C8.97579 46.5331 9.03204 46.5864 9.12403 46.6679C9.20551 46.7399 9.2657 46.8311 9.3046 46.9415" stroke="#0E4A75" stroke-width="2"/>
<path d="M20.2161 24.0681C20.1699 24.0423 20.1331 24.0394 20.1057 24.0594C20.1 24.0631 20.0939 24.0634 20.0876 24.0602C20.0182 24.0192 19.9425 24.0121 19.8802 23.9672C19.8603 23.953 19.8453 23.9348 19.8353 23.9128C19.8179 23.8718 19.8182 23.8334 19.8361 23.7976C19.8524 23.7656 19.8437 23.7432 19.8101 23.7306C19.7743 23.7175 19.7593 23.6901 19.7651 23.6486C19.7666 23.6377 19.7657 23.6265 19.7626 23.6157C19.7595 23.605 19.7542 23.595 19.747 23.5863C19.707 23.5374 19.6566 23.5061 19.5956 23.4925C19.574 23.4877 19.5575 23.4759 19.5459 23.457C19.5207 23.416 19.4868 23.3934 19.4442 23.3892C19.4221 23.3871 19.4121 23.375 19.4142 23.3529C19.4189 23.3061 19.4387 23.2698 19.4734 23.2441C19.4912 23.2315 19.4946 23.2157 19.4836 23.1968C19.4752 23.1821 19.4597 23.1708 19.4371 23.1629" stroke="#0E5B91" stroke-width="2"/>
<path d="M23.3631 21.0362C23.3805 20.9921 23.3768 20.9574 23.3521 20.9321C23.0998 20.6793 22.8482 20.4522 22.5975 20.2509C22.5583 20.2195 22.5088 20.2037 22.4584 20.2066C22.4081 20.2095 22.3605 20.2309 22.3246 20.2666L19.4371 23.1629" stroke="#0F70B0" stroke-width="2"/>
<path d="M19.4371 23.1629L7.15979 35.3171C7.15625 35.3206 7.15187 35.3231 7.14709 35.3244C7.14231 35.3257 7.13727 35.3258 7.13246 35.3246C7.12765 35.3234 7.12321 35.321 7.11958 35.3176C7.11595 35.3143 7.11323 35.31 7.11169 35.3053C6.95031 34.8117 6.78919 34.3223 6.62833 33.8371C6.33763 32.9582 6.09292 31.8271 5.89422 30.4441C5.88554 30.3826 5.9021 30.3526 5.90447 30.2903" stroke="#0F649C" stroke-width="2"/>
<path d="M47.376 35.6452C43.7656 39.2177 40.1332 42.7705 36.4786 46.3036C35.2927 47.4493 34.2258 48.3317 32.685 48.875C31.8177 49.1815 30.8249 49.3804 29.7068 49.4719C26.8087 49.71 23.9903 49.357 21.2515 48.4129C21.2469 48.4113 21.2428 48.4086 21.2395 48.405C21.2362 48.4014 21.2339 48.3971 21.2328 48.3924C21.2317 48.3877 21.2318 48.3829 21.2332 48.3783C21.2345 48.3738 21.237 48.3697 21.2404 48.3664C22.4495 47.1794 23.6594 45.9908 24.87 44.8007C25.0238 44.6493 25.0522 44.5184 25.3068 44.5192C25.5471 44.5202 25.7739 44.5408 25.9873 44.5807C26.0488 44.5923 26.0594 44.5741 26.0189 44.5263C25.09 43.4366 23.9869 42.4501 22.9657 41.444" stroke="#86A2B7" stroke-width="2"/>
<path d="M22.9657 41.4439L26.4573 38.0423C26.4707 38.029 26.4889 38.0216 26.5079 38.0216C26.5269 38.0216 26.5452 38.029 26.559 38.0423L31.298 42.648" stroke="#87B3D2" stroke-width="2"/>
<path d="M54.0217 20.5253C53.9638 20.5084 53.9097 20.5037 53.8592 20.5111C53.8303 20.5158 53.814 20.5324 53.8103 20.5607C53.7977 20.6459 53.768 20.7085 53.7212 20.7484C53.4742 20.9587 53.235 21.1776 53.0037 21.4053C52.1994 22.1969 51.3107 23.0343 50.6775 23.6991C49.6977 24.7278 49.0335 25.4104 48.6849 25.7469C46.0555 28.2838 43.4447 30.8394 40.8526 33.4137C40.842 33.401 40.8276 33.3942 40.8092 33.3931C40.8029 33.3926 40.8018 33.3897 40.806 33.3845C40.8123 33.3776 40.8144 33.3692 40.8123 33.3592C40.8097 33.3466 40.8023 33.3393 40.7903 33.3372C40.7797 33.3351 40.7703 33.3382 40.7619 33.3466C40.7598 33.3487 40.7582 33.3482 40.7571 33.345C40.7535 33.3335 40.759 33.3253 40.7737 33.3206C40.7779 33.319 40.7815 33.3161 40.7839 33.3122C40.7863 33.3084 40.7873 33.3039 40.7869 33.2994C40.7864 33.2949 40.7845 33.2907 40.7814 33.2874C40.7783 33.2841 40.7742 33.2819 40.7698 33.2812L40.4678 33.2536C40.4415 33.2509 40.4155 33.2517 40.3897 33.2559C40.3045 33.2686 40.2291 33.2491 40.1634 33.1976C40.1434 33.1813 40.1205 33.175 40.0948 33.1787C39.9644 33.1965 39.8756 33.1463 39.8283 33.0281C39.8243 33.0185 39.8182 33.01 39.8104 33.0032C39.8025 32.9964 39.7932 32.9915 39.7832 32.989C39.7731 32.9865 39.7626 32.9863 39.7525 32.9886C39.7424 32.9909 39.733 32.9955 39.725 33.002L39.6729 33.0454C39.6682 33.0491 39.664 33.0488 39.6603 33.0446C39.6403 33.0225 39.6285 32.9934 39.6248 32.9571C39.6237 32.9436 39.6177 32.931 39.608 32.9216C39.5983 32.9121 39.5855 32.9066 39.572 32.9058C39.5483 32.9048 39.5284 32.8985 39.5121 32.8869C39.4753 32.8617 39.4556 32.8488 39.4529 32.8483C39.4351 32.8446 39.4167 32.8456 39.3977 32.8514C39.3725 32.8588 39.3481 32.8567 39.3244 32.8451C39.2466 32.8062 39.1664 32.7975 39.0839 32.8191C39.0723 32.8223 39.0602 32.8229 39.0483 32.8209C39.0365 32.8188 39.0252 32.8142 39.0153 32.8073L38.8805 32.7134C38.8568 32.6971 38.8321 32.6958 38.8063 32.7095C38.7659 32.7311 38.723 32.7424 38.6778 32.7434C38.6792 32.7441 38.6784 32.744 38.6755 32.7433C38.6726 32.7427 38.6677 32.7413 38.6611 32.7394C38.6544 32.7375 38.6462 32.735 38.6368 32.7322C38.6275 32.7293 38.6173 32.7262 38.6068 32.7229C38.5848 32.7161 38.5559 32.7163 38.5201 32.7237C38.4549 32.7368 38.3908 32.7542 38.3277 32.7757C38.3167 32.7794 38.3072 32.7771 38.2993 32.7686L38.2836 32.7537C38.2709 32.7405 38.2557 32.7353 38.2378 32.7379L37.4737 32.8357C37.4687 32.8367 37.4634 32.8361 37.4588 32.8341C37.3557 32.7994 37.259 32.8083 37.1686 32.8609C37.1449 32.8746 37.1194 32.8806 37.0921 32.879L36.8145 32.8609C36.8045 32.8604 36.7972 32.8556 36.7925 32.8467C36.7893 32.8404 36.7864 32.8341 36.7838 32.8278C36.7805 32.8201 36.775 32.8137 36.7679 32.8093C36.7609 32.8049 36.7526 32.8028 36.7444 32.8033C36.6208 32.8107 36.5104 32.7799 36.4132 32.7111C36.4022 32.7033 36.389 32.6992 36.3756 32.6993C36.3621 32.6995 36.3491 32.7039 36.3383 32.7119C36.2973 32.7424 36.2502 32.7584 36.1971 32.76C36.1708 32.761 36.1461 32.7552 36.123 32.7426C36.0652 32.7121 36.0037 32.6919 35.9385 32.6819C35.9185 32.6793 35.9022 32.6698 35.8896 32.6535C35.8539 32.6078 35.8094 32.5778 35.7563 32.5636C35.7374 32.5589 35.7287 32.5468 35.7303 32.5274C35.7356 32.4511 35.7022 32.3938 35.6302 32.3554C35.6275 32.3544 35.6273 32.3528 35.6294 32.3507L35.6491 32.3294C35.6507 32.3278 35.6527 32.3266 35.6548 32.3259C35.657 32.3252 35.6593 32.3251 35.6616 32.3255C35.6638 32.3259 35.6659 32.3268 35.6677 32.3282C35.6695 32.3295 35.671 32.3313 35.672 32.3334C35.6756 32.3413 35.6791 32.3489 35.6822 32.3562C35.6831 32.3579 35.6844 32.3592 35.686 32.3602C35.6875 32.3612 35.6893 32.3618 35.6911 32.3618C35.6928 32.3619 35.6946 32.3615 35.6961 32.3607C35.6976 32.3598 35.6988 32.3586 35.6996 32.357C35.7138 32.3313 35.7143 32.306 35.7011 32.2813C35.6906 32.2614 35.6764 32.2585 35.6586 32.2727C35.6239 32.301 35.5863 32.3155 35.5458 32.316L48.4208 19.6508C48.4602 19.6124 48.4715 19.5667 48.4547 19.5136C48.3737 19.2602 48.2733 19.0095 48.1535 18.7613C47.0748 16.523 45.6528 14.5364 43.8876 12.8017C43.8737 12.788 43.855 12.7803 43.8355 12.7803C43.8161 12.7803 43.7974 12.788 43.7835 12.8017L40.2304 16.2538C40.1926 16.2901 40.1923 16.3266 40.2296 16.3634L40.5127 16.6465C40.4286 16.8983 40.2725 17.1136 40.0443 17.2923C39.8567 17.439 39.7307 17.5462 39.6666 17.614C39.005 18.3135 38.2804 18.9395 37.7576 19.4426C37.714 19.4847 37.6262 19.5593 37.4942 19.6666C37.4033 19.7407 37.3213 19.8232 37.2482 19.9142L28.2039 11.0299C28.1987 11.0247 28.1951 11.0181 28.1936 11.0108C28.1921 11.0036 28.1927 10.9962 28.1954 10.9894C28.1981 10.9826 28.2028 10.9768 28.2088 10.9728C28.2148 10.9688 28.2219 10.9667 28.2291 10.9668C30.8959 10.9629 33.7014 11.5085 35.9456 12.9405C35.9603 12.9501 35.9779 12.9544 35.9953 12.9526C36.0128 12.9509 36.0292 12.9433 36.0418 12.931L39.5373 9.50251C39.5474 9.49281 39.5551 9.48096 39.56 9.46784C39.5648 9.45472 39.5667 9.44065 39.5654 9.42667C39.5641 9.41269 39.5597 9.39914 39.5526 9.38702C39.5454 9.37491 39.5356 9.36453 39.5239 9.35664C37.2009 7.78827 34.3512 6.81839 31.6111 6.35789C29.9441 6.07718 28.2204 6.0275 26.5346 6.14341C25.0522 6.24513 23.6391 6.59366 22.3893 7.41451C21.6505 7.89945 20.8667 8.6651 20.1744 9.34008C18.4754 10.997 16.7795 12.6571 15.0868 14.3204C15.0679 14.2189 15.0395 14.1225 15.0017 14.031C14.9141 13.8205 14.6626 13.7345 14.5191 13.6013C14.2597 13.3608 13.9671 13.1668 13.7077 12.9302C13.6028 12.8348 13.4719 12.778 13.3844 12.6692C13.3486 12.6245 13.3116 12.5814 13.2732 12.5399C13.2711 12.5373 13.2682 12.536 13.2645 12.536C13.2535 12.5365 13.2419 12.5367 13.2298 12.5367C13.2213 12.5367 13.2128 12.5334 13.2062 12.5273L12.8734 12.2182C12.8482 12.1947 12.8151 12.1816 12.7807 12.1813C12.7463 12.181 12.713 12.1936 12.6873 12.2166C12.5817 12.3128 12.4815 12.4122 12.3869 12.5147C11.2294 13.7731 10.1262 15.004 9.21469 16.4612C8.81728 17.0976 8.38832 17.7473 8.0737 18.397C7.64711 19.2762 7.29385 20.1862 6.954 21.1009C6.84913 21.3832 6.66934 21.7695 6.56289 22.1197C6.49429 22.3436 6.35157 22.4792 6.22777 22.6716C6.22409 22.6774 6.22094 22.6771 6.21831 22.6708C6.21568 22.6635 6.21095 22.6585 6.20412 22.6558C6.19728 22.6537 6.18887 22.6553 6.17888 22.6606C5.7996 22.8498 5.59459 22.5865 5.30205 22.413C5.22845 22.3694 5.1312 22.3347 5.01029 22.3089C4.88413 22.2816 4.76979 22.2419 4.66729 22.1898C4.6022 22.1569 4.54319 22.1257 4.49723 22.0998C4.45126 22.074 4.42025 22.0546 4.40786 22.044C4.32954 21.9772 4.1968 21.8976 4.00966 21.805C3.99757 21.7992 3.986 21.7964 3.97496 21.7964C3.95762 21.7958 3.94132 21.7911 3.92608 21.7822C3.83829 21.7306 3.76259 21.666 3.69898 21.5882C3.54995 21.4068 3.34888 21.3201 3.23848 21.1253C3.23586 21.1206 3.23191 21.1182 3.22666 21.1182C3.22035 21.1182 3.2143 21.1211 3.20852 21.1269C3.20432 21.1306 3.19985 21.1308 3.19512 21.1277C3.05003 21.0346 2.94515 20.9684 2.81741 20.8265C2.7086 20.7058 2.57613 20.6467 2.46652 20.4929C2.40108 20.4023 2.32459 20.3668 2.24022 20.2982C2.23032 20.29 2.21846 20.2844 2.20577 20.2821C2.19308 20.2798 2.17997 20.2807 2.16767 20.2848C2.13193 20.2963 2.09986 20.2984 2.07147 20.2911C2.87576 17.5975 3.99442 15.182 5.42742 13.0446C6.73111 11.0995 8.36624 9.27226 10.3328 7.56275C12.7131 5.49314 15.4135 3.88351 18.4341 2.73384C19.5183 2.32145 20.4842 2.04231 21.641 1.76081C28.5209 0.0875643 35.974 1.20017 42.0054 4.84314C45.5784 7.00106 48.5199 9.8605 50.8297 13.4215C52.1465 15.4519 53.1535 17.7465 53.8821 20.0514C53.932 20.2091 53.9786 20.367 54.0217 20.5253Z" fill="#1079BB"/>
<path d="M37.2482 19.9142L39.0989 21.7246C39.1578 21.7824 39.2169 21.7822 39.2763 21.7238L42.402 18.6502C42.411 18.641 42.4161 18.6287 42.4161 18.6159C42.4161 18.603 42.411 18.5907 42.402 18.5816L40.5127 16.6465L40.2296 16.3634C40.1923 16.3267 40.1926 16.2901 40.2304 16.2538L43.7835 12.8017C43.7974 12.788 43.8161 12.7804 43.8355 12.7804C43.855 12.7804 43.8737 12.788 43.8876 12.8017C45.6528 14.5364 47.0748 16.523 48.1535 18.7613C48.2733 19.0095 48.3737 19.2602 48.4547 19.5136C48.4715 19.5667 48.4602 19.6124 48.4208 19.6508L35.5458 32.316L31.8555 35.9527C31.813 35.9942 31.7706 35.9945 31.7286 35.9535L26.3091 30.6728C26.2932 30.6576 26.2721 30.6492 26.2502 30.6493C26.2282 30.6495 26.2072 30.6582 26.1916 30.6735L13.1873 43.5178C13.1841 43.5304 13.1755 43.5393 13.1613 43.5446C13.1497 43.5491 13.1372 43.5502 13.125 43.5478C13.1129 43.5454 13.1017 43.5397 13.0927 43.5312C12.0108 42.5077 10.9852 41.4306 10.0158 40.2998C9.91859 40.1863 9.8287 40.0693 9.74617 39.9489C9.73648 39.935 9.73205 39.918 9.73363 39.901C9.73522 39.884 9.74273 39.868 9.75484 39.8559L14.1177 35.5435L20.0356 29.7179L22.5683 27.2088C22.5967 27.1809 22.597 27.1528 22.5691 27.1244L20.0924 24.6437L19.8897 24.4269C19.8697 24.4053 19.8705 24.3846 19.8921 24.3646L20.2162 24.0681L23.3632 21.0362L31.6726 29.1004C31.7309 29.1567 31.789 29.1564 31.8469 29.0997L35.6341 25.3565C35.6825 25.3087 35.6825 25.2611 35.6341 25.2138L23.3892 13.248C23.3684 13.228 23.3407 13.2168 23.3119 13.2168C23.2831 13.2168 23.2554 13.228 23.2346 13.248C17.4571 18.9112 11.6646 24.557 5.92342 30.2572C5.9129 30.2677 5.90659 30.2788 5.90449 30.2903C5.88714 30.2814 5.87768 30.2675 5.8761 30.2485C5.80251 29.5331 5.76834 28.8155 5.7736 28.0959C5.7757 26.4305 5.9631 24.7846 6.33581 23.1581C6.38707 22.9334 6.72298 22.6535 6.86254 22.5092C7.70363 21.6397 8.5534 20.7789 9.41184 19.9268C11.299 18.0533 13.1907 16.1845 15.0868 14.3204C16.7795 12.6571 18.4754 10.997 20.1744 9.34009C20.8667 8.66511 21.6505 7.89946 22.3893 7.41452C23.6391 6.59366 25.0522 6.24514 26.5346 6.14342C28.2204 6.02751 29.9442 6.07718 31.6111 6.3579C34.3512 6.81839 37.2009 7.78827 39.5239 9.35664C39.5356 9.36453 39.5454 9.37491 39.5526 9.38703C39.5598 9.39915 39.5642 9.41269 39.5654 9.42668C39.5667 9.44066 39.5649 9.45472 39.56 9.46785C39.5551 9.48097 39.5474 9.49282 39.5373 9.50252L36.0418 12.931C36.0292 12.9433 36.0128 12.9509 35.9954 12.9526C35.9779 12.9544 35.9603 12.9501 35.9456 12.9405C33.7015 11.5085 30.8959 10.9629 28.2291 10.9668C28.2219 10.9667 28.2148 10.9688 28.2088 10.9728C28.2028 10.9769 28.1982 10.9826 28.1954 10.9894C28.1927 10.9962 28.1921 11.0036 28.1936 11.0109C28.1951 11.0181 28.1987 11.0247 28.2039 11.0299L37.2482 19.9142Z" fill="white"/>
<path d="M15.0868 14.3204C13.1907 16.1845 11.299 18.0532 9.41181 19.9268C8.55338 20.7789 7.70361 21.6397 6.86252 22.5092C6.72295 22.6535 6.38704 22.9334 6.33579 23.1581C5.96308 24.7846 5.77568 26.4305 5.77358 28.0959C5.75097 28.0974 5.74256 28.1153 5.74834 28.1495C5.74782 28.1495 5.74703 28.1495 5.74598 28.1495C5.7444 28.1495 5.74361 28.1484 5.74361 28.1463C5.75623 28.0223 5.75045 27.8987 5.72626 27.7757C5.72048 27.7479 5.70813 27.7447 5.6892 27.7663C5.6666 27.7931 5.66765 27.8191 5.69236 27.8443C5.69314 27.8451 5.69368 27.8461 5.6939 27.8472C5.69412 27.8483 5.69401 27.8494 5.69359 27.8504C5.69317 27.8514 5.69245 27.8523 5.69152 27.8529C5.6906 27.8535 5.68952 27.8538 5.68842 27.8538L5.66239 27.8546C5.65871 27.8546 5.65661 27.8527 5.65609 27.8491C5.6319 27.7408 5.5612 27.6829 5.44397 27.6756C5.44008 27.6754 5.43618 27.6759 5.43251 27.6773C5.42883 27.6786 5.42546 27.6806 5.4226 27.6833C5.41973 27.6859 5.41742 27.6891 5.41581 27.6927C5.4142 27.6962 5.41332 27.7001 5.41322 27.704L5.41243 27.7347C5.41191 27.7715 5.39745 27.7778 5.36906 27.7536C5.32385 27.7153 5.2818 27.714 5.2429 27.7497C5.23659 27.755 5.23344 27.7536 5.23344 27.7458C5.23344 27.7384 5.23344 27.7313 5.23344 27.7245C5.23351 27.7211 5.23272 27.7177 5.23112 27.7148C5.22953 27.7118 5.22719 27.7092 5.22434 27.7074C5.22149 27.7056 5.21822 27.7045 5.21484 27.7044C5.21146 27.7042 5.20809 27.7048 5.20505 27.7063C5.16878 27.7242 5.14565 27.7518 5.13566 27.7891C5.13219 27.8019 5.12537 27.8135 5.11566 27.8231C5.10595 27.8327 5.0936 27.84 5.07943 27.8447C5.06527 27.8493 5.04964 27.8511 5.03362 27.85C5.0176 27.8488 5.00157 27.8447 4.98663 27.838C4.97927 27.8349 4.97086 27.8338 4.9614 27.8349C4.95637 27.8354 4.95166 27.8376 4.94789 27.8409C4.94412 27.8443 4.9415 27.8488 4.94037 27.8537C4.93925 27.8586 4.93968 27.8638 4.94161 27.8685C4.94354 27.8731 4.94687 27.8771 4.95115 27.8798L5.01029 27.92C5.01817 27.9248 5.02474 27.9237 5.03 27.9169C5.03578 27.91 5.04367 27.9098 5.05365 27.9161C5.07363 27.9276 5.07258 27.9366 5.0505 27.9429C4.99057 27.9581 4.94063 27.9897 4.90068 28.0375C4.88649 28.0549 4.8694 28.058 4.84943 28.047C4.77136 28.002 4.73115 28.0462 4.66176 28.0296C4.64073 28.0244 4.6226 28.0136 4.60735 27.9973C4.59909 27.9883 4.58845 27.9818 4.57662 27.9784C4.56479 27.9751 4.55223 27.9751 4.54033 27.9784C4.48723 27.9931 4.43467 27.9983 4.38262 27.9941C4.36422 27.992 4.3474 27.9962 4.33216 28.0068C4.31796 28.0157 4.30272 28.0217 4.28642 28.0249C4.27596 28.0273 4.26504 28.0272 4.2546 28.0244C4.24416 28.0217 4.23452 28.0164 4.2265 28.0091C4.20179 27.9865 4.17892 27.9849 4.15789 28.0044C4.13844 28.0223 4.1161 28.0291 4.09087 28.0249C3.99414 28.0102 3.90241 28.0241 3.81568 28.0667C3.78729 28.0804 3.75759 28.088 3.72657 28.0896C3.41852 28.1085 3.11284 28.1187 2.80952 28.1203C2.7007 28.1211 2.57533 28.0888 2.45548 28.0943C2.32695 28.1006 2.21498 28.0556 2.08329 28.0754C2.06016 28.079 2.03914 28.074 2.02021 28.0604C1.89878 27.9736 1.81914 28.084 1.71505 28.0533C1.67037 28.0401 1.57312 27.9889 1.4233 27.8995C1.42015 27.8974 1.41673 27.8969 1.41305 27.8979C1.40516 27.9011 1.39938 27.9053 1.3957 27.9106C1.39045 27.9174 1.38387 27.919 1.37599 27.9153C1.35917 27.9069 1.35023 27.8961 1.34918 27.883C1.34896 27.8788 1.34771 27.8743 1.34562 27.8703C1.34354 27.8663 1.34074 27.8629 1.33766 27.8608C1.33459 27.8586 1.33142 27.8577 1.32865 27.8583C1.32588 27.8589 1.32367 27.8609 1.32237 27.864C1.31921 27.8703 1.3158 27.8769 1.31212 27.8838C1.29687 27.9085 1.28636 27.9245 1.28058 27.9319C1.25797 27.9608 1.24273 27.9931 1.23484 28.0288C1.23169 28.043 1.22459 28.0546 1.21355 28.0635C1.20146 28.0725 1.19016 28.0798 1.17965 28.0856C1.15704 28.0961 1.15073 28.0901 1.16072 28.0675C1.1644 28.058 1.16861 28.0488 1.17334 28.0399C1.17429 28.0379 1.17473 28.0357 1.17459 28.0336C1.17446 28.0314 1.17376 28.0293 1.17257 28.0275C1.17137 28.0256 1.16973 28.0241 1.16779 28.0231C1.16585 28.0221 1.16369 28.0217 1.16151 28.0217C1.15363 28.0217 1.14574 28.0217 1.13785 28.0217C1.1347 28.0217 1.13312 28.0202 1.13312 28.017V27.9642C1.13312 27.9179 1.11998 27.9137 1.0937 27.9516C1.06689 27.9905 1.06899 28.0273 1.10001 28.062C1.10055 28.0627 1.10091 28.0636 1.10104 28.0645C1.10118 28.0654 1.10108 28.0663 1.10077 28.0671C1.10046 28.068 1.09994 28.0688 1.09925 28.0694C1.09857 28.07 1.09774 28.0704 1.09685 28.0706C1.08897 28.0717 1.08161 28.0717 1.07477 28.0706C1.04218 28.0638 1.03088 28.0677 1.04087 28.0825C1.08082 28.1429 1.0795 28.2134 1.03692 28.2938C1.03175 28.3034 1.02885 28.3141 1.02844 28.3251C1.02803 28.3362 1.03012 28.3473 1.03456 28.3577C1.07504 28.4554 1.06847 28.5259 1.01485 28.569C0.940199 26.3716 1.14705 24.1717 1.63541 21.969C1.77787 21.3256 1.92322 20.7663 2.07146 20.2911C2.09985 20.2984 2.13192 20.2963 2.16766 20.2848C2.17996 20.2807 2.19308 20.2798 2.20577 20.2821C2.21846 20.2845 2.23031 20.29 2.24021 20.2982C2.32458 20.3668 2.40107 20.4023 2.46651 20.4929C2.57612 20.6467 2.70859 20.7058 2.81741 20.8265C2.94515 20.9684 3.05002 21.0346 3.19511 21.1277C3.19984 21.1308 3.20431 21.1306 3.20851 21.1269C3.2143 21.1211 3.22034 21.1182 3.22665 21.1182C3.23191 21.1182 3.23585 21.1206 3.23848 21.1253C3.34887 21.3201 3.54994 21.4068 3.69897 21.5882C3.76258 21.666 3.83828 21.7307 3.92607 21.7822C3.94131 21.7911 3.95761 21.7958 3.97496 21.7964C3.986 21.7964 3.99756 21.7993 4.00965 21.805C4.19679 21.8976 4.32953 21.9772 4.40786 22.044C4.42025 22.0546 4.45125 22.074 4.49722 22.0999C4.54319 22.1257 4.60219 22.1569 4.66728 22.1898C4.76979 22.2419 4.88412 22.2816 5.01029 22.3089C5.13119 22.3347 5.22844 22.3694 5.30204 22.413C5.59458 22.5865 5.7996 22.8498 6.17888 22.6606C6.18886 22.6553 6.19727 22.6537 6.20411 22.6559C6.21094 22.6585 6.21567 22.6635 6.2183 22.6708C6.22093 22.6771 6.22408 22.6774 6.22776 22.6716C6.35156 22.4792 6.49428 22.3436 6.56289 22.1197C6.66934 21.7696 6.84912 21.3832 6.95399 21.1009C7.29384 20.1862 7.6471 19.2762 8.07369 18.397C8.38831 17.7473 8.81727 17.0976 9.21468 16.4612C10.1262 15.004 11.2294 13.7732 12.3869 12.5147C12.4815 12.4122 12.5817 12.3128 12.6873 12.2166C12.713 12.1936 12.7463 12.181 12.7807 12.1813C12.8151 12.1816 12.8482 12.1948 12.8734 12.2182L13.2062 12.5273C13.2128 12.5334 13.2212 12.5367 13.2298 12.5368C13.2419 12.5368 13.2535 12.5365 13.2645 12.536C13.2682 12.536 13.2711 12.5373 13.2732 12.5399C13.3116 12.5814 13.3486 12.6245 13.3844 12.6692C13.4719 12.778 13.6028 12.8348 13.7077 12.9302C13.9671 13.1668 14.2596 13.3608 14.5191 13.6013C14.6626 13.7345 14.9141 13.8205 15.0016 14.031C15.0395 14.1225 15.0679 14.2189 15.0868 14.3204Z" fill="#0E67A5"/>
<path d="M23.3631 21.0362C23.3805 20.9921 23.3768 20.9574 23.3521 20.9321C23.0998 20.6793 22.8482 20.4522 22.5975 20.2508C22.5583 20.2195 22.5088 20.2037 22.4584 20.2066C22.4081 20.2095 22.3605 20.2309 22.3246 20.2666L19.4371 23.1629L7.15979 35.3171C7.15625 35.3206 7.15187 35.3231 7.14709 35.3244C7.14231 35.3257 7.13727 35.3258 7.13246 35.3246C7.12765 35.3234 7.12321 35.321 7.11958 35.3176C7.11595 35.3143 7.11323 35.31 7.11169 35.3053C6.95031 34.8117 6.78919 34.3223 6.62833 33.8371C6.33763 32.9581 6.09292 31.8271 5.89422 30.4441C5.88554 30.3826 5.9021 30.3526 5.90447 30.2903C5.90657 30.2787 5.91288 30.2677 5.92339 30.2572C11.6646 24.557 17.4571 18.9111 23.2346 13.248C23.2553 13.2279 23.283 13.2167 23.3119 13.2167C23.3407 13.2167 23.3684 13.2279 23.3891 13.248L35.6341 25.2138C35.6825 25.2611 35.6825 25.3087 35.6341 25.3565L31.8468 29.0996C31.789 29.1564 31.7309 29.1567 31.6726 29.1004L23.3631 21.0362Z" fill="#1079BB"/>
<path d="M40.5127 16.6465L42.4019 18.5815C42.411 18.5907 42.416 18.603 42.416 18.6158C42.416 18.6287 42.411 18.641 42.4019 18.6501L39.2762 21.7238C39.2168 21.7822 39.1577 21.7824 39.0988 21.7246L37.2482 19.9141C37.3212 19.8232 37.4032 19.7407 37.4942 19.6666C37.6261 19.5593 37.7139 19.4847 37.7576 19.4426C38.2803 18.9395 39.005 18.3134 39.6666 17.614C39.7307 17.5462 39.8566 17.439 40.0443 17.2923C40.2724 17.1136 40.4285 16.8983 40.5127 16.6465Z" fill="#0E67A5"/>
<path d="M23.3631 21.0362L20.2161 24.0681C20.1699 24.0423 20.1331 24.0394 20.1057 24.0594C20.1 24.0631 20.0939 24.0633 20.0876 24.0602C20.0182 24.0192 19.9425 24.0121 19.8802 23.9671C19.8603 23.9529 19.8453 23.9348 19.8353 23.9127C19.8179 23.8717 19.8182 23.8334 19.8361 23.7976C19.8524 23.7655 19.8437 23.7432 19.8101 23.7306C19.7743 23.7174 19.7593 23.6901 19.7651 23.6486C19.7666 23.6376 19.7657 23.6264 19.7626 23.6157C19.7595 23.605 19.7542 23.595 19.747 23.5863C19.707 23.5374 19.6566 23.5061 19.5956 23.4924C19.574 23.4877 19.5575 23.4759 19.5459 23.457C19.5207 23.416 19.4868 23.3934 19.4442 23.3892C19.4221 23.387 19.4121 23.375 19.4142 23.3529C19.4189 23.3061 19.4387 23.2698 19.4734 23.2441C19.4912 23.2314 19.4946 23.2157 19.4836 23.1968C19.4752 23.182 19.4597 23.1707 19.4371 23.1628L22.3246 20.2666C22.3605 20.2309 22.4081 20.2095 22.4585 20.2066C22.5088 20.2037 22.5583 20.2194 22.5975 20.2508C22.8482 20.4522 23.0998 20.6793 23.3521 20.9321C23.3768 20.9573 23.3805 20.992 23.3631 21.0362Z" fill="#0E67A5"/>
<path d="M54.0217 20.5252C55.2707 24.9354 55.3093 29.5988 54.2204 34.0539C54.2104 34.0218 54.1933 34.0019 54.1691 33.994C54.1434 33.985 54.1313 33.9945 54.1328 34.0224C54.1339 34.0444 54.1297 34.0657 54.1202 34.0862C54.1129 34.101 54.1034 34.1025 54.0918 34.091L54.0737 34.0728C54.0474 34.0466 54.0377 34.0531 54.0445 34.0925C54.0477 34.1109 54.0414 34.127 54.0256 34.1406C54.0234 34.1425 54.0209 34.1439 54.0181 34.1446C54.0154 34.1454 54.0125 34.1455 54.0097 34.145C54.0069 34.1444 54.0042 34.1433 54.0019 34.1416C53.9996 34.1399 53.9978 34.1377 53.9964 34.1351C53.9927 34.1278 53.9888 34.1201 53.9846 34.1123C53.9736 34.0923 53.9673 34.0891 53.9657 34.1028C53.9651 34.106 53.9649 34.1091 53.9649 34.1123C53.9649 34.1249 53.9565 34.1338 53.9397 34.1391C53.926 34.1438 53.9136 34.1433 53.9026 34.1375C53.8884 34.1296 53.876 34.1315 53.8655 34.143C53.7998 34.215 53.7204 34.2642 53.6274 34.2905C53.6137 34.2941 53.6019 34.2907 53.5919 34.2802C53.5835 34.2713 53.5738 34.2639 53.5627 34.2581C53.5512 34.2518 53.5357 34.2495 53.5162 34.251C53.4184 34.26 53.3204 34.266 53.2221 34.2692C53.2021 34.2697 53.1832 34.2652 53.1653 34.2558C53.1333 34.2384 53.1049 34.2471 53.0802 34.2818C53.0633 34.3055 53.0405 34.3196 53.0116 34.3244L52.0259 34.4979C52.018 34.4994 52.0138 34.5042 52.0133 34.512C52.0133 34.5205 52.0133 34.5286 52.0133 34.5365C52.0133 34.5402 52.0117 34.5425 52.0086 34.5436C51.7683 34.6035 51.527 34.6574 51.2847 34.7052C51.2616 34.7268 51.2408 34.7299 51.2224 34.7147C51.2035 34.6989 51.1846 34.6992 51.1656 34.7155C51.1286 34.7478 51.0955 34.7723 51.0426 34.7723C50.804 34.7728 50.5653 34.7728 50.3266 34.7723C50.1981 34.7723 50.0783 34.829 49.9387 34.833C49.9129 34.834 49.8885 34.8401 49.8654 34.8511C49.7571 34.9031 49.6438 34.9389 49.5255 34.9583C49.5019 34.9626 49.4806 34.972 49.4616 34.9867C49.4212 35.0199 49.3852 35.0419 49.3536 35.053C49.1255 35.1308 48.8918 35.1663 48.6526 35.1594C48.6463 35.1589 48.6332 35.1544 48.6132 35.146C48.6074 35.1439 48.6016 35.141 48.5958 35.1373C48.5785 35.1263 48.5614 35.1268 48.5446 35.1389C48.5025 35.1678 48.4497 35.2167 48.3861 35.2856C48.3651 35.3092 48.3419 35.3148 48.3167 35.3021C48.2946 35.2911 48.2733 35.2927 48.2528 35.3069C48.1682 35.3658 48.1109 35.3978 48.0809 35.4031C47.9811 35.4194 47.9269 35.3844 47.9185 35.2982C47.9182 35.2946 47.9167 35.2911 47.9142 35.2884C47.9117 35.2857 47.9085 35.2839 47.9049 35.2833C47.9013 35.2827 47.8975 35.2832 47.8943 35.2849C47.8911 35.2866 47.8885 35.2894 47.887 35.2927C47.8417 35.3889 47.7671 35.4346 47.663 35.4299C47.6551 35.4294 47.6483 35.432 47.6425 35.4378L47.6267 35.4527C47.6225 35.457 47.6233 35.4606 47.6291 35.4638C47.6354 35.4669 47.642 35.4701 47.6488 35.4733C47.6501 35.4739 47.6513 35.4749 47.6521 35.4761C47.653 35.4773 47.6535 35.4787 47.6538 35.4801C47.654 35.4816 47.6539 35.4831 47.6534 35.4845C47.653 35.4859 47.6522 35.4872 47.6512 35.4882C47.6396 35.4998 47.6262 35.5045 47.611 35.5024C47.5973 35.5008 47.5863 35.5056 47.5779 35.5166C47.519 35.5934 47.4517 35.6362 47.376 35.6451C47.9937 35.0343 48.6137 34.4287 49.2361 33.8284C49.3229 33.7443 49.3754 33.6596 49.3938 33.5745C49.904 31.2066 50.2336 28.8016 50.053 26.354C50.0527 26.3487 50.0509 26.3436 50.0478 26.3393C50.0446 26.335 50.0403 26.3317 50.0353 26.3297C50.0303 26.3277 50.0248 26.3272 50.0194 26.3281C50.014 26.3291 50.009 26.3315 50.0049 26.3351C44.0106 31.9769 38.1944 37.8104 32.2695 43.5256C32.249 43.5451 32.2285 43.5451 32.208 43.5256L31.298 42.648C31.4705 42.5471 31.6284 42.4267 31.7719 42.2869C33.1282 40.969 34.4829 39.649 35.836 38.3269C37.0025 37.1872 38.1705 36.0489 39.3402 34.9118C39.849 34.4172 40.3532 33.9178 40.8526 33.4136C43.4447 30.8394 46.0555 28.2838 48.6849 25.7468C49.0335 25.4104 49.6977 24.7278 50.6775 23.699C51.3107 23.0343 52.1994 22.1969 53.0037 21.4052C53.235 21.1776 53.4742 20.9587 53.7212 20.7484C53.768 20.7084 53.7977 20.6459 53.8103 20.5607C53.814 20.5323 53.8303 20.5158 53.8592 20.5111C53.9097 20.5037 53.9638 20.5084 54.0217 20.5252Z" fill="#0E4F7C"/>
<path d="M19.4371 23.1629C19.4597 23.1708 19.4752 23.1821 19.4836 23.1968C19.4946 23.2157 19.4912 23.2315 19.4733 23.2441C19.4386 23.2698 19.4189 23.3061 19.4142 23.3529C19.4121 23.375 19.4221 23.3871 19.4442 23.3892C19.4867 23.3934 19.5207 23.416 19.5459 23.457C19.5574 23.4759 19.574 23.4877 19.5956 23.4925C19.6565 23.5061 19.707 23.5374 19.747 23.5863C19.7542 23.595 19.7595 23.605 19.7626 23.6157C19.7657 23.6265 19.7666 23.6377 19.7651 23.6486C19.7593 23.6901 19.7743 23.7175 19.81 23.7306C19.8437 23.7432 19.8524 23.7656 19.8361 23.7976C19.8182 23.8334 19.8179 23.8718 19.8353 23.9128C19.8453 23.9348 19.8602 23.953 19.8802 23.9672C19.9425 24.0121 20.0182 24.0192 20.0876 24.0602C20.0939 24.0634 20.1 24.0631 20.1057 24.0594C20.1331 24.0394 20.1699 24.0423 20.2161 24.0681L19.892 24.3646C19.8705 24.3846 19.8697 24.4053 19.8897 24.4269L20.0923 24.6437L17.4839 27.1496C17.4806 27.1527 17.478 27.1564 17.4761 27.1605C17.4743 27.1647 17.4733 27.1691 17.4733 27.1737C17.4732 27.1782 17.474 27.1828 17.4757 27.187C17.4774 27.1913 17.4799 27.1952 17.4831 27.1985L18.1218 27.8396C18.1066 27.8948 18.0798 27.909 18.0414 27.8822C18.0307 27.8749 18.0179 27.8714 18.0051 27.8724C17.9923 27.8734 17.9804 27.8788 17.9712 27.8877L12.2473 33.4231C12.2327 33.4373 12.221 33.4542 12.213 33.4729C12.2049 33.4916 12.2007 33.5117 12.2004 33.5321C12.2002 33.5524 12.204 33.5725 12.2117 33.5913C12.2193 33.6101 12.2306 33.6272 12.245 33.6415L14.1177 35.5435L9.75481 39.8559C9.74269 39.868 9.73518 39.884 9.7336 39.901C9.73201 39.918 9.73645 39.935 9.74613 39.9489C9.82867 40.0693 9.91856 40.1863 10.0158 40.2998C10.9852 41.4306 12.0108 42.5077 13.0926 43.5312C13.1016 43.5397 13.1128 43.5454 13.125 43.5478C13.1371 43.5502 13.1497 43.5491 13.1612 43.5446C13.1754 43.5393 13.1841 43.5304 13.1872 43.5178C13.2288 43.5761 13.269 43.6232 13.3079 43.6589C13.8951 44.1888 14.5067 44.69 15.1428 45.1626C15.0771 45.159 15.0116 45.139 14.9464 45.1027C14.9422 45.1001 14.9412 45.0964 14.9433 45.0917C14.9464 45.0854 14.9496 45.0793 14.9527 45.0735C14.957 45.0646 14.9546 45.058 14.9456 45.0538C14.8915 45.0286 14.8544 45.0359 14.8345 45.0759C14.8282 45.088 14.8203 45.0893 14.8108 45.0798C14.7966 45.0667 14.7782 45.0559 14.7556 45.0475C14.7346 45.0396 14.7193 45.0457 14.7099 45.0656C14.6973 45.0909 14.6768 45.1066 14.6484 45.113C14.5743 45.1287 14.5041 45.1206 14.4378 45.0885C14.4131 45.0764 14.389 45.0777 14.3653 45.0925C14.3264 45.1166 14.2983 45.1532 14.2809 45.2021C14.2757 45.2163 14.2657 45.2223 14.251 45.2202C14.2294 45.2176 14.2086 45.2191 14.1887 45.2249C14.1809 45.2272 14.1737 45.231 14.1676 45.2363C14.1615 45.2415 14.1567 45.248 14.1534 45.2553C14.1501 45.2626 14.1484 45.2705 14.1485 45.2785C14.1486 45.2864 14.1505 45.2943 14.154 45.3014C14.1797 45.3561 14.1684 45.3981 14.1201 45.4276C14.1059 45.4365 14.099 45.4326 14.0996 45.4157C14.1059 45.3059 14.0307 45.2149 13.874 45.1429C13.8615 45.1372 13.8498 45.1329 13.8394 45.1303C13.7905 45.1172 13.7555 45.1363 13.7345 45.1879C13.7271 45.2052 13.7148 45.2181 13.6974 45.2265L13.4782 45.3274C13.4556 45.3379 13.4327 45.3385 13.4096 45.329L13.311 45.288C13.2837 45.2764 13.2561 45.2757 13.2282 45.2856C13.1016 45.3308 12.9709 45.3395 12.8364 45.3117C12.8206 45.3085 12.8072 45.3014 12.7961 45.2904C12.7825 45.2778 12.7691 45.277 12.7559 45.288C12.7438 45.299 12.7299 45.3069 12.7141 45.3117C12.6863 45.3195 12.6595 45.3214 12.6337 45.3172C12.6164 45.314 12.6077 45.3214 12.6077 45.3393C12.6077 45.3466 12.6077 45.3542 12.6077 45.3621C12.6093 45.3889 12.5972 45.3984 12.5714 45.3905C12.5567 45.3863 12.5438 45.385 12.5328 45.3866C12.5175 45.3887 12.5046 45.3839 12.4941 45.3724C12.4705 45.345 12.4413 45.3429 12.4066 45.3661C12.4024 45.3687 12.3998 45.3719 12.3987 45.3755C12.3982 45.3797 12.3987 45.3839 12.4003 45.3881C12.4035 45.3945 12.4035 45.3979 12.4003 45.3984L12.2055 45.4315C12.184 45.4352 12.1719 45.426 12.1693 45.4039C12.1656 45.3661 12.1764 45.3345 12.2016 45.3093C12.2037 45.3067 12.2074 45.2935 12.2126 45.2699C12.2158 45.2551 12.2121 45.2417 12.2016 45.2297C12.198 45.2258 12.1957 45.2209 12.1948 45.2157C12.194 45.2105 12.1947 45.2052 12.1969 45.2004C12.1991 45.1956 12.2027 45.1915 12.2072 45.1888C12.2116 45.186 12.2168 45.1846 12.2221 45.1847L12.3987 45.1887C12.4445 45.1897 12.4552 45.1708 12.4311 45.1319C12.379 45.0472 12.308 45.0212 12.2182 45.0538C12.2129 45.0559 12.2076 45.0557 12.2024 45.053C12.1913 45.0478 12.1892 45.0386 12.1961 45.0254C12.1986 45.0203 12.1994 45.0144 12.1983 45.0088C12.1971 45.0032 12.1942 44.9981 12.1899 44.9943C12.1856 44.9905 12.1801 44.9883 12.1744 44.9879C12.1687 44.9876 12.163 44.9891 12.1582 44.9923C12.1051 45.0307 12.0555 45.0283 12.0092 44.9852C12.0031 44.9797 11.9958 44.9756 11.9879 44.9736C11.9799 44.9715 11.9716 44.9713 11.9636 44.9732C11.9556 44.9751 11.9482 44.9789 11.9419 44.9843C11.9357 44.9897 11.9309 44.9965 11.928 45.0041C11.9101 45.0514 11.903 45.0988 11.9067 45.1461C11.9083 45.1697 11.9072 45.1934 11.9035 45.217C11.8941 45.278 11.8709 45.3309 11.8341 45.3755C11.8194 45.3934 11.8157 45.4131 11.8231 45.4347C11.8426 45.493 11.847 45.5532 11.8365 45.6152C11.8359 45.6194 11.8342 45.6233 11.8316 45.6267C11.8291 45.63 11.8257 45.6327 11.8219 45.6344C11.8181 45.6361 11.8139 45.6369 11.8097 45.6366C11.8055 45.6362 11.8014 45.6349 11.7979 45.6326L11.7553 45.6066C11.7316 45.5919 11.7198 45.5708 11.7198 45.5435V45.4875C11.7198 45.4765 11.7143 45.4715 11.7032 45.4725C11.6233 45.4804 11.5797 45.447 11.5724 45.3724C11.5708 45.3598 11.5637 45.3519 11.5511 45.3487C11.5311 45.344 11.5203 45.3337 11.5187 45.318C11.5177 45.3027 11.5106 45.2917 11.4974 45.2849C11.479 45.2749 11.4617 45.2791 11.4454 45.2975C11.4323 45.3122 11.4204 45.3111 11.4099 45.2943C11.3931 45.2665 11.3687 45.2541 11.3366 45.2573C11.3024 45.2609 11.2814 45.246 11.2735 45.2123L11.2183 44.9742C11.212 44.9474 11.2007 44.9453 11.1844 44.9679C11.1518 45.0125 11.1058 45.0194 11.0464 44.9884C11.0222 44.9757 10.9973 44.9744 10.9715 44.9844L10.9179 45.0057C10.9016 45.012 10.8848 45.0149 10.8674 45.0144C10.8075 45.0123 10.7547 44.9965 10.7089 44.9671C10.6978 44.9597 10.6842 44.957 10.6712 44.9595C10.6582 44.962 10.6468 44.9696 10.6395 44.9805C10.5654 45.0914 10.568 45.1952 10.6474 45.292C10.6483 45.2931 10.6494 45.294 10.6507 45.2947C10.652 45.2953 10.6535 45.2956 10.6549 45.2956C10.6564 45.2956 10.6578 45.2953 10.6591 45.2947C10.6604 45.294 10.6615 45.2931 10.6624 45.292C10.6671 45.2867 10.6734 45.2822 10.6813 45.2785C10.6934 45.2733 10.7055 45.2735 10.7176 45.2793L10.8477 45.34C10.8552 45.3435 10.8616 45.3489 10.8664 45.3556C10.8712 45.3623 10.8741 45.3702 10.8749 45.3784C10.8757 45.3866 10.8743 45.3949 10.8709 45.4024C10.8676 45.4099 10.8623 45.4164 10.8556 45.4213C10.803 45.4602 10.7473 45.467 10.6884 45.4418C10.6746 45.4359 10.6594 45.4348 10.645 45.4385C10.6305 45.4422 10.6178 45.4506 10.6088 45.4623C10.5715 45.5117 10.5541 45.569 10.5567 45.6342C10.557 45.6438 10.5547 45.6534 10.5502 45.6619C10.5456 45.6705 10.5389 45.6778 10.5307 45.6831C10.5023 45.7009 10.4787 45.6986 10.4597 45.676C10.4445 45.6586 10.4251 45.651 10.4014 45.6531C10.1025 45.6799 9.84076 45.7178 9.51825 45.7059C9.18497 45.6933 8.85484 45.7235 8.52787 45.7966C8.50684 45.8013 8.48029 45.7919 8.44823 45.7682C8.43818 45.7613 8.42642 45.7573 8.41419 45.7566C8.40197 45.7559 8.38975 45.7586 8.37884 45.7643C8.33626 45.7869 8.30183 45.7774 8.27554 45.7359C8.27239 45.7312 8.26818 45.7301 8.26292 45.7327C8.25609 45.7359 8.24926 45.739 8.24242 45.7422C8.22875 45.749 8.22665 45.7585 8.23612 45.7706C8.30498 45.8578 8.38278 45.9367 8.46952 46.0071C8.48108 46.0166 8.48897 46.0347 8.49317 46.0615C8.49685 46.0878 8.5121 46.1031 8.53891 46.1073C8.55941 46.1104 8.56887 46.1249 8.5673 46.1506C8.56572 46.1764 8.57781 46.1877 8.60357 46.1846C8.61513 46.1835 8.62459 46.1861 8.63195 46.1924C8.63879 46.1987 8.6401 46.2061 8.6359 46.2145C8.63274 46.2214 8.62933 46.2284 8.62565 46.2358C8.62476 46.2376 8.62429 46.2396 8.62426 46.2416C8.62423 46.2435 8.62464 46.2455 8.62547 46.2473C8.62631 46.2491 8.62753 46.2508 8.62906 46.252C8.63059 46.2533 8.63239 46.2542 8.63432 46.2547L8.74629 46.2823C8.76626 46.2871 8.78256 46.2976 8.79518 46.3139C8.84932 46.3791 8.90268 46.4437 8.95525 46.5079C8.97575 46.5331 9.032 46.5864 9.12399 46.6679C9.20547 46.7399 9.26566 46.8311 9.30456 46.9415C4.20361 42.1457 1.25139 35.564 1.01483 28.569C1.06845 28.5259 1.07502 28.4554 1.03454 28.3577C1.03011 28.3473 1.02801 28.3362 1.02842 28.3251C1.02883 28.3141 1.03173 28.3034 1.03691 28.2938C1.07949 28.2134 1.0808 28.1429 1.04085 28.0825C1.03086 28.0677 1.04217 28.0638 1.07476 28.0706C1.08159 28.0717 1.08895 28.0717 1.09684 28.0706C1.09773 28.0704 1.09855 28.07 1.09924 28.0694C1.09992 28.0688 1.10044 28.068 1.10076 28.0671C1.10107 28.0663 1.10116 28.0654 1.10103 28.0645C1.1009 28.0636 1.10054 28.0627 1.09999 28.062C1.06898 28.0273 1.06687 27.9905 1.09368 27.9516C1.11997 27.9137 1.13311 27.9179 1.13311 27.9642V28.017C1.13311 28.0202 1.13469 28.0217 1.13784 28.0217C1.14573 28.0217 1.15361 28.0217 1.1615 28.0217C1.16368 28.0217 1.16584 28.0221 1.16778 28.0231C1.16971 28.0241 1.17136 28.0256 1.17255 28.0275C1.17374 28.0293 1.17444 28.0314 1.17458 28.0336C1.17471 28.0357 1.17428 28.0379 1.17332 28.0399C1.16859 28.0488 1.16439 28.058 1.16071 28.0675C1.15072 28.0901 1.15703 28.0961 1.17963 28.0856C1.19015 28.0798 1.20145 28.0725 1.21354 28.0635C1.22458 28.0546 1.23167 28.043 1.23483 28.0288C1.24271 27.9931 1.25796 27.9608 1.28056 27.9319C1.28635 27.9245 1.29686 27.9085 1.3121 27.8838C1.31578 27.8769 1.3192 27.8703 1.32235 27.864C1.32366 27.8609 1.32587 27.8589 1.32864 27.8583C1.3314 27.8577 1.33458 27.8586 1.33765 27.8608C1.34072 27.8629 1.34352 27.8663 1.34561 27.8703C1.34769 27.8743 1.34894 27.8788 1.34917 27.883C1.35022 27.8961 1.35915 27.9069 1.37597 27.9153C1.38386 27.919 1.39043 27.9174 1.39569 27.9106C1.39937 27.9053 1.40515 27.9011 1.41304 27.8979C1.41672 27.8969 1.42013 27.8974 1.42329 27.8995C1.5731 27.9889 1.67036 28.0401 1.71504 28.0533C1.81912 28.084 1.89876 27.9736 2.0202 28.0604C2.03912 28.074 2.06015 28.079 2.08328 28.0754C2.21496 28.0556 2.32693 28.1006 2.45546 28.0943C2.57532 28.0888 2.70069 28.1211 2.80951 28.1203C3.11283 28.1187 3.41851 28.1085 3.72656 28.0896C3.75757 28.088 3.78727 28.0804 3.81566 28.0667C3.9024 28.0241 3.99413 28.0102 4.09086 28.0249C4.11609 28.0291 4.13843 28.0223 4.15788 28.0044C4.17891 27.9849 4.20177 27.9865 4.22648 28.0091C4.2345 28.0164 4.24415 28.0217 4.25459 28.0244C4.26503 28.0272 4.27595 28.0273 4.28641 28.0249C4.30271 28.0217 4.31795 28.0157 4.33214 28.0068C4.34739 27.9962 4.36421 27.992 4.38261 27.9941C4.43465 27.9983 4.48722 27.9931 4.54031 27.9784C4.55222 27.9751 4.56478 27.9751 4.57661 27.9784C4.58844 27.9818 4.59907 27.9883 4.60734 27.9973C4.62258 28.0136 4.64072 28.0244 4.66175 28.0296C4.73114 28.0462 4.77135 28.002 4.84941 28.047C4.86939 28.058 4.88647 28.0549 4.90067 28.0375C4.94062 27.9897 4.99056 27.9581 5.05049 27.9429C5.07256 27.9366 5.07362 27.9276 5.05364 27.9161C5.04365 27.9098 5.03577 27.91 5.02998 27.9169C5.02473 27.9237 5.01816 27.9248 5.01027 27.92L4.95113 27.8798C4.94686 27.8771 4.94353 27.8731 4.9416 27.8685C4.93967 27.8638 4.93923 27.8586 4.94036 27.8537C4.94148 27.8488 4.94411 27.8443 4.94788 27.8409C4.95164 27.8376 4.95636 27.8354 4.96138 27.8349C4.97085 27.8338 4.97926 27.8349 4.98662 27.838C5.00155 27.8447 5.01758 27.8488 5.0336 27.85C5.04962 27.8511 5.06526 27.8493 5.07942 27.8447C5.09358 27.84 5.10594 27.8327 5.11565 27.8231C5.12535 27.8135 5.13218 27.8019 5.13565 27.7891C5.14563 27.7518 5.16877 27.7242 5.20504 27.7063C5.20808 27.7048 5.21145 27.7042 5.21482 27.7044C5.2182 27.7045 5.22148 27.7056 5.22433 27.7074C5.22718 27.7092 5.22952 27.7118 5.23111 27.7148C5.2327 27.7177 5.2335 27.7211 5.23342 27.7245C5.23342 27.7313 5.23342 27.7384 5.23342 27.7458C5.23342 27.7536 5.23658 27.755 5.24289 27.7497C5.28179 27.714 5.32384 27.7153 5.36905 27.7536C5.39744 27.7778 5.41189 27.7715 5.41242 27.7347L5.41321 27.704C5.41331 27.7001 5.41419 27.6962 5.4158 27.6927C5.41741 27.6891 5.41972 27.6859 5.42258 27.6833C5.42545 27.6806 5.42882 27.6786 5.43249 27.6773C5.43616 27.6759 5.44006 27.6754 5.44396 27.6756C5.56119 27.6829 5.63189 27.7408 5.65607 27.8491C5.6566 27.8527 5.6587 27.8546 5.66238 27.8546L5.6884 27.8538C5.6895 27.8538 5.69059 27.8535 5.69151 27.8529C5.69243 27.8523 5.69315 27.8514 5.69358 27.8504C5.694 27.8494 5.69411 27.8483 5.69389 27.8472C5.69367 27.8461 5.69313 27.8451 5.69234 27.8443C5.66764 27.8191 5.66658 27.7931 5.68919 27.7663C5.70811 27.7447 5.72047 27.7479 5.72625 27.7757C5.75043 27.8987 5.75621 28.0223 5.7436 28.1463C5.7436 28.1484 5.74439 28.1495 5.74596 28.1495C5.74701 28.1495 5.7478 28.1495 5.74833 28.1495C5.74255 28.1153 5.75096 28.0974 5.77356 28.0959C5.7683 28.8155 5.80247 29.5331 5.87607 30.2485C5.87765 30.2675 5.88711 30.2814 5.90446 30.2903C5.90209 30.3526 5.88553 30.3826 5.89421 30.4441C6.09291 31.8271 6.33762 32.9582 6.62832 33.8371C6.78918 34.3223 6.9503 34.8117 7.11168 35.3053C7.11322 35.31 7.11594 35.3143 7.11957 35.3176C7.1232 35.321 7.12764 35.3234 7.13245 35.3246C7.13726 35.3258 7.1423 35.3257 7.14708 35.3244C7.15186 35.3231 7.15623 35.3206 7.15978 35.3171L19.4371 23.1629Z" fill="#0E4F7C"/>
<path d="M20.0923 24.6437L22.5691 27.1244C22.5969 27.1528 22.5967 27.1809 22.5683 27.2088L20.0356 29.7178L18.1218 27.8396L17.4831 27.1985C17.4799 27.1952 17.4774 27.1913 17.4757 27.187C17.474 27.1828 17.4732 27.1782 17.4733 27.1737C17.4733 27.1691 17.4743 27.1647 17.4761 27.1605C17.478 27.1564 17.4806 27.1527 17.4839 27.1496L20.0923 24.6437Z" fill="#71B6DB"/>
<path d="M47.376 35.6452C43.7656 39.2177 40.1332 42.7705 36.4786 46.3036C35.2927 47.4493 34.2258 48.3317 32.685 48.875C31.8177 49.1815 30.8249 49.3804 29.7068 49.4719C26.8087 49.71 23.9903 49.357 21.2515 48.4129C21.2469 48.4113 21.2428 48.4086 21.2395 48.405C21.2362 48.4014 21.2339 48.3971 21.2328 48.3924C21.2317 48.3877 21.2318 48.3829 21.2332 48.3783C21.2345 48.3738 21.237 48.3697 21.2404 48.3664C22.4495 47.1794 23.6594 45.9908 24.87 44.8007C25.0238 44.6493 25.0522 44.5184 25.3068 44.5192C25.5471 44.5202 25.7739 44.5408 25.9873 44.5807C26.0488 44.5923 26.0594 44.5741 26.0189 44.5263C25.09 43.4366 23.9869 42.4501 22.9657 41.444L26.4573 38.0423C26.4708 38.029 26.4889 38.0216 26.5079 38.0216C26.5269 38.0216 26.5453 38.029 26.559 38.0423L31.298 42.648L32.208 43.5257C32.2285 43.5451 32.249 43.5451 32.2695 43.5257C38.1944 37.8105 44.0106 31.977 50.0049 26.3351C50.009 26.3315 50.014 26.3291 50.0194 26.3282C50.0248 26.3272 50.0303 26.3277 50.0353 26.3297C50.0403 26.3317 50.0446 26.335 50.0478 26.3393C50.0509 26.3436 50.0527 26.3487 50.053 26.354C50.2336 28.8016 49.904 31.2066 49.3938 33.5745C49.3754 33.6597 49.3229 33.7443 49.2361 33.8284C48.6137 34.4287 47.9937 35.0343 47.376 35.6452Z" fill="white"/>
<path d="M18.1218 27.8396L20.0356 29.7179L14.1177 35.5435L12.245 33.6415C12.2306 33.6272 12.2193 33.6101 12.2117 33.5913C12.204 33.5725 12.2002 33.5524 12.2004 33.5321C12.2007 33.5118 12.2049 33.4917 12.213 33.4729C12.221 33.4542 12.2327 33.4373 12.2473 33.4231L17.9712 27.8877C17.9804 27.8788 17.9923 27.8734 18.0051 27.8724C18.0179 27.8714 18.0307 27.8749 18.0414 27.8822C18.0798 27.909 18.1066 27.8948 18.1218 27.8396Z" fill="#1079BB"/>
<path d="M35.5458 32.316C35.5863 32.3155 35.6239 32.301 35.6586 32.2727C35.6764 32.2585 35.6906 32.2614 35.7011 32.2813C35.7143 32.306 35.7137 32.3313 35.6996 32.357C35.6988 32.3586 35.6976 32.3598 35.6961 32.3607C35.6946 32.3615 35.6928 32.3619 35.6911 32.3618C35.6893 32.3618 35.6875 32.3612 35.686 32.3602C35.6844 32.3592 35.6831 32.3578 35.6822 32.3562C35.6791 32.3489 35.6756 32.3413 35.672 32.3334C35.671 32.3313 35.6695 32.3295 35.6677 32.3281C35.6659 32.3268 35.6638 32.3259 35.6615 32.3255C35.6593 32.3251 35.657 32.3252 35.6548 32.3259C35.6527 32.3266 35.6507 32.3278 35.6491 32.3294L35.6294 32.3507C35.6273 32.3528 35.6275 32.3544 35.6302 32.3554C35.7022 32.3938 35.7356 32.4511 35.7303 32.5273C35.7287 32.5468 35.7374 32.5589 35.7563 32.5636C35.8094 32.5778 35.8538 32.6078 35.8896 32.6535C35.9022 32.6698 35.9185 32.6793 35.9385 32.6819C36.0037 32.6919 36.0652 32.7121 36.123 32.7426C36.1461 32.7552 36.1708 32.761 36.1971 32.76C36.2502 32.7584 36.2973 32.7423 36.3383 32.7119C36.3491 32.7039 36.3621 32.6995 36.3756 32.6993C36.389 32.6992 36.4022 32.7033 36.4132 32.7111C36.5104 32.7799 36.6208 32.8107 36.7443 32.8033C36.7526 32.8028 36.7609 32.8049 36.7679 32.8093C36.775 32.8137 36.7805 32.8201 36.7838 32.8278C36.7864 32.8341 36.7893 32.8404 36.7924 32.8467C36.7972 32.8556 36.8045 32.8604 36.8145 32.8609L37.0921 32.879C37.1194 32.8806 37.1449 32.8746 37.1686 32.8609C37.259 32.8083 37.3557 32.7994 37.4587 32.8341C37.4634 32.8361 37.4686 32.8367 37.4737 32.8357L38.2378 32.7379C38.2557 32.7353 38.2709 32.7405 38.2835 32.7537L38.2993 32.7686C38.3072 32.777 38.3167 32.7794 38.3277 32.7757C38.3908 32.7542 38.4549 32.7368 38.5201 32.7237C38.5558 32.7163 38.5848 32.7161 38.6068 32.7229C38.6173 32.7262 38.6275 32.7293 38.6368 32.7322C38.6462 32.735 38.6544 32.7375 38.661 32.7394C38.6677 32.7413 38.6726 32.7427 38.6755 32.7433C38.6784 32.744 38.6792 32.7441 38.6778 32.7434C38.723 32.7424 38.7659 32.731 38.8063 32.7095C38.8321 32.6958 38.8568 32.6971 38.8805 32.7134L39.0153 32.8073C39.0252 32.8142 39.0365 32.8188 39.0483 32.8209C39.0602 32.8229 39.0723 32.8223 39.0839 32.8191C39.1664 32.7975 39.2466 32.8062 39.3244 32.8451C39.348 32.8567 39.3725 32.8588 39.3977 32.8514C39.4166 32.8456 39.435 32.8446 39.4529 32.8483C39.4555 32.8488 39.4753 32.8617 39.5121 32.8869C39.5284 32.8985 39.5483 32.9048 39.572 32.9058C39.5855 32.9066 39.5983 32.9121 39.608 32.9216C39.6177 32.931 39.6237 32.9436 39.6248 32.9571C39.6285 32.9934 39.6403 33.0225 39.6603 33.0446C39.664 33.0488 39.6682 33.0491 39.6729 33.0454L39.725 33.002C39.733 32.9955 39.7424 32.9909 39.7525 32.9886C39.7626 32.9863 39.7731 32.9865 39.7832 32.989C39.7932 32.9915 39.8025 32.9964 39.8104 33.0032C39.8182 33.0099 39.8243 33.0185 39.8283 33.0281C39.8756 33.1463 39.9644 33.1965 40.0948 33.1787C40.1205 33.175 40.1434 33.1813 40.1634 33.1976C40.2291 33.2491 40.3045 33.2686 40.3897 33.2559C40.4154 33.2517 40.4415 33.2509 40.4677 33.2536L40.7698 33.2812C40.7742 33.2819 40.7783 33.2841 40.7814 33.2874C40.7845 33.2907 40.7864 33.2949 40.7869 33.2994C40.7873 33.3039 40.7863 33.3084 40.7839 33.3122C40.7815 33.3161 40.7779 33.319 40.7737 33.3206C40.759 33.3253 40.7535 33.3335 40.7571 33.345C40.7582 33.3482 40.7598 33.3487 40.7619 33.3466C40.7703 33.3382 40.7797 33.3351 40.7902 33.3372C40.8023 33.3393 40.8097 33.3466 40.8123 33.3592C40.8144 33.3692 40.8123 33.3776 40.806 33.3845C40.8018 33.3897 40.8029 33.3926 40.8092 33.3931C40.8276 33.3942 40.842 33.401 40.8525 33.4136C40.3531 33.9178 39.849 34.4172 39.3402 34.9118C38.1705 36.0489 37.0025 37.1872 35.836 38.3269C34.4829 39.649 33.1282 40.969 31.7719 42.2869C31.6284 42.4267 31.4704 42.5471 31.298 42.648L26.559 38.0423C26.5452 38.029 26.5269 38.0216 26.5079 38.0216C26.4889 38.0216 26.4708 38.029 26.4573 38.0423L22.9657 41.444C22.8648 41.3914 22.7725 41.3969 22.6889 41.4605C22.537 41.5777 22.3914 41.7026 22.2521 41.8351C20.6136 43.3969 18.9797 44.9763 17.3507 46.5733C17.3236 46.5996 17.2881 46.6156 17.2504 46.6185C17.2127 46.6214 17.175 46.611 17.1441 46.5891L15.1428 45.1626C14.5067 44.69 13.8951 44.1888 13.3079 43.6589C13.269 43.6232 13.2288 43.5761 13.1873 43.5178L26.1916 30.6735C26.2072 30.6582 26.2282 30.6495 26.2501 30.6493C26.2721 30.6492 26.2932 30.6576 26.309 30.6727L31.7286 35.9535C31.7706 35.9945 31.8129 35.9942 31.8555 35.9527L35.5458 32.316Z" fill="#0E67A5"/>
<path d="M54.2203 34.0539C53.3288 37.659 51.7762 40.8993 49.5625 43.7748C45.0467 49.6398 38.4948 53.2591 31.1474 54.136C29.7433 54.3037 28.4257 54.3649 27.1945 54.3197C20.6127 54.08 14.1295 51.4503 9.30454 46.9415C9.26564 46.8311 9.20545 46.7399 9.12397 46.6679C9.03197 46.5864 8.97573 46.5331 8.95522 46.5078C8.90266 46.4437 8.8493 46.379 8.79515 46.3138C8.78254 46.2975 8.76624 46.287 8.74627 46.2823L8.63429 46.2547C8.63236 46.2542 8.63057 46.2533 8.62904 46.252C8.62751 46.2507 8.62628 46.2491 8.62545 46.2473C8.62462 46.2455 8.6242 46.2435 8.62423 46.2415C8.62426 46.2395 8.62474 46.2376 8.62562 46.2358C8.6293 46.2284 8.63272 46.2213 8.63587 46.2145C8.64008 46.2061 8.63876 46.1987 8.63193 46.1924C8.62457 46.1861 8.61511 46.1835 8.60354 46.1845C8.57779 46.1877 8.5657 46.1764 8.56727 46.1506C8.56885 46.1249 8.55939 46.1104 8.53888 46.1073C8.51207 46.103 8.49683 46.0878 8.49315 46.0615C8.48895 46.0347 8.48106 46.0166 8.46949 46.0071C8.38276 45.9367 8.30496 45.8578 8.23609 45.7706C8.22663 45.7585 8.22873 45.749 8.2424 45.7422C8.24923 45.739 8.25607 45.7359 8.2629 45.7327C8.26816 45.7301 8.27236 45.7311 8.27552 45.7359C8.3018 45.7774 8.33623 45.7868 8.37881 45.7642C8.38972 45.7585 8.40194 45.7559 8.41417 45.7566C8.42639 45.7573 8.43816 45.7613 8.4482 45.7682C8.48027 45.7918 8.50682 45.8013 8.52785 45.7966C8.85482 45.7235 9.18495 45.6933 9.51823 45.7059C9.84074 45.7177 10.1025 45.6799 10.4014 45.6531C10.425 45.651 10.4445 45.6586 10.4597 45.6759C10.4786 45.6985 10.5023 45.7009 10.5307 45.683C10.5389 45.6777 10.5456 45.6705 10.5502 45.6619C10.5547 45.6533 10.557 45.6438 10.5567 45.6341C10.5541 45.569 10.5714 45.5117 10.6088 45.4622C10.6178 45.4505 10.6305 45.4422 10.6449 45.4385C10.6593 45.4348 10.6746 45.4359 10.6884 45.4417C10.7473 45.467 10.803 45.4601 10.8556 45.4212C10.8622 45.4164 10.8675 45.4099 10.8709 45.4024C10.8743 45.3949 10.8757 45.3866 10.8749 45.3784C10.8741 45.3702 10.8711 45.3623 10.8664 45.3556C10.8616 45.3489 10.8552 45.3435 10.8477 45.34L10.7176 45.2793C10.7055 45.2735 10.6934 45.2733 10.6813 45.2785C10.6734 45.2822 10.6671 45.2867 10.6624 45.2919C10.6615 45.2931 10.6604 45.294 10.6591 45.2946C10.6578 45.2953 10.6563 45.2956 10.6549 45.2956C10.6534 45.2956 10.652 45.2953 10.6507 45.2946C10.6494 45.294 10.6483 45.2931 10.6474 45.2919C10.568 45.1952 10.5654 45.0914 10.6395 44.9805C10.6468 44.9695 10.6582 44.962 10.6712 44.9595C10.6842 44.957 10.6978 44.9597 10.7089 44.967C10.7546 44.9965 10.8075 45.0123 10.8674 45.0144C10.8847 45.0149 10.9016 45.012 10.9179 45.0057L10.9715 44.9844C10.9972 44.9744 11.0222 44.9757 11.0464 44.9883C11.1058 45.0194 11.1518 45.0125 11.1844 44.9678C11.2007 44.9452 11.212 44.9473 11.2183 44.9741L11.2735 45.2123C11.2814 45.2459 11.3024 45.2609 11.3366 45.2572C11.3686 45.2541 11.3931 45.2664 11.4099 45.2943C11.4204 45.3111 11.4322 45.3122 11.4454 45.2974C11.4617 45.279 11.479 45.2748 11.4974 45.2848C11.5106 45.2917 11.5177 45.3027 11.5187 45.3179C11.5203 45.3337 11.5311 45.344 11.551 45.3487C11.5637 45.3518 11.5708 45.3597 11.5723 45.3723C11.5797 45.447 11.6233 45.4804 11.7032 45.4725C11.7143 45.4714 11.7198 45.4764 11.7198 45.4875V45.5435C11.7198 45.5708 11.7316 45.5918 11.7553 45.6065L11.7978 45.6326C11.8014 45.6348 11.8054 45.6362 11.8096 45.6365C11.8138 45.6368 11.818 45.6361 11.8219 45.6344C11.8257 45.6327 11.8291 45.63 11.8316 45.6267C11.8342 45.6233 11.8358 45.6194 11.8365 45.6152C11.847 45.5532 11.8425 45.493 11.8231 45.4346C11.8157 45.4131 11.8194 45.3934 11.8341 45.3755C11.8709 45.3308 11.894 45.278 11.9035 45.217C11.9072 45.1934 11.9082 45.1697 11.9067 45.146C11.903 45.0987 11.9101 45.0514 11.928 45.0041C11.9309 44.9964 11.9357 44.9896 11.9419 44.9842C11.9481 44.9788 11.9556 44.975 11.9636 44.9732C11.9716 44.9713 11.9799 44.9714 11.9879 44.9735C11.9958 44.9756 12.0031 44.9796 12.0092 44.9852C12.0554 45.0283 12.1051 45.0307 12.1582 44.9923C12.163 44.9891 12.1686 44.9875 12.1744 44.9879C12.1801 44.9883 12.1855 44.9905 12.1899 44.9943C12.1942 44.9981 12.1971 45.0032 12.1982 45.0088C12.1994 45.0144 12.1986 45.0203 12.196 45.0254C12.1892 45.0385 12.1913 45.0477 12.2024 45.053C12.2076 45.0556 12.2129 45.0559 12.2181 45.0538C12.308 45.0212 12.379 45.0472 12.431 45.1318C12.4552 45.1707 12.4444 45.1897 12.3987 45.1886L12.2221 45.1847C12.2168 45.1845 12.2116 45.1859 12.2071 45.1887C12.2027 45.1915 12.1991 45.1956 12.1969 45.2004C12.1947 45.2052 12.194 45.2105 12.1948 45.2157C12.1957 45.2209 12.198 45.2257 12.2016 45.2296C12.2121 45.2417 12.2158 45.2551 12.2126 45.2698C12.2074 45.2935 12.2037 45.3066 12.2016 45.3093C12.1763 45.3345 12.1656 45.366 12.1692 45.4039C12.1719 45.426 12.184 45.4352 12.2055 45.4315L12.4003 45.3984C12.4034 45.3978 12.4034 45.3944 12.4003 45.3881C12.3987 45.3839 12.3982 45.3797 12.3987 45.3755C12.3998 45.3718 12.4024 45.3687 12.4066 45.366C12.4413 45.3429 12.4705 45.345 12.4941 45.3723C12.5046 45.3839 12.5175 45.3886 12.5327 45.3865C12.5438 45.385 12.5567 45.3863 12.5714 45.3905C12.5971 45.3984 12.6092 45.3889 12.6077 45.3621C12.6077 45.3542 12.6077 45.3466 12.6077 45.3392C12.6077 45.3214 12.6163 45.314 12.6337 45.3172C12.6594 45.3214 12.6862 45.3195 12.7141 45.3116C12.7299 45.3069 12.7438 45.299 12.7559 45.288C12.769 45.2769 12.7824 45.2777 12.7961 45.2903C12.8072 45.3014 12.8206 45.3085 12.8363 45.3116C12.9709 45.3395 13.1015 45.3308 13.2282 45.2856C13.2561 45.2756 13.2837 45.2764 13.311 45.288L13.4096 45.329C13.4327 45.3384 13.4556 45.3379 13.4782 45.3274L13.6974 45.2265C13.7147 45.2181 13.7271 45.2052 13.7345 45.1878C13.7555 45.1363 13.7904 45.1171 13.8393 45.1303C13.8498 45.1329 13.8615 45.1372 13.874 45.1429C14.0307 45.2149 14.1058 45.3058 14.0995 45.4157C14.099 45.4325 14.1058 45.4365 14.12 45.4275C14.1684 45.3981 14.1797 45.3561 14.1539 45.3014C14.1504 45.2942 14.1486 45.2864 14.1485 45.2785C14.1484 45.2705 14.15 45.2626 14.1533 45.2553C14.1566 45.248 14.1615 45.2415 14.1676 45.2363C14.1737 45.231 14.1809 45.2271 14.1886 45.2249C14.2086 45.2191 14.2294 45.2175 14.2509 45.2202C14.2657 45.2223 14.2756 45.2162 14.2809 45.202C14.2982 45.1531 14.3264 45.1166 14.3653 45.0924C14.3889 45.0777 14.4131 45.0764 14.4378 45.0885C14.5041 45.1205 14.5742 45.1287 14.6484 45.1129C14.6767 45.1066 14.6972 45.0908 14.7099 45.0656C14.7193 45.0456 14.7346 45.0396 14.7556 45.0475C14.7782 45.0559 14.7966 45.0667 14.8108 45.0798C14.8203 45.0893 14.8281 45.088 14.8344 45.0759C14.8544 45.0359 14.8915 45.0286 14.9456 45.0538C14.9546 45.058 14.9569 45.0646 14.9527 45.0735C14.9496 45.0793 14.9464 45.0853 14.9433 45.0916C14.9412 45.0964 14.9422 45.1 14.9464 45.1027C15.0116 45.1389 15.077 45.1589 15.1428 45.1626L17.144 46.589C17.175 46.6109 17.2126 46.6214 17.2504 46.6185C17.2881 46.6156 17.3236 46.5996 17.3506 46.5733C18.9797 44.9762 20.6135 43.3968 22.2521 41.835C22.3914 41.7026 22.537 41.5777 22.6889 41.4605C22.7725 41.3969 22.8647 41.3914 22.9657 41.4439C23.9868 42.4501 25.09 43.4365 26.0188 44.5263C26.0593 44.5741 26.0488 44.5922 25.9873 44.5807C25.7739 44.5407 25.547 44.5202 25.3068 44.5192C25.0521 44.5184 25.0237 44.6493 24.87 44.8007C23.6593 45.9908 22.4495 47.1794 21.2404 48.3664C21.237 48.3696 21.2344 48.3737 21.2331 48.3783C21.2318 48.3828 21.2317 48.3877 21.2328 48.3924C21.2339 48.397 21.2362 48.4014 21.2394 48.405C21.2427 48.4086 21.2468 48.4113 21.2514 48.4129C23.9902 49.357 26.8087 49.71 29.7068 49.4719C30.8249 49.3804 31.8176 49.1814 32.685 48.875C34.2258 48.3317 35.2926 47.4493 36.4786 46.3036C40.1331 42.7705 43.7656 39.2177 47.3759 35.6451C47.4516 35.6362 47.5189 35.5934 47.5778 35.5166C47.5862 35.5056 47.5973 35.5008 47.6109 35.5024C47.6262 35.5045 47.6396 35.4998 47.6511 35.4882C47.6522 35.4872 47.6529 35.4859 47.6534 35.4845C47.6538 35.4831 47.6539 35.4816 47.6537 35.4801C47.6535 35.4787 47.6529 35.4773 47.6521 35.4761C47.6512 35.4749 47.6501 35.4739 47.6488 35.4732C47.6419 35.4701 47.6354 35.4669 47.6291 35.4638C47.6233 35.4606 47.6225 35.4569 47.6267 35.4527L47.6425 35.4378C47.6483 35.432 47.6551 35.4294 47.663 35.4299C47.7671 35.4346 47.8417 35.3889 47.8869 35.2927C47.8884 35.2894 47.891 35.2866 47.8943 35.2849C47.8975 35.2832 47.9012 35.2827 47.9048 35.2833C47.9084 35.2839 47.9117 35.2857 47.9142 35.2884C47.9166 35.2911 47.9181 35.2945 47.9185 35.2982C47.9269 35.3844 47.981 35.4194 48.0809 35.4031C48.1109 35.3978 48.1682 35.3657 48.2528 35.3069C48.2733 35.2927 48.2946 35.2911 48.3167 35.3021C48.3419 35.3148 48.365 35.3092 48.386 35.2856C48.4497 35.2167 48.5025 35.1678 48.5445 35.1389C48.5614 35.1268 48.5784 35.1263 48.5958 35.1373C48.6016 35.141 48.6074 35.1439 48.6131 35.146C48.6331 35.1544 48.6463 35.1589 48.6526 35.1594C48.8918 35.1662 49.1254 35.1308 49.3536 35.053C49.3851 35.0419 49.4211 35.0198 49.4616 34.9867C49.4805 34.972 49.5018 34.9625 49.5255 34.9583C49.6437 34.9389 49.757 34.9031 49.8653 34.8511C49.8884 34.8401 49.9129 34.834 49.9386 34.833C50.0782 34.829 50.1981 34.7722 50.3266 34.7722C50.5653 34.7728 50.8039 34.7728 51.0426 34.7722C51.0954 34.7722 51.1285 34.7478 51.1656 34.7155C51.1845 34.6992 51.2034 34.6989 51.2224 34.7147C51.2408 34.7299 51.2615 34.7268 51.2847 34.7052C51.527 34.6574 51.7683 34.6035 52.0085 34.5436C52.0117 34.5425 52.0132 34.5402 52.0132 34.5365C52.0132 34.5286 52.0132 34.5204 52.0132 34.512C52.0138 34.5042 52.018 34.4994 52.0259 34.4978L53.0115 34.3244C53.0404 34.3196 53.0633 34.3054 53.0801 34.2818C53.1048 34.2471 53.1332 34.2384 53.1653 34.2558C53.1832 34.2652 53.2021 34.2697 53.2221 34.2692C53.3204 34.266 53.4184 34.26 53.5162 34.251C53.5356 34.2495 53.5511 34.2518 53.5627 34.2581C53.5737 34.2639 53.5835 34.2713 53.5919 34.2802C53.6019 34.2907 53.6137 34.2941 53.6274 34.2905C53.7204 34.2642 53.7998 34.215 53.8655 34.143C53.876 34.1314 53.8884 34.1296 53.9025 34.1375C53.9136 34.1433 53.9259 34.1438 53.9396 34.1391C53.9564 34.1338 53.9648 34.1249 53.9648 34.1123C53.9648 34.1091 53.9651 34.1059 53.9656 34.1028C53.9672 34.0891 53.9735 34.0923 53.9846 34.1123C53.9888 34.1201 53.9927 34.1278 53.9964 34.1351C53.9977 34.1377 53.9996 34.1399 54.0019 34.1416C54.0042 34.1433 54.0068 34.1444 54.0096 34.1449C54.0124 34.1455 54.0153 34.1454 54.0181 34.1446C54.0208 34.1439 54.0234 34.1425 54.0256 34.1406C54.0413 34.127 54.0476 34.1109 54.0445 34.0925C54.0376 34.0531 54.0474 34.0465 54.0737 34.0728L54.0918 34.091C54.1034 34.1025 54.1128 34.101 54.1202 34.0862C54.1296 34.0657 54.1338 34.0444 54.1328 34.0224C54.1312 33.9945 54.1433 33.985 54.1691 33.994C54.1933 34.0019 54.2103 34.0218 54.2203 34.0539Z" fill="#0D446E"/>
</svg>
